<?xml version="1.0" encoding="UTF-8"?>
<svg width="57px" height="57px" viewBox="0 0 57 57" version="1.1" xmlns="http://www.w3.org/2000/svg" xmlns:xlink="http://www.w3.org/1999/xlink">
    <!-- Generator: Sketch 46.2 (44496) - http://www.bohemiancoding.com/sketch -->
    <title>gear</title>
    <desc>Created with Sketch.</desc>
    <defs></defs>
    <g id="ALT-Lab-main" stroke="none" stroke-width="1" fill="none" fill-rule="evenodd" stroke-linejoin="round">
        <g id="Desktop-HD" transform="translate(-1366.000000, -126.000000)" stroke="#FFFFFF">
            <g id="gear" transform="translate(1394.512075, 154.512075) rotate(-348.000000) translate(-1394.512075, -154.512075) translate(1359.512075, 119.512075)">
                <polygon id="gear2" transform="translate(35.000000, 35.000000) rotate(22.000000) translate(-35.000000, -35.000000) " points="35 15.5892256 42.1048365 8.48438908 48.7254902 11.2267536 48.7254902 21.2745098 58.7732464 21.2745098 61.5156109 27.8951635 54.4107744 35 61.5156109 42.1048365 58.7732464 48.7254902 48.7254902 48.7254902 48.7254902 58.7732464 42.1048365 61.5156109 35 54.4107744 27.8951635 61.5156109 21.2745098 58.7732464 21.2745098 48.7254902 11.2267536 48.7254902 8.48438908 42.1048365 15.5892256 36.3993566 8.48438908 27.8951635 11.2267536 21.2745098 21.2745098 21.2745098 21.2745098 11.2267536 27.8951635 8.48438908"></polygon>
                <circle id="gear1" transform="translate(35.343137, 35.343137) rotate(22.000000) translate(-35.343137, -35.343137) " cx="35.3431373" cy="35.3431373" r="8.57843137"></circle>
            </g>
        </g>
    </g>
</svg>