<?xml version="1.0" encoding="UTF-8"?>
<svg width="522px" height="42px" viewBox="0 0 522 42" version="1.1" xmlns="http://www.w3.org/2000/svg" xmlns:xlink="http://www.w3.org/1999/xlink">
    <!-- Generator: Sketch 46.2 (44496) - http://www.bohemiancoding.com/sketch -->
    <title>Group 2</title>
    <desc>Created with Sketch.</desc>
    <defs></defs>
    <g id="ALT-Lab-main" stroke="none" stroke-width="1" fill="none" fill-rule="evenodd">
        <g id="Desktop-HD" transform="translate(-742.000000, -469.000000)" stroke="#FFFFFF">
            <g id="Group-2" transform="translate(743.000000, 470.000000)">
                <rect id="Rectangle-3" x="0" y="20" width="20" height="20"></rect>
                <rect id="Rectangle-3-Copy-2" x="40" y="20" width="20" height="20"></rect>
                <rect id="Rectangle-3-Copy" x="20" y="20" width="20" height="20"></rect>
                <rect id="Rectangle-3-Copy-3" x="60" y="20" width="20" height="20"></rect>
                <rect id="Rectangle-3-Copy-4" x="80" y="20" width="20" height="20"></rect>
                <rect id="Rectangle-3-Copy-5" x="100" y="20" width="20" height="20"></rect>
                <rect id="Rectangle-3-Copy-6" x="120" y="20" width="20" height="20"></rect>
                <rect id="Rectangle-3-Copy-8" x="160" y="20" width="20" height="20"></rect>
                <rect id="Rectangle-3-Copy-9" x="180" y="20" width="20" height="20"></rect>
                <rect id="Rectangle-3-Copy-2" x="260" y="20" width="20" height="20"></rect>
                <rect id="Rectangle-3-Copy" x="240" y="20" width="20" height="20"></rect>
                <rect id="Rectangle-3-Copy-3" x="280" y="20" width="20" height="20"></rect>
                <rect id="Rectangle-3-Copy-4" x="300" y="20" width="20" height="20"></rect>
                <rect id="Rectangle-3-Copy-5" x="320" y="20" width="20" height="20"></rect>
                <rect id="Rectangle-3-Copy-6" x="340" y="20" width="20" height="20"></rect>
                <rect id="Rectangle-3-Copy-8" x="380" y="20" width="20" height="20"></rect>
                <rect id="Rectangle-3-Copy-10" x="420" y="20" width="20" height="20"></rect>
                <rect id="Rectangle-3-Copy-11" x="440" y="20" width="20" height="20"></rect>
                <rect id="Rectangle-3-Copy-12" x="460" y="20" width="20" height="20"></rect>
                <rect id="Rectangle-3-Copy-13" x="480" y="20" width="20" height="20"></rect>
                <rect id="Rectangle-3" x="0" y="0" width="20" height="20"></rect>
                <rect id="Rectangle-3-Copy-2" x="40" y="0" width="20" height="20"></rect>
                <rect id="Rectangle-3-Copy-3" x="60" y="0" width="20" height="20"></rect>
                <rect id="Rectangle-3-Copy-4" x="80" y="0" width="20" height="20"></rect>
                <rect id="Rectangle-3-Copy-6" x="120" y="0" width="20" height="20"></rect>
                <rect id="Rectangle-3-Copy-7" x="140" y="0" width="20" height="20"></rect>
                <rect id="Rectangle-3-Copy-8" x="160" y="0" width="20" height="20"></rect>
                <rect id="Rectangle-3-Copy-10" x="200" y="0" width="20" height="20"></rect>
                <rect id="Rectangle-3" x="220" y="0" width="20" height="20"></rect>
                <rect id="Rectangle-3-Copy-2" x="260" y="0" width="20" height="20"></rect>
                <rect id="Rectangle-3-Copy" x="240" y="0" width="20" height="20"></rect>
                <rect id="Rectangle-3-Copy-4" x="300" y="0" width="20" height="20"></rect>
                <rect id="Rectangle-3-Copy-5" x="320" y="0" width="20" height="20"></rect>
                <rect id="Rectangle-3-Copy-6" x="340" y="0" width="20" height="20"></rect>
                <rect id="Rectangle-3-Copy-7" x="360" y="0" width="20" height="20"></rect>
                <rect id="Rectangle-3-Copy-8" x="380" y="0" width="20" height="20"></rect>
                <rect id="Rectangle-3-Copy-9" x="400" y="0" width="20" height="20"></rect>
                <rect id="Rectangle-3-Copy-10" x="420" y="0" width="20" height="20"></rect>
                <rect id="Rectangle-3-Copy-11" x="440" y="0" width="20" height="20"></rect>
                <rect id="Rectangle-3-Copy-13" x="480" y="0" width="20" height="20"></rect>
                <rect id="Rectangle-3-Copy-14" x="500" y="0" width="20" height="20"></rect>
            </g>
        </g>
    </g>
</svg>