<?xml version="1.0" encoding="UTF-8"?>
<svg width="522px" height="42px" viewBox="0 0 522 42" version="1.1" xmlns="http://www.w3.org/2000/svg" xmlns:xlink="http://www.w3.org/1999/xlink">
    <!-- Generator: Sketch 46.2 (44496) - http://www.bohemiancoding.com/sketch -->
    <title>Group 4</title>
    <desc>Created with Sketch.</desc>
    <defs></defs>
    <g id="ALT-Lab-main" stroke="none" stroke-width="1" fill="none" fill-rule="evenodd">
        <g id="Desktop-HD" transform="translate(-752.000000, -372.000000)" stroke="#FFFFFF">
            <g id="Group-4" transform="translate(753.000000, 373.000000)">
                <g id="Group-3" transform="translate(0.000000, 30.000000)">
                    <rect id="Rectangle-5" x="0" y="0" width="10" height="10"></rect>
                    <rect id="Rectangle-5" x="10" y="0" width="10" height="10"></rect>
                    <rect id="Rectangle-5" x="20" y="0" width="10" height="10"></rect>
                    <rect id="Rectangle-5" x="30" y="0" width="10" height="10"></rect>
                    <rect id="Rectangle-5-Copy" x="40" y="0" width="10" height="10"></rect>
                    <rect id="Rectangle-5-Copy-2" x="50" y="0" width="10" height="10"></rect>
                    <rect id="Rectangle-5-Copy-3" x="60" y="0" width="10" height="10"></rect>
                    <rect id="Rectangle-5-Copy-4" x="70" y="0" width="10" height="10"></rect>
                    <rect id="Rectangle-5-Copy-5" x="80" y="0" width="10" height="10"></rect>
                    <rect id="Rectangle-5-Copy-6" x="90" y="0" width="10" height="10"></rect>
                    <rect id="Rectangle-5-Copy-7" x="100" y="0" width="10" height="10"></rect>
                    <rect id="Rectangle-5-Copy-8" x="110" y="0" width="10" height="10"></rect>
                    <rect id="Rectangle-5-Copy-9" x="120" y="0" width="10" height="10"></rect>
                    <rect id="Rectangle-5" x="130" y="0" width="10" height="10"></rect>
                    <rect id="Rectangle-5" x="140" y="0" width="10" height="10"></rect>
                    <rect id="Rectangle-5" x="150" y="0" width="10" height="10"></rect>
                    <rect id="Rectangle-5" x="160" y="0" width="10" height="10"></rect>
                    <rect id="Rectangle-5-Copy" x="170" y="0" width="10" height="10"></rect>
                    <rect id="Rectangle-5-Copy-2" x="180" y="0" width="10" height="10"></rect>
                    <rect id="Rectangle-5-Copy-3" x="190" y="0" width="10" height="10"></rect>
                    <rect id="Rectangle-5-Copy-4" fill="#FFFFFF" x="200" y="0" width="10" height="10"></rect>
                    <rect id="Rectangle-5-Copy-5" x="210" y="0" width="10" height="10"></rect>
                    <rect id="Rectangle-5-Copy-6" x="220" y="0" width="10" height="10"></rect>
                    <rect id="Rectangle-5-Copy-7" x="230" y="0" width="10" height="10"></rect>
                    <rect id="Rectangle-5-Copy-8" x="240" y="0" width="10" height="10"></rect>
                    <rect id="Rectangle-5-Copy-9" x="250" y="0" width="10" height="10"></rect>
                    <rect id="Rectangle-5" x="260" y="0" width="10" height="10"></rect>
                    <rect id="Rectangle-5" x="270" y="0" width="10" height="10"></rect>
                    <rect id="Rectangle-5" x="280" y="0" width="10" height="10"></rect>
                    <rect id="Rectangle-5" x="290" y="0" width="10" height="10"></rect>
                    <rect id="Rectangle-5-Copy" x="300" y="0" width="10" height="10"></rect>
                    <rect id="Rectangle-5-Copy-2" x="310" y="0" width="10" height="10"></rect>
                    <rect id="Rectangle-5-Copy-3" x="320" y="0" width="10" height="10"></rect>
                    <rect id="Rectangle-5-Copy-4" x="330" y="0" width="10" height="10"></rect>
                    <rect id="Rectangle-5-Copy-5" x="340" y="0" width="10" height="10"></rect>
                    <rect id="Rectangle-5-Copy-6" x="350" y="0" width="10" height="10"></rect>
                    <rect id="Rectangle-5-Copy-7" x="360" y="0" width="10" height="10"></rect>
                    <rect id="Rectangle-5-Copy-8" x="370" y="0" width="10" height="10"></rect>
                    <rect id="Rectangle-5-Copy-9" x="380" y="0" width="10" height="10"></rect>
                    <rect id="Rectangle-5" x="390" y="0" width="10" height="10"></rect>
                    <rect id="Rectangle-5" x="400" y="0" width="10" height="10"></rect>
                    <rect id="Rectangle-5" x="410" y="0" width="10" height="10"></rect>
                    <rect id="Rectangle-5" x="420" y="0" width="10" height="10"></rect>
                    <rect id="Rectangle-5-Copy" x="430" y="0" width="10" height="10"></rect>
                    <rect id="Rectangle-5-Copy-2" x="440" y="0" width="10" height="10"></rect>
                    <rect id="Rectangle-5-Copy-3" x="450" y="0" width="10" height="10"></rect>
                    <rect id="Rectangle-5-Copy-4" x="460" y="0" width="10" height="10"></rect>
                    <rect id="Rectangle-5-Copy-5" x="470" y="0" width="10" height="10"></rect>
                    <rect id="Rectangle-5-Copy-6" x="480" y="0" width="10" height="10"></rect>
                    <rect id="Rectangle-5-Copy-7" x="490" y="0" width="10" height="10"></rect>
                    <rect id="Rectangle-5-Copy-8" x="500" y="0" width="10" height="10"></rect>
                    <rect id="Rectangle-5-Copy-9" x="510" y="0" width="10" height="10"></rect>
                </g>
                <g id="Group-3" transform="translate(0.000000, 20.000000)">
                    <rect id="Rectangle-5" x="0" y="0" width="10" height="10"></rect>
                    <rect id="Rectangle-5" x="10" y="0" width="10" height="10"></rect>
                    <rect id="Rectangle-5" x="20" y="0" width="10" height="10"></rect>
                    <rect id="Rectangle-5" x="30" y="0" width="10" height="10"></rect>
                    <rect id="Rectangle-5-Copy" x="40" y="0" width="10" height="10"></rect>
                    <rect id="Rectangle-5-Copy-2" x="50" y="0" width="10" height="10"></rect>
                    <rect id="Rectangle-5-Copy-3" x="60" y="0" width="10" height="10"></rect>
                    <rect id="Rectangle-5-Copy-4" x="70" y="0" width="10" height="10"></rect>
                    <rect id="Rectangle-5-Copy-5" x="80" y="0" width="10" height="10"></rect>
                    <rect id="Rectangle-5-Copy-6" x="90" y="0" width="10" height="10"></rect>
                    <rect id="Rectangle-5-Copy-7" x="100" y="0" width="10" height="10"></rect>
                    <rect id="Rectangle-5-Copy-8" x="110" y="0" width="10" height="10"></rect>
                    <rect id="Rectangle-5-Copy-9" x="120" y="0" width="10" height="10"></rect>
                    <rect id="Rectangle-5" x="130" y="0" width="10" height="10"></rect>
                    <rect id="Rectangle-5" x="140" y="0" width="10" height="10"></rect>
                    <rect id="Rectangle-5" x="150" y="0" width="10" height="10"></rect>
                    <rect id="Rectangle-5" x="160" y="0" width="10" height="10"></rect>
                    <rect id="Rectangle-5-Copy" x="170" y="0" width="10" height="10"></rect>
                    <rect id="Rectangle-5-Copy-2" x="180" y="0" width="10" height="10"></rect>
                    <rect id="Rectangle-5-Copy-3" x="190" y="0" width="10" height="10"></rect>
                    <rect id="Rectangle-5-Copy-4" x="200" y="0" width="10" height="10"></rect>
                    <rect id="Rectangle-5-Copy-5" x="210" y="0" width="10" height="10"></rect>
                    <rect id="Rectangle-5-Copy-6" x="220" y="0" width="10" height="10"></rect>
                    <rect id="Rectangle-5-Copy-7" x="230" y="0" width="10" height="10"></rect>
                    <rect id="Rectangle-5-Copy-8" x="240" y="0" width="10" height="10"></rect>
                    <rect id="Rectangle-5-Copy-9" x="250" y="0" width="10" height="10"></rect>
                    <rect id="Rectangle-5" x="260" y="0" width="10" height="10"></rect>
                    <rect id="Rectangle-5" x="270" y="0" width="10" height="10"></rect>
                    <rect id="Rectangle-5" x="280" y="0" width="10" height="10"></rect>
                    <rect id="Rectangle-5" x="290" y="0" width="10" height="10"></rect>
                    <rect id="Rectangle-5-Copy" x="300" y="0" width="10" height="10"></rect>
                    <rect id="Rectangle-5-Copy-2" x="310" y="0" width="10" height="10"></rect>
                    <rect id="Rectangle-5-Copy-3" x="320" y="0" width="10" height="10"></rect>
                    <rect id="Rectangle-5-Copy-4" x="330" y="0" width="10" height="10"></rect>
                    <rect id="Rectangle-5-Copy-5" x="340" y="0" width="10" height="10"></rect>
                    <rect id="Rectangle-5-Copy-6" x="350" y="0" width="10" height="10"></rect>
                    <rect id="Rectangle-5-Copy-7" x="360" y="0" width="10" height="10"></rect>
                    <rect id="Rectangle-5-Copy-8" x="370" y="0" width="10" height="10"></rect>
                    <rect id="Rectangle-5-Copy-9" x="380" y="0" width="10" height="10"></rect>
                    <rect id="Rectangle-5" x="390" y="0" width="10" height="10"></rect>
                    <rect id="Rectangle-5" x="400" y="0" width="10" height="10"></rect>
                    <rect id="Rectangle-5" x="410" y="0" width="10" height="10"></rect>
                    <rect id="Rectangle-5" x="420" y="0" width="10" height="10"></rect>
                    <rect id="Rectangle-5-Copy" x="430" y="0" width="10" height="10"></rect>
                    <rect id="Rectangle-5-Copy-2" x="440" y="0" width="10" height="10"></rect>
                    <rect id="Rectangle-5-Copy-3" x="450" y="0" width="10" height="10"></rect>
                    <rect id="Rectangle-5-Copy-4" x="460" y="0" width="10" height="10"></rect>
                    <rect id="Rectangle-5-Copy-5" x="470" y="0" width="10" height="10"></rect>
                    <rect id="Rectangle-5-Copy-6" x="480" y="0" width="10" height="10"></rect>
                    <rect id="Rectangle-5-Copy-7" x="490" y="0" width="10" height="10"></rect>
                    <rect id="Rectangle-5-Copy-8" x="500" y="0" width="10" height="10"></rect>
                    <rect id="Rectangle-5-Copy-9" x="510" y="0" width="10" height="10"></rect>
                </g>
                <g id="Group-3-Copy" transform="translate(0.000000, 10.000000)">
                    <rect id="Rectangle-5" x="0" y="0" width="10" height="10"></rect>
                    <rect id="Rectangle-5" x="10" y="0" width="10" height="10"></rect>
                    <rect id="Rectangle-5" x="20" y="0" width="10" height="10"></rect>
                    <rect id="Rectangle-5" x="30" y="0" width="10" height="10"></rect>
                    <rect id="Rectangle-5-Copy" x="40" y="0" width="10" height="10"></rect>
                    <rect id="Rectangle-5-Copy-2" x="50" y="0" width="10" height="10"></rect>
                    <rect id="Rectangle-5-Copy-3" x="60" y="0" width="10" height="10"></rect>
                    <rect id="Rectangle-5-Copy-4" x="70" y="0" width="10" height="10"></rect>
                    <rect id="Rectangle-5-Copy-5" x="80" y="0" width="10" height="10"></rect>
                    <rect id="Rectangle-5-Copy-6" x="90" y="0" width="10" height="10"></rect>
                    <rect id="Rectangle-5-Copy-7" x="100" y="0" width="10" height="10"></rect>
                    <rect id="Rectangle-5-Copy-8" x="110" y="0" width="10" height="10"></rect>
                    <rect id="Rectangle-5-Copy-9" x="120" y="0" width="10" height="10"></rect>
                    <rect id="Rectangle-5" x="130" y="0" width="10" height="10"></rect>
                    <rect id="Rectangle-5" x="140" y="0" width="10" height="10"></rect>
                    <rect id="Rectangle-5" x="150" y="0" width="10" height="10"></rect>
                    <rect id="Rectangle-5" x="160" y="0" width="10" height="10"></rect>
                    <rect id="Rectangle-5-Copy" x="170" y="0" width="10" height="10"></rect>
                    <rect id="Rectangle-5-Copy-2" x="180" y="0" width="10" height="10"></rect>
                    <rect id="Rectangle-5-Copy-3" x="190" y="0" width="10" height="10"></rect>
                    <rect id="Rectangle-5-Copy-4" x="200" y="0" width="10" height="10"></rect>
                    <rect id="Rectangle-5-Copy-5" x="210" y="0" width="10" height="10"></rect>
                    <rect id="Rectangle-5-Copy-6" x="220" y="0" width="10" height="10"></rect>
                    <rect id="Rectangle-5-Copy-7" x="230" y="0" width="10" height="10"></rect>
                    <rect id="Rectangle-5-Copy-8" x="240" y="0" width="10" height="10"></rect>
                    <rect id="Rectangle-5-Copy-9" x="250" y="0" width="10" height="10"></rect>
                    <rect id="Rectangle-5" x="260" y="0" width="10" height="10"></rect>
                    <rect id="Rectangle-5" x="270" y="0" width="10" height="10"></rect>
                    <rect id="Rectangle-5" x="280" y="0" width="10" height="10"></rect>
                    <rect id="Rectangle-5" x="290" y="0" width="10" height="10"></rect>
                    <rect id="Rectangle-5-Copy" x="300" y="0" width="10" height="10"></rect>
                    <rect id="Rectangle-5-Copy-2" x="310" y="0" width="10" height="10"></rect>
                    <rect id="Rectangle-5-Copy-3" x="320" y="0" width="10" height="10"></rect>
                    <rect id="Rectangle-5-Copy-4" x="330" y="0" width="10" height="10"></rect>
                    <rect id="Rectangle-5-Copy-5" x="340" y="0" width="10" height="10"></rect>
                    <rect id="Rectangle-5-Copy-6" x="350" y="0" width="10" height="10"></rect>
                    <rect id="Rectangle-5-Copy-7" x="360" y="0" width="10" height="10"></rect>
                    <rect id="Rectangle-5-Copy-8" x="370" y="0" width="10" height="10"></rect>
                    <rect id="Rectangle-5-Copy-9" x="380" y="0" width="10" height="10"></rect>
                    <rect id="Rectangle-5" x="390" y="0" width="10" height="10"></rect>
                    <rect id="Rectangle-5" x="400" y="0" width="10" height="10"></rect>
                    <rect id="Rectangle-5" x="410" y="0" width="10" height="10"></rect>
                    <rect id="Rectangle-5" x="420" y="0" width="10" height="10"></rect>
                    <rect id="Rectangle-5-Copy" x="430" y="0" width="10" height="10"></rect>
                    <rect id="Rectangle-5-Copy-2" x="440" y="0" width="10" height="10"></rect>
                    <rect id="Rectangle-5-Copy-3" x="450" y="0" width="10" height="10"></rect>
                    <rect id="Rectangle-5-Copy-4" x="460" y="0" width="10" height="10"></rect>
                    <rect id="Rectangle-5-Copy-5" x="470" y="0" width="10" height="10"></rect>
                    <rect id="Rectangle-5-Copy-6" x="480" y="0" width="10" height="10"></rect>
                    <rect id="Rectangle-5-Copy-7" x="490" y="0" width="10" height="10"></rect>
                    <rect id="Rectangle-5-Copy-8" x="500" y="0" width="10" height="10"></rect>
                    <rect id="Rectangle-5-Copy-9" x="510" y="0" width="10" height="10"></rect>
                </g>
                <g id="Group-3-Copy-2">
                    <rect id="Rectangle-5" x="0" y="0" width="10" height="10"></rect>
                    <rect id="Rectangle-5" x="10" y="0" width="10" height="10"></rect>
                    <rect id="Rectangle-5" x="20" y="0" width="10" height="10"></rect>
                    <rect id="Rectangle-5" x="30" y="0" width="10" height="10"></rect>
                    <rect id="Rectangle-5-Copy" x="40" y="0" width="10" height="10"></rect>
                    <rect id="Rectangle-5-Copy-2" x="50" y="0" width="10" height="10"></rect>
                    <rect id="Rectangle-5-Copy-3" x="60" y="0" width="10" height="10"></rect>
                    <rect id="Rectangle-5-Copy-4" x="70" y="0" width="10" height="10"></rect>
                    <rect id="Rectangle-5-Copy-5" x="80" y="0" width="10" height="10"></rect>
                    <rect id="Rectangle-5-Copy-6" x="90" y="0" width="10" height="10"></rect>
                    <rect id="Rectangle-5-Copy-7" x="100" y="0" width="10" height="10"></rect>
                    <rect id="Rectangle-5-Copy-8" x="110" y="0" width="10" height="10"></rect>
                    <rect id="Rectangle-5-Copy-9" x="120" y="0" width="10" height="10"></rect>
                    <rect id="Rectangle-5" x="130" y="0" width="10" height="10"></rect>
                    <rect id="Rectangle-5" x="140" y="0" width="10" height="10"></rect>
                    <rect id="Rectangle-5" x="150" y="0" width="10" height="10"></rect>
                    <rect id="Rectangle-5" x="160" y="0" width="10" height="10"></rect>
                    <rect id="Rectangle-5-Copy" x="170" y="0" width="10" height="10"></rect>
                    <rect id="Rectangle-5-Copy-2" x="180" y="0" width="10" height="10"></rect>
                    <rect id="Rectangle-5-Copy-3" x="190" y="0" width="10" height="10"></rect>
                    <rect id="Rectangle-5-Copy-4" x="200" y="0" width="10" height="10"></rect>
                    <rect id="Rectangle-5-Copy-5" x="210" y="0" width="10" height="10"></rect>
                    <rect id="Rectangle-5-Copy-6" x="220" y="0" width="10" height="10"></rect>
                    <rect id="Rectangle-5-Copy-7" x="230" y="0" width="10" height="10"></rect>
                    <rect id="Rectangle-5-Copy-8" x="240" y="0" width="10" height="10"></rect>
                    <rect id="Rectangle-5-Copy-9" x="250" y="0" width="10" height="10"></rect>
                    <rect id="Rectangle-5" x="260" y="0" width="10" height="10"></rect>
                    <rect id="Rectangle-5" x="270" y="0" width="10" height="10"></rect>
                    <rect id="Rectangle-5" x="280" y="0" width="10" height="10"></rect>
                    <rect id="Rectangle-5" x="290" y="0" width="10" height="10"></rect>
                    <rect id="Rectangle-5-Copy" x="300" y="0" width="10" height="10"></rect>
                    <rect id="Rectangle-5-Copy-2" x="310" y="0" width="10" height="10"></rect>
                    <rect id="Rectangle-5-Copy-3" x="320" y="0" width="10" height="10"></rect>
                    <rect id="Rectangle-5-Copy-4" x="330" y="0" width="10" height="10"></rect>
                    <rect id="Rectangle-5-Copy-5" x="340" y="0" width="10" height="10"></rect>
                    <rect id="Rectangle-5-Copy-6" x="350" y="0" width="10" height="10"></rect>
                    <rect id="Rectangle-5-Copy-7" x="360" y="0" width="10" height="10"></rect>
                    <rect id="Rectangle-5-Copy-8" x="370" y="0" width="10" height="10"></rect>
                    <rect id="Rectangle-5-Copy-9" x="380" y="0" width="10" height="10"></rect>
                    <rect id="Rectangle-5" x="390" y="0" width="10" height="10"></rect>
                    <rect id="Rectangle-5" x="400" y="0" width="10" height="10"></rect>
                    <rect id="Rectangle-5" x="410" y="0" width="10" height="10"></rect>
                    <rect id="Rectangle-5" x="420" y="0" width="10" height="10"></rect>
                    <rect id="Rectangle-5-Copy" x="430" y="0" width="10" height="10"></rect>
                    <rect id="Rectangle-5-Copy-2" x="440" y="0" width="10" height="10"></rect>
                    <rect id="Rectangle-5-Copy-3" x="450" y="0" width="10" height="10"></rect>
                    <rect id="Rectangle-5-Copy-4" x="460" y="0" width="10" height="10"></rect>
                    <rect id="Rectangle-5-Copy-5" x="470" y="0" width="10" height="10"></rect>
                    <rect id="Rectangle-5-Copy-6" x="480" y="0" width="10" height="10"></rect>
                    <rect id="Rectangle-5-Copy-7" x="490" y="0" width="10" height="10"></rect>
                    <rect id="Rectangle-5-Copy-8" x="500" y="0" width="10" height="10"></rect>
                    <rect id="Rectangle-5-Copy-9" x="510" y="0" width="10" height="10"></rect>
                </g>
            </g>
        </g>
    </g>
</svg>