<?xml version="1.0" encoding="UTF-8"?>
<svg width="73px" height="85px" viewBox="0 0 73 85" version="1.1" xmlns="http://www.w3.org/2000/svg" xmlns:xlink="http://www.w3.org/1999/xlink">
    <!-- Generator: Sketch 46.2 (44496) - http://www.bohemiancoding.com/sketch -->
    <title>handoutline</title>
    <desc>Created with Sketch.</desc>
    <defs></defs>
    <g id="ALT-Lab-main" stroke="none" stroke-width="1" fill="none" fill-rule="evenodd">
        <g id="Desktop-HD" transform="translate(-1041.000000, -490.000000)" stroke="#FFFFFE">
            <path d="M1058.55942,549.562912 C1057.76921,546.854206 1055.80523,544.226286 1053.94511,540.55901 C1052.35723,537.428724 1054.40743,512.080258 1054.62942,510.020555 C1054.85141,507.960174 1058.73525,507.006356 1061.13506,510.459108 C1063.53488,513.912538 1063.41133,528.752718 1065.10851,528.66718 C1066.57692,528.593182 1066.24766,505.920158 1066.17095,495.147111 C1066.14108,490.982221 1072.70036,490.862061 1073.68269,494.060235 C1074.40772,496.420678 1075.3534,508.639726 1076.74644,518.952497 C1076.87068,519.87305 1078.22843,519.855399 1078.39882,518.942314 C1078.50812,518.353051 1078.62285,517.756321 1078.73758,517.187425 C1079.30037,514.392502 1084.83319,513.106715 1086.36133,516.637538 C1086.46927,516.888042 1086.5745,517.805879 1086.67429,518.03466 C1087.22486,519.286503 1089.02116,519.213863 1089.46922,517.921288 C1089.56765,517.638876 1089.67627,517.342887 1089.79779,517.034 C1091.07611,513.776085 1095.65172,514.613136 1096.73995,516.953893 C1097.41136,518.396499 1097.15814,519.302796 1098.47244,519.43857 C1099.74872,519.570272 1099.84784,518.420939 1100.32644,517.615116 C1101.83286,515.078165 1106.8511,515.655886 1107.439,521.681569 C1107.87077,526.109862 1107.25254,565.854138 1099.67671,569.069885 L1058.55942,586.523142 C1058.55942,566.256505 1059.34963,552.271619 1058.55942,549.562912 Z" id="handoutline" transform="translate(1080.444701, 539.173532) rotate(-337.000000) translate(-1080.444701, -539.173532) "></path>
        </g>
    </g>
</svg>