<?xml version="1.0" encoding="UTF-8"?>
<svg width="65px" height="81px" viewBox="0 0 65 81" version="1.1" xmlns="http://www.w3.org/2000/svg" xmlns:xlink="http://www.w3.org/1999/xlink">
    <!-- Generator: Sketch 46.2 (44496) - http://www.bohemiancoding.com/sketch -->
    <title>Group 3</title>
    <desc>Created with Sketch.</desc>
    <defs></defs>
    <g id="ALT-Lab-main" stroke="none" stroke-width="1" fill="none" fill-rule="evenodd">
        <g id="Desktop" transform="translate(-386.000000, -330.000000)" stroke="#000000">
            <g id="Group-3" transform="translate(387.000000, 330.000000)">
                <path d="M7.5,7.50356275 L7.5,69.5 C12.3344799,69.5 12.7233599,69.5 16.5215249,69.5 C16.2300021,63.011217 16.8754613,57.7890215 18.467901,53.8297317 C18.9663657,52.5903968 19.7939682,51.3041659 21.0961458,49.6428905 C21.7088909,48.8611703 24.2563334,45.7930583 24.8355356,45.0666357 C29.323469,39.4379684 31.5,34.8152091 31.5,28.9652044 C31.5,16.6485085 21.7766951,7.70752981 7.5,7.50356275 Z" id="Path-3-Copy" transform="translate(19.500000, 38.500000) scale(-1, 1) translate(-19.500000, -38.500000) "></path>
                <path d="M31.5,7.50356275 L31.5,69.5 C36.3344799,69.5 36.7233599,69.5 40.5215249,69.5 C40.2300021,63.011217 40.8754613,57.7890215 42.467901,53.8297317 C42.9663657,52.5903968 43.7939682,51.3041659 45.0961458,49.6428905 C45.7088909,48.8611703 48.2563334,45.7930583 48.8355356,45.0666357 C53.323469,39.4379684 55.5,34.8152091 55.5,28.9652044 C55.5,16.6485085 45.7766951,7.70752981 31.5,7.50356275 Z" id="Path-3-Copy-3"></path>
                <path d="M22.5775286,69.5 L22.4961991,76.9618545 C22.4960259,76.9809269 22.4960259,76.9809269 22.4959913,77 C22.4959913,78.9329966 24.0629946,80.5 25.9959913,80.5 L37.0040028,80.5 C37.0230759,80.4999654 37.0230759,80.4999654 37.0421483,80.4997921 C38.9750301,80.4787249 40.5248621,78.8947363 40.5037949,76.9618545 L40.4224655,69.5 L22.5775286,69.5 Z" id="Rectangle-6"></path>
                <g id="Group-10" stroke-linecap="square">
                    <path d="M31.5,0.5 L31.5,67.7985595" id="Line-5"></path>
                    <path d="M15.2266667,38.5 L48.7763963,38.5" id="Line-6"></path>
                    <path d="M14.2266667,55.7733333 L47.7855833,22.2144167" id="Line-7"></path>
                    <path d="M0.229927007,7.22992701 L62.7717636,69.7717636" id="Line-2"></path>
                </g>
            </g>
        </g>
    </g>
</svg>