<?xml version="1.0" encoding="UTF-8"?>
<svg width="65px" height="74px" viewBox="0 0 65 74" version="1.1" xmlns="http://www.w3.org/2000/svg" xmlns:xlink="http://www.w3.org/1999/xlink">
    <!-- Generator: Sketch 46.2 (44496) - http://www.bohemiancoding.com/sketch -->
    <title>Group Copy</title>
    <desc>Created with Sketch.</desc>
    <defs></defs>
    <g id="ALT-Lab-main" stroke="none" stroke-width="1" fill="none" fill-rule="evenodd">
        <g id="Desktop" transform="translate(-501.000000, -419.000000)" stroke="#000000">
            <g id="Group-Copy" transform="translate(502.000000, 419.000000)">
                <path d="M7.5,0.503562754 L7.5,62.5 C12.3344799,62.5 12.7233599,62.5 16.5215249,62.5 C16.2300021,56.011217 16.8754613,50.7890215 18.467901,46.8297317 C18.9663657,45.5903968 19.7939682,44.3041659 21.0961458,42.6428905 C21.7088909,41.8611703 24.2563334,38.7930583 24.8355356,38.0666357 C29.323469,32.4379684 31.5,27.8152091 31.5,21.9652044 C31.5,9.6485085 21.7766951,0.707529808 7.5,0.503562754 Z" id="Path-3-Copy" transform="translate(19.500000, 31.500000) scale(-1, 1) translate(-19.500000, -31.500000) "></path>
                <path d="M31.5,0.503562754 L31.5,62.5 C36.3344799,62.5 36.7233599,62.5 40.5215249,62.5 C40.2300021,56.011217 40.8754613,50.7890215 42.467901,46.8297317 C42.9663657,45.5903968 43.7939682,44.3041659 45.0961458,42.6428905 C45.7088909,41.8611703 48.2563334,38.7930583 48.8355356,38.0666357 C53.323469,32.4379684 55.5,27.8152091 55.5,21.9652044 C55.5,9.6485085 45.7766951,0.707529808 31.5,0.503562754 Z" id="Path-3-Copy-3"></path>
                <path d="M22.5775286,62.5 L22.4961991,69.9618545 C22.4960259,69.9809269 22.4960259,69.9809269 22.4959913,70 C22.4959913,71.9329966 24.0629946,73.5 25.9959913,73.5 L37.0040028,73.5 C37.0230759,73.4999654 37.0230759,73.4999654 37.0421483,73.4997921 C38.9750301,73.4787249 40.5248621,71.8947363 40.5037949,69.9618545 L40.4224655,62.5 L22.5775286,62.5 Z" id="Rectangle-6"></path>
                <g id="Group-10" stroke-linecap="square">
                    <path d="M31.5,2.23046875 L31.5,60.7985595" id="Line-5"></path>
                    <path d="M15.2266667,31.5 L48.7763963,31.5" id="Line-6"></path>
                    <path d="M14.2266667,48.7733333 L47.7855833,15.2144167" id="Line-7"></path>
                    <path d="M0.229927007,0.229927007 L62.7717636,62.7717636" id="Line-2"></path>
                </g>
            </g>
        </g>
    </g>
</svg>