<?xml version="1.0" encoding="utf-8"?>
<!-- Generator: Adobe Illustrator 21.1.0, SVG Export Plug-In . SVG Version: 6.00 Build 0)  -->
<svg version="1.1" xmlns="http://www.w3.org/2000/svg" xmlns:xlink="http://www.w3.org/1999/xlink" x="0px" y="0px"
	 viewBox="0 0 612 792" enable-background="new 0 0 612 792" xml:space="preserve">
<g id="Layer_3" display="none">
	
		<rect x="5" y="-9" display="inline" fill="#AA3636" stroke="#FFFFFF" stroke-width="10" stroke-miterlimit="10" width="612" height="775"/>
</g>
<g id="Layer_1" display="none">
	<polyline display="inline" fill="none" stroke="#FFFFFF" stroke-width="10" stroke-miterlimit="10" points="23.5,19.3 189.8,19.3 
		410.7,19.3 587.4,19.3 	"/>
	<polyline display="inline" fill="none" stroke="#FFFFFF" stroke-width="10" stroke-miterlimit="10" points="23.5,39.3 189.8,40.3 
		410.7,38.3 587.4,39.3 	"/>
	<polyline display="inline" fill="none" stroke="#FFFFFF" stroke-width="10" stroke-miterlimit="10" points="23.5,59.3 189.8,61.3 
		410.7,57.3 587.4,59.3 	"/>
	<polyline display="inline" fill="none" stroke="#FFFFFF" stroke-width="10" stroke-miterlimit="10" points="23.5,79.3 189.8,82.3 
		410.7,76.3 587.4,79.3 	"/>
	<polyline display="inline" fill="none" stroke="#FFFFFF" stroke-width="10" stroke-miterlimit="10" points="23.5,99.3 189.8,103.3 
		410.7,95.3 587.4,99.3 	"/>
	<polyline display="inline" fill="none" stroke="#FFFFFF" stroke-width="10" stroke-miterlimit="10" points="23.5,119.3 
		189.8,124.3 410.7,114.3 587.4,119.3 	"/>
	<polyline display="inline" fill="none" stroke="#FFFFFF" stroke-width="10" stroke-miterlimit="10" points="23.5,139.3 
		189.8,145.3 410.7,133.3 587.4,139.3 	"/>
	<path display="inline" fill="none" stroke="#FFFFFF" stroke-width="10" stroke-miterlimit="10" d="M23.5,159.3l166,7
		c0.2,0,0.4,0,0.5,0l220.4-14c0.2,0,0.3,0,0.5,0l176.4,7"/>
	<path display="inline" fill="none" stroke="#FFFFFF" stroke-width="10" stroke-miterlimit="10" d="M23.5,179.3l165.7,8
		c0.4,0,0.8,0,1.2,0l219.7-15.9c0.4,0,0.8,0,1.2,0l176.1,8"/>
	<path display="inline" fill="none" stroke="#FFFFFF" stroke-width="10" stroke-miterlimit="10" d="M23.5,199.3l165.3,8.9
		c0.7,0,1.4,0,2,0l212.3-17.3c5.1-0.4,10.1-0.5,15.2-0.2l169.1,8.6"/>
	<path display="inline" fill="none" stroke="#FFFFFF" stroke-width="10" stroke-miterlimit="10" d="M23.5,219.3l164.8,9.9
		c1,0.1,2,0,3,0l218-19.7c1-0.1,2-0.1,2.9,0l175.2,9.9"/>
	<path display="inline" fill="none" stroke="#FFFFFF" stroke-width="10" stroke-miterlimit="10" d="M23.5,239.3l164.2,10.9
		c1.4,0.1,2.8,0.1,4.1-0.1l216.8-21.6c1.3-0.1,2.7-0.2,4-0.1l174.7,10.9"/>
	<path display="inline" fill="none" stroke="#FFFFFF" stroke-width="10" stroke-miterlimit="10" d="M23.5,259.3l163.6,11.8
		c1.8,0.1,3.6,0.1,5.4-0.1l215.6-23.4c1.8-0.2,3.5-0.2,5.3-0.1l174.1,11.8"/>
	<path display="inline" fill="none" stroke="#FFFFFF" stroke-width="10" stroke-miterlimit="10" d="M23.3,278.7l163.6,12.8
		c1.8,0.1,3.6,0.1,5.4-0.1L407.9,267c1.8-0.2,3.5-0.2,5.3-0.1l174.1,11.8"/>
	<path display="inline" fill="none" stroke="#FFFFFF" stroke-width="10" stroke-miterlimit="10" d="M23.5,299.3l155.8,13.1
		c7,0.6,14,0.4,21-0.4l200.2-25.4c6.8-0.9,13.6-1,20.5-0.5l166.4,13.2"/>
	<path display="inline" fill="none" stroke="#FFFFFF" stroke-width="10" stroke-miterlimit="10" d="M23.5,319.3l149.4,13.5
		c11.2,1,22.5,0.8,33.7-0.8l187.7-25.5c10.9-1.5,21.9-1.8,32.9-0.8l160.2,13.6"/>
	<path display="inline" fill="none" stroke="#FFFFFF" stroke-width="10" stroke-miterlimit="10" d="M23.5,339.3L165.8,353
		c15.9,1.5,32,1.1,47.8-1.1l173.8-25.2c15.5-2.2,31.1-2.7,46.7-1.3l153.3,13.9"/>
	<path display="inline" fill="none" stroke="#FFFFFF" stroke-width="10" stroke-miterlimit="10" d="M23.5,359.3L158,373
		c21.1,2.2,42.5,1.6,63.5-1.6l158.4-24.4c20.5-3.2,41.3-3.7,62-1.8l145.6,14"/>
	<path display="inline" fill="none" stroke="#FFFFFF" stroke-width="10" stroke-miterlimit="10" d="M23.5,379.3l129.3,14
		c24.6,2.7,49.4,2,73.8-2l148.2-24.2c23.8-3.9,48.1-4.6,72.1-2.2l140.5,14.3"/>
	<path display="inline" fill="none" stroke="#FFFFFF" stroke-width="10" stroke-miterlimit="10" d="M23.5,399.3l123.7,14.1
		c28.3,3.2,56.9,2.4,84.9-2.4l137.4-23.6c27.4-4.7,55.3-5.6,82.9-2.6l135.1,14.5"/>
	<path display="inline" fill="none" stroke="#FFFFFF" stroke-width="10" stroke-miterlimit="10" d="M23.5,419.3l117.7,14.2
		c32.2,3.9,64.8,2.9,96.7-2.9l125.8-22.8c31.2-5.6,63-6.7,94.5-3.1l129.2,14.6"/>
	<path display="inline" fill="none" stroke="#FFFFFF" stroke-width="10" stroke-miterlimit="10" d="M23.5,439.3l115,14.5
		c34,4.3,68.4,3.2,102-3.2l117.1-22.3c35.2-6.7,71.1-7.9,106.7-3.7l123.1,14.6"/>
	<path display="inline" fill="none" stroke="#FFFFFF" stroke-width="10" stroke-miterlimit="10" d="M23.5,459.3l100.7,13.3
		c43.5,5.8,87.6,4.3,130.6-4.3l92.6-18.4c42-8.4,85.1-9.9,127.6-4.6l112.5,14"/>
	<path display="inline" fill="none" stroke="#FFFFFF" stroke-width="10" stroke-miterlimit="10" d="M23.5,479.3l100.7,14.3
		c43.5,5.8,87.6,4.3,130.6-4.3l92.6-20.4c42-8.4,85.1-9.9,127.6-4.6l112.5,15"/>
	<path display="inline" fill="none" stroke="#FFFFFF" stroke-width="10" stroke-miterlimit="10" d="M23.5,499.3l100.7,16.3
		c1.8,0.2,3.6,0.5,5.4,0.7c50.8,6.1,102.4,2.1,151.9-11l39.9-11.1c48.2-13.4,98.5-18,148.2-12.5c1.8,0.2,3.5,0.4,5.3,0.6l112.5,17"
		/>
	<path display="inline" fill="none" stroke="#FFFFFF" stroke-width="10" stroke-miterlimit="10" d="M23.5,519.3l100.7,18.3
		c1.8,0.2,3.6,0.5,5.4,0.7c20,2.4,40,3.2,60.1,2.6c38.2-1.3,76-8.4,112.4-20.3h0c18.1-6.9,36.8-12.3,55.8-15.8
		c36.8-6.7,74.4-8.2,111.7-4.1c1.8,0.2,3.5,0.4,5.3,0.6l112.5,18"/>
	<path display="inline" fill="none" stroke="#FFFFFF" stroke-width="10" stroke-miterlimit="10" d="M23.5,539.3l100.7,18.3
		c1.8,0.2,3.6,0.5,5.4,0.7c20,2.4,40,4.2,60.1,3.6c38.2-1.3,95-15,112.4-21.3c17.3-6.3,36.8-13.3,55.8-16.8
		c36.9-6.7,74.4-8.2,111.7-4.1c1.8,0.2,3.5,0.4,5.3,0.6l112.5,19"/>
	<path display="inline" fill="none" stroke="#FFFFFF" stroke-width="10" stroke-miterlimit="10" d="M23.5,559.3l100.7,19.3
		c1.8,0.2,3.6,0.5,5.4,0.7c20,2.4,40,4.2,60.1,3.6c38.2-1.3,100.3-17.8,112.4-22.3c12-4.6,36.8-14.3,55.8-17.8
		c36.9-6.7,74.4-8.2,111.7-4.1c1.8,0.2,3.5,0.4,5.3,0.6l112.5,20"/>
	<path display="inline" fill="none" stroke="#FFFFFF" stroke-width="10" stroke-miterlimit="10" d="M23.5,579.3l96.1,20.3
		c3.3,0.7,6.6,1.3,10,1.7l0.1,0c20,2.4,40,4.2,60.1,3.6c38.2-1.3,89.6-14.2,112.4-22.3c22.7-8.2,36.8-17.3,55.8-20.8
		c36.9-6.7,74.4-8.2,111.7-4.1c0,0,0,0,0.1,0c3.5,0.4,7,0.9,10.5,1.6l107.3,20"/>
	<path display="inline" fill="none" stroke="#FFFFFF" stroke-width="10" stroke-miterlimit="10" d="M23.5,599.3l96,21.3
		c3.3,0.7,6.7,1.3,10.1,1.7l0,0c20,2.4,40,4.2,60.1,3.6c38.2-1.3,86.8-11.9,112.4-22.3c22-9,37-18.3,55.8-22.8
		c45.1-10.8,82.9-7.6,111.7-4.1c28.8,3.5,117.9,22.6,117.9,22.6"/>
	<path display="inline" fill="none" stroke="#FFFFFF" stroke-width="10" stroke-miterlimit="10" d="M23.5,619.3l96,22.3
		c3.3,0.7,6.7,1.3,10.1,1.7l0,0c20,2.4,40,4.2,60.1,3.6c38.2-1.3,82.3-9.1,112.4-22.3c18.8-8.3,40.8-20.6,55.8-24.8
		c36.1-10,82.9-8.6,111.7-4.1c28.8,4.5,117.9,23.6,117.9,23.6"/>
	<path display="inline" fill="none" stroke="#FFFFFF" stroke-width="10" stroke-miterlimit="10" d="M23.5,639.3l96,23.3
		c3.3,0.7,6.7,1.3,10.1,1.7l0,0c20,2.4,40,4.2,60.1,3.6c38.2-1.3,82.1-8.6,112.4-22.3c21-9.5,36.9-21.6,55.8-26.8
		c35.4-9.7,82.3-9.6,111.7-4.1s117.9,24.6,117.9,24.6"/>
	<path display="inline" fill="none" stroke="#FFFFFF" stroke-width="10" stroke-miterlimit="10" d="M23.5,659.3l96,24.3
		c3.3,0.7,6.7,1.3,10.1,1.7l0,0c20,2.4,40,4.2,60.1,3.6c38.2-1.3,82.1-7.6,112.4-21.3c21.4-9.7,40.1-24.8,58.8-29.8
		c47.8-12.8,82.2-9.9,108.7-4.1s117.9,25.6,117.9,25.6"/>
	<path display="inline" fill="none" stroke="#FFFFFF" stroke-width="10" stroke-miterlimit="10" d="M23.5,679.3
		c0,0,51.6,18,103,26.8c22.6,3.9,45.1,3.5,63.2,3.8c41.3,0.6,82.1-6.6,112.4-20.3c21.4-9.7,41.4-25.3,61.8-31.8
		c34.1-10.8,69.9-13.2,105.7-5.1s117.9,26.6,117.9,26.6"/>
	<path display="inline" fill="none" stroke="#FFFFFF" stroke-width="10" stroke-miterlimit="10" d="M23.5,699.3
		c0,0,88.5,32.2,166.2,31.6c38.2-0.3,82.1-6.6,112.4-20.3c19.9-9,41.2-25.5,66.8-33.8c39.1-12.5,70.9-12.9,100.7-5.1
		s117.9,27.6,117.9,27.6"/>
	<path display="inline" fill="none" stroke="#FFFFFF" stroke-width="10" stroke-miterlimit="10" d="M23.5,719.3
		c0,0,80,33.6,166.2,33.6c38.2,0,84.1-7.6,114.4-21.3c21.4-9.7,36.7-22.3,62.8-32.8c39.1-15.8,65.1-15.2,102.7-6.1
		s117.9,26.6,117.9,26.6"/>
</g>
<g id="Layer_2" display="none">
	<polyline display="inline" opacity="0.2" fill="none" stroke="#FFFFFF" stroke-width="7.0055" stroke-miterlimit="10" points="
		107.9,127.2 224.4,127.2 379.2,127.2 503,127.2 	"/>
	<polyline display="inline" opacity="0.2" fill="none" stroke="#FFFFFF" stroke-width="7.0055" stroke-miterlimit="10" points="
		107.9,141.2 224.4,141.9 379.2,140.5 503,141.2 	"/>
	<polyline display="inline" opacity="0.2" fill="none" stroke="#FFFFFF" stroke-width="7.0055" stroke-miterlimit="10" points="
		107.9,155.2 224.4,156.6 379.2,153.8 503,155.2 	"/>
	<polyline display="inline" opacity="0.2" fill="none" stroke="#FFFFFF" stroke-width="7.0055" stroke-miterlimit="10" points="
		107.9,169.2 224.4,171.3 379.2,167.1 503,169.2 	"/>
	<polyline display="inline" opacity="0.2" fill="none" stroke="#FFFFFF" stroke-width="7.0055" stroke-miterlimit="10" points="
		107.9,183.2 224.4,186 379.2,180.4 503,183.2 	"/>
	<polyline display="inline" opacity="0.2" fill="none" stroke="#FFFFFF" stroke-width="7.0055" stroke-miterlimit="10" points="
		107.9,197.2 224.4,200.7 379.2,193.7 503,197.2 	"/>
	<polyline display="inline" opacity="0.2" fill="none" stroke="#FFFFFF" stroke-width="7.0055" stroke-miterlimit="10" points="
		107.9,211.3 224.4,215.5 379.2,207 503,211.3 	"/>
	<path display="inline" opacity="0.2" fill="none" stroke="#FFFFFF" stroke-width="7.0055" stroke-miterlimit="10" d="M107.9,225.3
		l116.3,4.9c0.1,0,0.2,0,0.4,0l154.4-9.8c0.1,0,0.2,0,0.4,0l123.6,4.9"/>
	<path display="inline" opacity="0.2" fill="none" stroke="#FFFFFF" stroke-width="7.0055" stroke-miterlimit="10" d="M107.9,239.3
		l116.1,5.6c0.3,0,0.6,0,0.8,0l153.9-11.1c0.3,0,0.5,0,0.8,0l123.4,5.6"/>
	<path display="inline" opacity="0.2" fill="none" stroke="#FFFFFF" stroke-width="7.0055" stroke-miterlimit="10" d="M107.9,253.3
		l115.8,6.3c0.5,0,0.9,0,1.4,0l148.7-12.1c3.5-0.3,7.1-0.3,10.6-0.2l118.5,6"/>
	<path display="inline" opacity="0.2" fill="none" stroke="#FFFFFF" stroke-width="7.0055" stroke-miterlimit="10" d="M107.9,267.3
		l115.4,6.9c0.7,0,1.4,0,2.1,0l152.7-13.8c0.7-0.1,1.4-0.1,2.1,0l122.8,6.9"/>
	<path display="inline" opacity="0.2" fill="none" stroke="#FFFFFF" stroke-width="7.0055" stroke-miterlimit="10" d="M107.9,281.3
		l115.1,7.6c1,0.1,1.9,0,2.9,0l151.9-15.1c0.9-0.1,1.9-0.1,2.8-0.1l122.4,7.6"/>
	<path display="inline" opacity="0.2" fill="none" stroke="#FFFFFF" stroke-width="7.0055" stroke-miterlimit="10" d="M107.9,295.3
		l114.6,8.3c1.3,0.1,2.5,0.1,3.8-0.1l151-16.4c1.2-0.1,2.5-0.2,3.7-0.1l121.9,8.3"/>
	<path display="inline" opacity="0.2" fill="none" stroke="#FFFFFF" stroke-width="7.0055" stroke-miterlimit="10" d="M107.9,309.3
		l113.1,8.8c2.3,0.2,4.6,0.1,6.8-0.1L346,304.1c22.1-2.6,44.4-3.1,66.6-1.5l90.4,6.7"/>
	<path display="inline" opacity="0.2" fill="none" stroke="#FFFFFF" stroke-width="7.0055" stroke-miterlimit="10" d="M107.9,323.3
		l109.1,9.2c4.9,0.4,9.8,0.3,14.7-0.3l140.3-17.8c4.8-0.6,9.6-0.7,14.3-0.3l116.6,9.2"/>
	<path display="inline" opacity="0.2" fill="none" stroke="#FFFFFF" stroke-width="7.0055" stroke-miterlimit="10" d="M107.9,337.4
		l104.7,9.4c7.9,0.7,15.8,0.5,23.6-0.5l131.5-17.9c7.6-1,15.4-1.2,23-0.6l112.2,9.5"/>
	<path display="inline" opacity="0.2" fill="none" stroke="#FFFFFF" stroke-width="7.0055" stroke-miterlimit="10" d="M107.9,351.4
		l99.7,9.6c11.2,1.1,22.4,0.8,33.5-0.8l121.8-17.6c10.8-1.6,21.8-1.9,32.7-0.9l107.4,9.7"/>
	<path display="inline" opacity="0.2" fill="none" stroke="#FFFFFF" stroke-width="7.0055" stroke-miterlimit="10" d="M107.9,365.4
		l94.2,9.6c14.8,1.5,29.7,1.1,44.5-1.1l111-17.1c14.4-2.2,28.9-2.6,43.4-1.2l102,9.8"/>
	<path display="inline" opacity="0.2" fill="none" stroke="#FFFFFF" stroke-width="7.0055" stroke-miterlimit="10" d="M107.9,379.4
		l90.5,9.8c17.2,1.9,34.6,1.4,51.7-1.4l103.8-16.9c16.7-2.7,33.7-3.2,50.5-1.5l98.4,10"/>
	<path display="inline" opacity="0.2" fill="none" stroke="#FFFFFF" stroke-width="7.0055" stroke-miterlimit="10" d="M107.9,393.4
		l86.6,9.9c19.8,2.3,39.8,1.7,59.5-1.7l96.2-16.6c19.2-3.3,38.7-3.9,58.1-1.8l94.6,10.2"/>
	<path display="inline" opacity="0.2" fill="none" stroke="#FFFFFF" stroke-width="7.0055" stroke-miterlimit="10" d="M107.9,407.4
		l82.5,9.9c22.6,2.7,45.4,2,67.8-2l88.1-16c21.8-4,44.1-4.7,66.2-2.2l90.5,10.2"/>
	<path display="inline" opacity="0.2" fill="none" stroke="#FFFFFF" stroke-width="7.0055" stroke-miterlimit="10" d="M107.9,421.4
		l80.6,10.2c23.8,3,47.9,2.3,71.5-2.2l82-15.6c24.6-4.7,49.8-5.6,74.7-2.6l86.2,10.2"/>
	<path display="inline" opacity="0.2" fill="none" stroke="#FFFFFF" stroke-width="7.0055" stroke-miterlimit="10" d="M107.9,435.4
		l70.5,9.3c30.5,4,61.4,3,91.5-3l64.9-12.9c29.4-5.9,59.6-7,89.4-3.3l78.8,9.8"/>
	<path display="inline" opacity="0.2" fill="none" stroke="#FFFFFF" stroke-width="7.0055" stroke-miterlimit="10" d="M107.9,449.4
		l70.5,10c30.5,4,61.4,3,91.5-3l64.9-14.3c29.4-5.9,59.6-7,89.4-3.3l78.8,10.5"/>
	<path display="inline" opacity="0.2" fill="none" stroke="#FFFFFF" stroke-width="7.0055" stroke-miterlimit="10" d="M107.9,463.4
		l70.5,11.4c1.3,0.2,2.5,0.3,3.8,0.5c35.6,4.3,71.7,1.5,106.4-7.7l28-7.8c33.7-9.4,69-12.6,103.8-8.8c1.2,0.1,2.5,0.3,3.7,0.4
		l78.8,11.9"/>
	<path display="inline" opacity="0.2" fill="none" stroke="#FFFFFF" stroke-width="7.0055" stroke-miterlimit="10" d="M107.9,477.5
		l70.5,12.8c1.3,0.2,2.5,0.3,3.8,0.5c14,1.7,28.1,2.3,42.1,1.8c26.8-0.9,53.3-5.9,78.7-14.2h0c12.7-4.8,25.8-8.6,39.1-11.1
		c25.8-4.7,52.1-5.8,78.3-2.9c1.2,0.1,2.5,0.3,3.7,0.4l78.8,12.6"/>
	<path display="inline" opacity="0.2" fill="none" stroke="#FFFFFF" stroke-width="7.0055" stroke-miterlimit="10" d="M107.9,491.5
		l70.5,12.8c1.3,0.2,2.5,0.3,3.8,0.5c14,1.7,28.1,3,42.1,2.5c26.8-0.9,66.6-10.5,78.7-14.9c12.1-4.4,25.8-9.3,39.1-11.8
		c25.8-4.7,52.1-5.8,78.3-2.9c1.2,0.1,2.5,0.3,3.7,0.4l78.8,13.3"/>
	<path display="inline" opacity="0.2" fill="none" stroke="#FFFFFF" stroke-width="7.0055" stroke-miterlimit="10" d="M107.9,505.5
		l70.5,13.5c1.3,0.2,2.5,0.3,3.8,0.5c14,1.7,28.1,3,42.1,2.5c26.8-0.9,70.3-12.4,78.7-15.6c8.4-3.2,25.8-10,39.1-12.5
		c25.8-4.7,52.1-5.8,78.3-2.9c1.2,0.1,2.5,0.3,3.7,0.4l78.8,14"/>
	<path display="inline" opacity="0.2" fill="none" stroke="#FFFFFF" stroke-width="7.0055" stroke-miterlimit="10" d="M107.9,519.5
		l67.3,14.3c2.3,0.5,4.6,0.9,7,1.2l0,0c14,1.7,28.1,3,42.1,2.5c26.8-0.9,62.8-9.9,78.7-15.6s25.8-12.1,39.1-14.6
		c25.8-4.7,52.1-5.8,78.3-2.9c0,0,0,0,0,0c2.5,0.3,4.9,0.7,7.3,1.1l75.2,14"/>
	<path display="inline" opacity="0.2" fill="none" stroke="#FFFFFF" stroke-width="7.0055" stroke-miterlimit="10" d="M107.9,533.5
		l67.3,14.9c2.3,0.5,4.7,0.9,7.1,1.2h0c14,1.7,28.1,3,42.1,2.5c26.8-0.9,60.8-8.3,78.7-15.6c15.4-6.3,25.8-13.5,39.1-16
		c25.8-4.7,58.1-5.4,78.3-2.9c20.2,2.5,82.6,15.9,82.6,15.9"/>
	<path display="inline" opacity="0.2" fill="none" stroke="#FFFFFF" stroke-width="7.0055" stroke-miterlimit="10" d="M107.9,547.5
		l67.3,15.6c2.3,0.5,4.7,0.9,7.1,1.2h0c14,1.7,28.1,3,42.1,2.5c26.8-0.9,57.7-6.4,78.7-15.6c13.2-5.8,25.8-14.9,39.1-17.4
		c25.8-4.7,58.1-6.1,78.3-2.9c20.2,3.2,82.6,16.6,82.6,16.6"/>
	<path display="inline" opacity="0.2" fill="none" stroke="#FFFFFF" stroke-width="7.0055" stroke-miterlimit="10" d="M107.9,561.5
		l67.3,16.3c2.3,0.5,4.7,0.9,7.1,1.2h0c14,1.7,28.1,3,42.1,2.5c26.8-0.9,57.5-6,78.7-15.6c15-6.8,26-15.2,39.1-18.8
		c24.8-6.8,57.6-6.8,78.3-2.9c20.6,3.9,82.6,17.3,82.6,17.3"/>
	<path display="inline" opacity="0.2" fill="none" stroke="#FFFFFF" stroke-width="7.0055" stroke-miterlimit="10" d="M107.9,575.5
		l67.3,17c2.3,0.5,4.7,0.9,7.1,1.2h0c14,1.7,28.1,3,42.1,2.5c26.8-0.9,57.5-6,78.7-15.6c15-6.8,25.9-16.9,39.1-20.2
		c29.3-7.3,59.7-6.9,78.3-2.9s82.6,18,82.6,18"/>
	<path display="inline" opacity="0.2" fill="none" stroke="#FFFFFF" stroke-width="7.0055" stroke-miterlimit="10" d="M107.9,589.5
		l67.3,17.7c2.3,0.5,4.7,0.9,7.1,1.2h0c14,1.7,28.1,3,42.1,2.5c26.8-0.9,57.5-6,78.7-15.6c15-6.8,26-18,39.1-21.6
		c24.8-6.8,53.2-8.5,78.3-2.9c25.1,5.7,82.6,18.7,82.6,18.7"/>
	<path display="inline" opacity="0.2" fill="none" stroke="#FFFFFF" stroke-width="7.0055" stroke-miterlimit="10" d="M107.9,603.6
		l67.3,18.4c2.3,0.5,4.7,0.9,7.1,1.2h0c14,1.7,28.1,3,42.1,2.5c26.8-0.9,57.5-6,78.7-15.6c15-6.8,26.1-19.1,39.1-23
		c26.8-8,57.4-8.3,78.3-2.9c20.9,5.4,82.6,19.4,82.6,19.4"/>
	<path display="inline" opacity="0.2" fill="none" stroke="#FFFFFF" stroke-width="7.0055" stroke-miterlimit="10" d="M107.9,617.6
		l67.3,19.1c2.3,0.5,4.7,0.9,7.1,1.2h0c14,1.7,28.1,3,42.1,2.5c26.8-0.9,57.5-6,78.7-15.6c15-6.8,29.6-21.4,39.1-24.4
		c22.3-6.9,51.9-9.3,78.3-2.9c26.3,6.4,82.6,20.1,82.6,20.1"/>
</g>
<g id="Layer_4">
	<g opacity="0.2">
		<polyline fill="none" stroke="#FFFFFF" stroke-width="7.059" stroke-miterlimit="10" points="106.4,127.2 223.8,127.2 
			379.7,127.2 504.5,127.2 		"/>
		<polyline fill="none" stroke="#FFFFFF" stroke-width="7.059" stroke-miterlimit="10" points="106.4,141.3 223.8,142 379.7,140.6 
			504.5,141.3 		"/>
		<polyline fill="none" stroke="#FFFFFF" stroke-width="7.059" stroke-miterlimit="10" points="106.4,155.4 223.8,156.8 379.7,154 
			504.5,155.4 		"/>
		<polyline fill="none" stroke="#FFFFFF" stroke-width="7.059" stroke-miterlimit="10" points="106.4,169.5 223.8,171.6 
			379.7,167.4 504.5,169.5 		"/>
		<polyline fill="none" stroke="#FFFFFF" stroke-width="7.059" stroke-miterlimit="10" points="106.4,183.6 223.8,186.5 
			379.7,180.8 504.5,183.6 		"/>
		<polyline fill="none" stroke="#FFFFFF" stroke-width="7.059" stroke-miterlimit="10" points="106.4,197.8 223.8,201.3 
			379.7,194.2 504.5,197.8 		"/>
		<polyline fill="none" stroke="#FFFFFF" stroke-width="7.059" stroke-miterlimit="10" points="106.4,211.9 223.8,216.1 
			379.7,207.6 504.5,211.9 		"/>
		<path fill="none" stroke="#FFFFFF" stroke-width="7.059" stroke-miterlimit="10" d="M106.4,226l117.2,4.9c0.1,0,0.2,0,0.4,0
			l155.6-9.9c0.1,0,0.2,0,0.4,0l124.6,4.9"/>
		<path fill="none" stroke="#FFFFFF" stroke-width="7.059" stroke-miterlimit="10" d="M106.4,240.1l117,5.6c0.3,0,0.6,0,0.8,0
			l155.1-11.2c0.3,0,0.6,0,0.8,0l124.3,5.6"/>
		<path fill="none" stroke="#FFFFFF" stroke-width="7.059" stroke-miterlimit="10" d="M106.4,254.2l116.7,6.3c0.5,0,1,0,1.4,0
			l149.9-12.2c3.6-0.3,7.1-0.3,10.7-0.2l119.4,6.1"/>
		<path fill="none" stroke="#FFFFFF" stroke-width="7.059" stroke-miterlimit="10" d="M106.4,268.4l116.3,7c0.7,0,1.4,0,2.1,0
			l153.9-13.9c0.7-0.1,1.4-0.1,2.1,0l123.7,7"/>
		<path fill="none" stroke="#FFFFFF" stroke-width="7.059" stroke-miterlimit="10" d="M106.4,282.5l115.9,7.7c1,0.1,1.9,0,2.9,0
			l153.1-15.2c0.9-0.1,1.9-0.1,2.8-0.1l123.3,7.7"/>
		<path fill="none" stroke="#FFFFFF" stroke-width="7.059" stroke-miterlimit="10" d="M106.4,296.6l115.5,8.3
			c1.3,0.1,2.5,0.1,3.8-0.1l152.2-16.5c1.2-0.1,2.5-0.2,3.7-0.1l122.9,8.3"/>
		<path fill="none" stroke="#FFFFFF" stroke-width="7.059" stroke-miterlimit="10" d="M106.3,310.3l115.5,9c1.3,0.1,2.5,0.1,3.8-0.1
			L377.8,302c1.2-0.1,2.5-0.2,3.7-0.1l122.9,8.3"/>
		<path fill="none" stroke="#FFFFFF" stroke-width="7.059" stroke-miterlimit="10" d="M106.4,324.8l110,9.3
			c4.9,0.4,9.9,0.3,14.8-0.3l141.4-17.9c4.8-0.6,9.6-0.7,14.5-0.3l117.5,9.3"/>
		<path fill="none" stroke="#FFFFFF" stroke-width="7.059" stroke-miterlimit="10" d="M106.4,338.9l105.5,9.5
			c7.9,0.7,15.9,0.5,23.8-0.5l132.5-18c7.7-1,15.5-1.2,23.2-0.6l113.1,9.6"/>
		<path fill="none" stroke="#FFFFFF" stroke-width="7.059" stroke-miterlimit="10" d="M106.4,353.1l100.5,9.7
			c11.2,1.1,22.6,0.8,33.8-0.8l122.7-17.8c10.9-1.6,22-1.9,33-0.9l108.2,9.8"/>
		<path fill="none" stroke="#FFFFFF" stroke-width="7.059" stroke-miterlimit="10" d="M106.4,367.2l94.9,9.7
			c14.9,1.5,30,1.1,44.8-1.1L358,358.5c14.5-2.2,29.2-2.6,43.7-1.2l102.8,9.9"/>
		<path fill="none" stroke="#FFFFFF" stroke-width="7.059" stroke-miterlimit="10" d="M106.4,381.3l91.2,9.9
			c17.4,1.9,34.9,1.4,52.1-1.4l104.6-17.1c16.8-2.7,33.9-3.3,50.9-1.5l99.2,10.1"/>
		<path fill="none" stroke="#FFFFFF" stroke-width="7.059" stroke-miterlimit="10" d="M106.4,395.4l87.3,10
			c20,2.3,40.1,1.7,59.9-1.7l97-16.7c19.3-3.3,39-3.9,58.5-1.9l95.3,10.3"/>
		<path fill="none" stroke="#FFFFFF" stroke-width="7.059" stroke-miterlimit="10" d="M106.4,409.5l83.1,10c22.7,2.7,45.7,2,68.3-2
			l88.8-16.1c22-4,44.5-4.7,66.7-2.2l91.2,10.3"/>
		<path fill="none" stroke="#FFFFFF" stroke-width="7.059" stroke-miterlimit="10" d="M106.4,423.6l81.2,10.3c24,3,48.3,2.3,72-2.2
			l82.7-15.7c24.8-4.7,50.2-5.6,75.3-2.6l86.9,10.3"/>
		<path fill="none" stroke="#FFFFFF" stroke-width="7.059" stroke-miterlimit="10" d="M106.4,437.8l71,9.4c30.7,4.1,61.8,3,92.2-3
			l65.3-13c29.6-5.9,60-7,90-3.3l79.4,9.9"/>
		<path fill="none" stroke="#FFFFFF" stroke-width="7.059" stroke-miterlimit="10" d="M106.4,451.9l71,10.1c30.7,4.1,61.8,3,92.2-3
			l65.3-14.4c29.6-5.9,60-7,90-3.3l79.4,10.6"/>
		<path fill="none" stroke="#FFFFFF" stroke-width="7.059" stroke-miterlimit="10" d="M106.4,466l71,11.5c1.3,0.2,2.6,0.3,3.8,0.5
			c35.9,4.3,72.3,1.5,107.2-7.8l28.2-7.9c34-9.5,69.5-12.7,104.6-8.8c1.3,0.1,2.5,0.3,3.8,0.4l79.4,12"/>
		<path fill="none" stroke="#FFFFFF" stroke-width="7.059" stroke-miterlimit="10" d="M106.4,480.1l71,12.9c1.3,0.2,2.6,0.3,3.8,0.5
			c14.1,1.7,28.3,2.3,42.4,1.8c27-0.9,53.7-5.9,79.3-14.3h0c12.8-4.9,26-8.7,39.4-11.1c26-4.7,52.5-5.8,78.9-2.9
			c1.3,0.1,2.5,0.3,3.8,0.4l79.4,12.7"/>
		<path fill="none" stroke="#FFFFFF" stroke-width="7.059" stroke-miterlimit="10" d="M106.4,494.2l71,12.9c1.3,0.2,2.6,0.3,3.8,0.5
			c14.1,1.7,28.3,3,42.4,2.5c27-0.9,67.1-10.6,79.3-15.1c12.2-4.5,26-9.4,39.4-11.8c26-4.7,52.5-5.8,78.9-2.9
			c1.3,0.1,2.5,0.3,3.8,0.4l79.4,13.4"/>
		<path fill="none" stroke="#FFFFFF" stroke-width="7.059" stroke-miterlimit="10" d="M106.4,508.4l71,13.6c1.3,0.2,2.6,0.3,3.8,0.5
			c14.1,1.7,28.3,3,42.4,2.5c27-0.9,70.8-12.5,79.3-15.8c8.5-3.2,26-10.1,39.4-12.5c26-4.7,52.5-5.8,78.9-2.9
			c1.3,0.1,2.5,0.3,3.8,0.4l79.4,14.1"/>
		<path fill="none" stroke="#FFFFFF" stroke-width="7.059" stroke-miterlimit="10" d="M106.4,522.5l67.8,14.4c2.3,0.5,4.7,0.9,7,1.2
			l0,0c14.1,1.7,28.3,3,42.4,2.5c27-0.9,63.3-10,79.3-15.8c16-5.8,26-12.2,39.4-14.7c26-4.7,52.5-5.8,78.9-2.9c0,0,0,0,0,0
			c2.5,0.3,4.9,0.7,7.4,1.1l75.8,14.1"/>
		<path fill="none" stroke="#FFFFFF" stroke-width="7.059" stroke-miterlimit="10" d="M106.4,536.6l67.8,15.1
			c2.4,0.5,4.7,0.9,7.1,1.2h0c14.1,1.7,28.3,3,42.4,2.5c27-0.9,61.3-8.4,79.3-15.8c15.6-6.4,26.1-12.9,39.4-16.1
			c31.9-7.6,58.5-5.4,78.9-2.9c20.3,2.5,83.2,16,83.2,16"/>
		<path fill="none" stroke="#FFFFFF" stroke-width="7.059" stroke-miterlimit="10" d="M106.4,550.7l67.8,15.8
			c2.4,0.5,4.7,0.9,7.1,1.2h0c14.1,1.7,28.3,3,42.4,2.5c27-0.9,58.1-6.4,79.3-15.8c13.3-5.8,28.8-14.6,39.4-17.5
			c25.5-7,58.5-6.1,78.9-2.9c20.3,3.2,83.2,16.7,83.2,16.7"/>
		<path fill="none" stroke="#FFFFFF" stroke-width="7.059" stroke-miterlimit="10" d="M106.4,564.8l67.8,16.5
			c2.4,0.5,4.7,0.9,7.1,1.2h0c14.1,1.7,28.3,3,42.4,2.5c27-0.9,57.9-6.1,79.3-15.8c14.8-6.7,26-15.2,39.4-18.9
			c25-6.9,58.1-6.8,78.9-2.9c20.8,3.9,83.2,17.4,83.2,17.4"/>
		<path fill="none" stroke="#FFFFFF" stroke-width="7.059" stroke-miterlimit="10" d="M106.4,578.9l67.8,17.2
			c2.4,0.5,4.7,0.9,7.1,1.2l0,0c14.1,1.7,28.3,3,42.4,2.5c27-0.9,57.9-5.4,79.3-15.1c15.1-6.8,28.3-17.5,41.5-21
			c33.7-9,58-7,76.7-2.9c18.7,4.1,83.2,18.1,83.2,18.1"/>
		<path fill="none" stroke="#FFFFFF" stroke-width="7.059" stroke-miterlimit="10" d="M106.4,593.1c0,0,36.4,12.7,72.7,18.9
			c15.9,2.7,31.8,2.5,44.6,2.7c29.2,0.4,57.9-4.7,79.3-14.3c15.1-6.8,29.2-17.9,43.7-22.4c24.1-7.6,49.4-9.3,74.6-3.6
			c25.3,5.7,83.2,18.8,83.2,18.8"/>
		<path fill="none" stroke="#FFFFFF" stroke-width="7.059" stroke-miterlimit="10" d="M106.4,607.2c0,0,62.5,22.8,117.3,22.3
			c27-0.2,57.9-4.7,79.3-14.3c14.1-6.4,29.1-18,47.2-23.8c27.6-8.9,50-9.1,71.1-3.6c21.1,5.5,83.2,19.5,83.2,19.5"/>
		<path fill="none" stroke="#FFFFFF" stroke-width="7.059" stroke-miterlimit="10" d="M106.4,621.3c0,0,56.5,23.7,117.3,23.7
			c27,0,59.4-5.4,80.7-15.1c15.1-6.8,25.9-15.7,44.4-23.1c27.6-11.1,46-10.8,72.5-4.3c26.5,6.4,83.2,18.8,83.2,18.8"/>
	</g>
</g>
</svg>
