<?xml version="1.0" encoding="UTF-8"?>
<svg width="157px" height="90px" viewBox="0 0 157 90" version="1.1" xmlns="http://www.w3.org/2000/svg" xmlns:xlink="http://www.w3.org/1999/xlink">
    <!-- Generator: Sketch 46.2 (44496) - http://www.bohemiancoding.com/sketch -->
    <title>Group@2x</title>
    <desc>Created with Sketch.</desc>
    <defs></defs>
    <g id="Page-1" stroke="none" stroke-width="1" fill="none" fill-rule="evenodd">
        <g id="Group" fill-rule="nonzero">
            <path d="M14.3136865,51.7094923 L66.7163355,10.0854305 L66.3004415,9.60022075 L13.6898455,51.3975717 C13.8977925,51.4668874 14.1057395,51.5708609 14.3136865,51.7094923 Z" id="Shape" fill="#292B2C"></path>
            <rect id="Rectangle-path" fill="#000000" x="5.64922737" y="35.2470199" width="15.0068433" height="19.6163355"></rect>
            <polygon id="Shape" fill="#292B2C" points="68.9690949 33.1328918 69.2463576 32.5437086 28.6966887 12.095585 28.3847682 12.6847682"></polygon>
            <polygon id="Shape" fill="#292B2C" points="82.2430464 3.70838852 82.0697572 3.08454746 20.4827815 18.5419426 20.6560706 19.2004415"></polygon>
            <path d="M106.503532,42.6984547 C106.468874,42.5598234 106.468874,42.4558499 106.468874,42.3172185 L70.0781457,16.7743929 C69.9048565,16.9130243 69.6969095,17.0516556 69.5236203,17.190287 L106.330243,43.0450331 C106.364901,42.9064018 106.434216,42.8024283 106.503532,42.6984547 Z" id="Shape" fill="#292B2C"></path>
            <path d="M13.2392936,35.3509934 C7.59006623,35.2816777 2.98057395,39.7871965 2.91125828,45.4364238 C2.8419426,51.0856512 7.34746137,55.6951435 12.9966887,55.7644592 C18.6459161,55.8337748 23.2554084,51.3282561 23.3247241,45.6790287 C23.3593819,40.0298013 18.8538631,35.4203091 13.2392936,35.3509934 Z" id="Shape" fill="#FFFFFF"></path>
            <path d="M26.097351,22.5969095 C20.8986755,22.5275938 16.7050773,18.2646799 16.7743929,13.0313466 C16.8437086,7.83267108 21.1066225,3.63907285 26.3399558,3.70838852 C31.5386313,3.77770419 35.7322296,8.0406181 35.6629139,13.2739514 C35.5589404,18.4726269 31.2960265,22.6315673 26.097351,22.5969095 Z" id="Shape" fill="#292B2C"></path>
            <path d="M70.216777,37.7423841 C67.9640177,37.7077263 66.1271523,35.8708609 66.1618102,33.5834437 C66.196468,31.3306843 68.0333333,29.493819 70.3207506,29.5284768 C72.5735099,29.5631347 74.4103753,31.4 74.3757174,33.6874172 C74.3410596,35.9401766 72.4695364,37.7770419 70.216777,37.7423841 Z" id="Shape" fill="#292B2C"></path>
            <path d="M63.4238411,18.4033113 L82.2430464,3.91633554 C82.0350993,3.81236203 81.8271523,3.70838852 81.5845475,3.60441501 L62.9732892,17.9181015 C63.1465784,18.0913907 63.2852097,18.2646799 63.4238411,18.4033113 Z" id="Shape" fill="#292B2C"></path>
            <path d="M63.1119205,24.2951435 C57.3933775,24.2258278 52.818543,19.5470199 52.8878587,13.8284768 C52.9571744,8.10993377 57.6359823,3.53509934 63.3545254,3.60441501 C69.0730684,3.67373068 73.6479029,8.35253863 73.5785872,14.0710817 C73.5092715,19.7896247 68.8304636,24.3644592 63.1119205,24.2951435 Z" id="Shape" fill="#292B2C"></path>
            <circle id="Oval" fill="#2A2B2C" cx="82.2430464" cy="3.08454746" r="3.04988962"></circle>
            <path d="M13.8977925,60.1660044 C3.56975717,60.1660044 0.31192053,53.9275938 0.31192053,45.609713 C0.31192053,37.5344371 3.84701987,31.0880795 13.9324503,31.0880795 C23.7752759,31.0880795 27.3450331,37.0145695 27.3450331,45.609713 C27.3796909,53.7889625 23.9485651,60.1660044 13.8977925,60.1660044 Z M13.8977925,36.0788079 C9.53090508,36.0788079 7.03554084,38.400883 7.03554084,45.609713 C7.03554084,53.3384106 9.49624724,55.1752759 13.8977925,55.1752759 C18.5072848,55.1752759 20.6560706,52.402649 20.6560706,45.609713 C20.6560706,38.2622517 18.1260486,36.0788079 13.8977925,36.0788079 Z" id="Shape" fill="#292B2C"></path>
            <path d="M44.6739514,59.9233996 L44.6739514,47.2386313 C44.6739514,45.8869757 44.6739514,44.1887417 42.2825607,44.1887417 C40.515011,44.1887417 39.3713024,46.1988962 38.400883,48.0704194 L38.400883,59.8887417 L32.5437086,59.8887417 L32.5437086,44.5006623 C32.5437086,42.8717439 32.1971302,41.6240618 31.9891832,40.3417219 L37.4304636,40.3417219 L38.2969095,42.7331126 C39.1633554,41.9359823 40.8269316,39.683223 43.3916115,39.683223 C49.3874172,39.683223 50.5657837,43.0450331 50.5657837,47.5505519 L50.5657837,59.8540839 L44.6739514,59.8540839 L44.6739514,59.9233996 Z" id="Shape" fill="#292B2C"></path>
            <polygon id="Shape" fill="#292B2C" points="56.007064 59.9233996 56.007064 31.8505519 61.8642384 31.8505519 61.8642384 59.9233996"></polygon>
            <polygon id="Shape" fill="#292B2C" points="67.3748344 59.9233996 67.3748344 40.4110375 73.197351 40.4110375 73.197351 59.9233996"></polygon>
            <path d="M90.803532,59.9233996 L90.803532,47.2386313 C90.803532,45.8869757 90.803532,44.1887417 88.4121413,44.1887417 C86.6445916,44.1887417 85.500883,46.1988962 84.5304636,48.0704194 L84.5304636,59.8887417 L78.6732892,59.8887417 L78.6732892,44.5006623 C78.6732892,42.8717439 78.3267108,41.6240618 78.1187638,40.3417219 L83.5600442,40.3417219 L84.4264901,42.7331126 C85.292936,41.9359823 86.9565121,39.683223 89.5211921,39.683223 C95.5169978,39.683223 96.6953642,43.0450331 96.6953642,47.5505519 L96.6953642,59.8540839 L90.803532,59.8540839 L90.803532,59.9233996 Z" id="Shape" fill="#292B2C"></path>
            <path d="M107.266004,52.0560706 C107.785872,54.6554084 109.484106,55.59117 111.49426,55.59117 C113.192494,55.59117 115.479912,54.9673289 117.524724,53.9275938 L119.465563,58.3637969 C117.074172,59.4381898 113.989625,59.8887417 111.18234,59.8887417 C104.632009,59.8887417 101.200883,55.1406181 101.200883,49.7339956 C101.200883,45.193819 103.280353,39.1980132 110.905077,39.1980132 C118.321854,39.1980132 120.713245,43.1143488 120.713245,52.0560706 L107.266004,52.0560706 Z M110.905077,43.6688742 C110.038631,43.6688742 107.439294,43.8768212 107.300662,47.7238411 L114.821413,47.7238411 C114.509492,44.4660044 112.811258,43.6688742 110.905077,43.6688742 Z" id="Shape" fill="#292B2C"></path>
            <path d="M141.854525,30.2562914 C131.942384,30.3949227 126.88234,38.6781457 126.88234,45.3671082 C126.88234,52.8878587 132.982119,59.9233996 142.062472,59.8540839 L142.062472,56.0763797 C135.234879,56.215011 130.798675,50.9816777 130.798675,45.401766 C130.798675,40.3417219 134.472406,34.4498896 141.854525,34.0686534 C150.103091,33.6527594 153.811479,40.4110375 153.049007,45.401766 C152.147903,51.1203091 149.30596,49.2834437 149.167329,48.5556291 L149.063355,48.3476821 C149.028698,48.2090508 149.028698,48.0357616 149.028698,47.8971302 L149.132671,41.9013245 C149.132671,38.6434879 146.671965,37.1532009 143.240839,37.1532009 C140.884106,37.1532009 138.007506,37.4651214 135.789404,38.2275938 L137.314349,41.8666667 C138.73532,41.1735099 140.884106,40.5496689 142.928918,40.5496689 C144.627152,40.5496689 144.627152,41.7626932 144.627152,42.4558499 L144.627152,42.9410596 L143.483444,42.9410596 C137.14106,42.9410596 135.234879,45.5057395 135.234879,48.5209713 C135.234879,51.2935982 137.037086,52.8878587 141.196026,52.8878587 C142.686313,52.8878587 144.072627,51.7094923 144.904415,51.0509934 C144.904415,51.0163355 145.216336,51.3975717 145.493598,51.7788079 C145.493598,51.7788079 145.493598,51.7788079 145.493598,51.8134658 C145.63223,51.986755 145.770861,52.194702 145.94415,52.3333333 C145.978808,52.3679912 146.013466,52.402649 146.013466,52.402649 L146.013466,52.402649 C149.236645,55.6951435 156.51479,55.2099338 156.930684,45.2977925 C157.277263,38.5395143 153.464901,30.11766 141.854525,30.2562914 Z M144.66181,47.8971302 C144.107285,48.5209713 143.06755,49.5260486 142.131788,49.5260486 C141.161369,49.5260486 139.844371,49.4567329 139.844371,48.38234 C139.844371,46.9267108 141.022737,46.1642384 143.933996,46.1642384 L144.66181,46.1642384 L144.66181,47.8971302 Z" id="Shape" fill="#292B2C"></path>
            <path d="M17.0516556,34.6231788 C17.190287,34.6231788 17.3289183,34.6578366 17.4328918,34.6924945 L22.9434879,20.4827815 L22.3196468,20.2401766 L16.7397351,34.6231788 L17.0516556,34.6231788 Z" id="Shape" fill="#292B2C"></path>
            <polygon id="Shape" fill="#292B2C" points="94.2346578 65.6419426 100.681015 65.6419426 105.429139 80.8913907 110.489183 65.6419426 116.277042 65.6419426 108.61766 86.6792494 101.651435 86.6792494"></polygon>
            <path d="M129.135099,72.2615894 C128.857837,70.1474614 127.402208,69.3503311 125.738631,69.3503311 C122.203532,69.3503311 121.129139,72.5735099 121.129139,76.4205298 C121.129139,77.7028698 121.163797,83.0055188 125.669316,83.0055188 C128.753863,83.0055188 129.065784,80.7527594 129.204415,79.9556291 L135.269536,79.9556291 C135.234879,86.5406181 128.545916,87.0951435 125.807947,87.0951435 C123.763135,87.0951435 120.15872,86.7485651 117.836645,84.2878587 C115.549227,81.8271523 115.133333,78.5 115.133333,76.3165563 C115.133333,73.4399558 115.791832,70.5633554 117.767329,68.310596 C119.916115,65.8498896 122.688742,65.2260486 125.738631,65.2260486 C129.135099,65.2260486 131.734437,66.0231788 133.398013,67.7907285 C135.096247,69.592936 135.130905,71.499117 135.130905,72.2615894 L129.135099,72.2615894 Z" id="Shape" fill="#292B2C"></path>
            <path d="M142.651656,65.6419426 L142.651656,78.1187638 C142.651656,79.2624724 142.755629,80.406181 143.310155,81.3072848 C144.107285,82.4856512 145.45894,83.0401766 146.879912,83.0401766 C150.5883,83.0401766 151.07351,80.0249448 151.07351,77.9454746 L151.07351,65.6766004 L156.757395,65.6766004 L156.757395,77.8415011 C156.757395,80.1635762 156.445475,82.6935982 155.128477,84.2532009 C153.083664,86.7485651 149.340618,87.2684327 146.671965,87.2684327 C136.759823,87.2684327 136.725166,81.0993377 136.725166,77.6682119 L136.759823,65.7112583 L142.651656,65.7112583 L142.651656,65.6419426 Z" id="Shape" fill="#292B2C"></path>
            <path d="M93.7494481,76.1779249 C93.7494481,83.4214128 87.8922737,89.2785872 80.6487859,89.2785872 C73.405298,89.2785872 67.5481236,83.4214128 67.5481236,76.1779249 C67.5481236,68.9344371 73.405298,63.0772627 80.6487859,63.0772627 C87.8922737,63.0772627 93.7494481,68.9344371 93.7494481,76.1779249" id="Shape" fill="#FFFFFF"></path>
            <path d="M80.6487859,85.6741722 C75.4154525,85.6741722 71.1525386,81.4112583 71.1525386,76.1779249 C71.1525386,70.9445916 75.4154525,66.6816777 80.6487859,66.6816777 C85.8821192,66.6816777 90.1450331,70.9445916 90.1450331,76.1779249 C90.1450331,81.4459161 85.8821192,85.6741722 80.6487859,85.6741722 M80.6487859,63.5624724 C73.6825607,63.5624724 68.0333333,69.2116998 68.0333333,76.1779249 C68.0333333,83.1441501 73.6825607,88.7933775 80.6487859,88.7933775 C87.615011,88.7933775 93.2642384,83.1441501 93.2642384,76.1779249 C93.2642384,69.2116998 87.615011,63.5624724 80.6487859,63.5624724" id="Shape" fill="#000000"></path>
            <path d="M74.0291391,85.6048565 C73.9598234,85.6395143 73.9251656,85.6741722 73.8905077,85.70883 C73.8558499,85.7434879 73.8558499,85.7781457 73.8558499,85.8128035 C73.8558499,85.8821192 73.9251656,85.916777 73.9598234,85.9860927 C73.9944812,86.0207506 73.9944812,86.0554084 73.9598234,86.0554084 C73.9251656,86.0900662 73.9251656,86.0900662 73.8905077,86.0554084 C73.8211921,86.0207506 73.7518764,85.9514349 73.6825607,85.8821192 C73.613245,85.8474614 73.5092715,85.8128035 73.4399558,85.7781457 C73.405298,85.7781457 73.405298,85.7434879 73.405298,85.70883 C73.4399558,85.6741722 73.4746137,85.70883 73.5439294,85.6741722 C73.613245,85.6395143 73.6825607,85.6048565 73.8211921,85.5355408 L74.9649007,84.7730684 C75.103532,84.7037528 75.103532,84.7037528 75.1381898,84.7037528 C75.1728477,84.7384106 75.1728477,84.7730684 75.1728477,84.8423841 L74.9649007,86.3673289 C74.9302428,86.5059603 74.9995585,86.5406181 75.0342163,86.6099338 C75.0688742,86.6445916 75.0688742,86.6792494 75.0688742,86.7139073 C75.0342163,86.7485651 75.0342163,86.7139073 74.9995585,86.7139073 C74.895585,86.6445916 74.8262693,86.5752759 74.7222958,86.5059603 C74.6183223,86.4366446 74.5143488,86.4019868 74.4103753,86.3326711 C74.4103753,86.3326711 74.3410596,86.2980132 74.3757174,86.2633554 C74.4103753,86.2286976 74.4450331,86.2286976 74.4796909,86.2633554 C74.5490066,86.2980132 74.5836645,86.2633554 74.6183223,86.1940397 C74.6529801,86.1593819 74.6529801,86.0900662 74.6529801,86.0554084 L74.7916115,85.1889625 C74.7916115,85.084989 74.7916115,85.084989 74.7916115,85.0503311 C74.7916115,85.0503311 74.7569536,85.0503311 74.7222958,85.084989 L74.0291391,85.6048565 Z" id="Shape" fill="#FFFFFF"></path>
            <path d="M73.7518764,84.0799117 C73.8558499,83.9412804 73.7865342,83.8373068 73.7518764,83.802649 C73.7172185,83.7679912 73.7172185,83.7679912 73.7518764,83.7333333 C73.7865342,83.6986755 73.8211921,83.7333333 73.8905077,83.802649 C73.9598234,83.8373068 74.0291391,83.9412804 74.0984547,84.010596 C74.1677704,84.0799117 74.2717439,84.1145695 74.3410596,84.1838852 C74.3757174,84.218543 74.4103753,84.2532009 74.3757174,84.2878587 C74.3410596,84.3225166 74.3064018,84.2878587 74.2717439,84.2878587 C74.1677704,84.2532009 74.0984547,84.3225166 74.0291391,84.3918322 L73.3013245,85.2582781 C73.197351,85.3622517 73.2320088,85.4662252 73.3013245,85.5355408 C73.3359823,85.5701987 73.3359823,85.5701987 73.3013245,85.6048565 C73.2666667,85.6395143 73.2320088,85.6048565 73.1626932,85.5355408 C73.0933775,85.4662252 73.0240618,85.3969095 72.9547461,85.3275938 C72.8854305,85.2582781 72.781457,85.2236203 72.7121413,85.1543046 C72.6774834,85.1196468 72.6428256,85.1196468 72.6774834,85.084989 C72.7121413,85.0503311 72.7467991,85.084989 72.781457,85.084989 C72.8854305,85.1196468 72.9547461,85.0503311 72.989404,84.9810155 L73.7518764,84.0799117 Z" id="Shape" fill="#FFFFFF"></path>
            <path d="M72.4348786,83.8373068 C72.4695364,83.802649 72.5041943,83.7679912 72.4002208,83.6640177 C72.2615894,83.4907285 72.1229581,83.4907285 71.915011,83.6640177 C71.7763797,83.7679912 71.707064,83.9759382 71.8803532,84.1492274 C71.9843267,84.2532009 72.0189845,84.2532009 72.0883002,84.1838852 L72.4348786,83.8373068 Z M72.4002208,84.3918322 C72.2962472,84.4958057 72.2962472,84.5997792 72.3655629,84.6690949 C72.4002208,84.7037528 72.4002208,84.7037528 72.3655629,84.7384106 C72.3309051,84.7384106 72.3309051,84.7384106 72.2962472,84.7037528 C72.2615894,84.6690949 72.2269316,84.5997792 72.0883002,84.4611479 C71.9843267,84.3571744 71.8456954,84.218543 71.7763797,84.1492274 C71.5337748,83.9066225 71.3604857,83.594702 71.6724062,83.3174393 C71.8110375,83.2134658 71.915011,83.2134658 72.0536424,83.2481236 C72.1229581,83.2481236 72.1576159,83.3174393 72.1922737,83.2827815 C72.2269316,83.2481236 72.4002208,82.6935982 72.4348786,82.5203091 C72.4348786,82.4856512 72.4348786,82.4509934 72.4348786,82.4509934 C72.4002208,82.4163355 72.4002208,82.4163355 72.3655629,82.3816777 C72.3309051,82.3470199 72.3655629,82.3470199 72.3655629,82.312362 C72.4348786,82.2430464 72.6428256,82.4509934 72.7121413,82.5203091 C72.7467991,82.5896247 72.781457,82.6589404 72.7467991,82.7975717 L72.5388521,83.386755 C72.5041943,83.4907285 72.5041943,83.5600442 72.5388521,83.6293598 C72.5735099,83.6986755 72.6081678,83.6986755 72.6428256,83.6640177 L72.9547461,83.386755 C73.0933775,83.2481236 73.0933775,83.1441501 73.0240618,83.0748344 C72.989404,83.0401766 72.989404,83.0401766 73.0240618,83.0055188 C73.0587196,82.9708609 73.0587196,83.0055188 73.1626932,83.0748344 C73.2320088,83.1441501 73.2666667,83.2481236 73.3359823,83.3174393 C73.405298,83.386755 73.4746137,83.4560706 73.5439294,83.5253863 C73.5785872,83.5600442 73.5785872,83.594702 73.5785872,83.594702 C73.5439294,83.6293598 73.5092715,83.594702 73.4746137,83.594702 C73.3706402,83.5253863 73.3013245,83.594702 73.2320088,83.6293598 L72.4002208,84.3918322 Z" id="Shape" fill="#FFFFFF"></path>
            <path d="M71.29117,81.4459161 C71.1525386,81.5152318 71.1871965,81.6192053 71.2218543,81.7231788 C71.2218543,81.7578366 71.2218543,81.7924945 71.1871965,81.7924945 C71.1525386,81.8271523 71.1178808,81.7924945 71.083223,81.688521 C71.0139073,81.5845475 70.9792494,81.5152318 70.9445916,81.4112583 C70.9099338,81.3072848 70.8406181,81.2379691 70.7713024,81.1686534 C70.7366446,81.1339956 70.7366446,81.0993377 70.7713024,81.0993377 C70.8059603,81.0646799 70.8406181,81.0993377 70.8752759,81.1339956 C70.9445916,81.2033113 71.0485651,81.1686534 71.1178808,81.1339956 L71.4298013,80.9260486 C71.4644592,80.8913907 71.8456954,81.2033113 72.0189845,81.480574 C72.2962472,81.9311258 72.1922737,82.4163355 71.7763797,82.6935982 C71.3258278,82.9708609 70.7366446,82.8668874 70.4940397,82.4163355 C70.3207506,82.1390728 70.3207506,81.896468 70.3207506,81.8618102 C70.2860927,81.7924945 70.216777,81.8618102 70.1821192,81.7924945 C70.1821192,81.7578366 70.1821192,81.7578366 70.1821192,81.7578366 L70.4593819,81.5498896 C70.4940397,81.5152318 70.5286976,81.480574 70.5633554,81.480574 C70.5980132,81.4459161 70.6326711,81.4459161 70.6326711,81.480574 C70.6326711,81.5152318 70.5980132,81.5498896 70.5980132,81.5845475 C70.3900662,81.9657837 70.4593819,82.1390728 70.5286976,82.312362 C70.7366446,82.6589404 71.083223,82.6242826 71.4298013,82.4163355 C71.7417219,82.2083885 72.0883002,81.896468 71.8803532,81.5152318 C71.7763797,81.3072848 71.6377483,81.2726269 71.4298013,81.4112583 L71.29117,81.4459161 Z" id="Shape" fill="#FFFFFF"></path>
            <path d="M70.9445916,80.1635762 C71.083223,80.0942605 71.083223,79.9556291 71.0485651,79.8863135 C71.0485651,79.8516556 71.0485651,79.8169978 71.083223,79.8169978 C71.1178808,79.8169978 71.1525386,79.8863135 71.1871965,79.9209713 C71.2218543,79.990287 71.2565121,80.0942605 71.29117,80.198234 C71.3258278,80.3022075 71.3951435,80.3715232 71.4298013,80.4754967 C71.4644592,80.5101545 71.4644592,80.5448124 71.4298013,80.5794702 C71.3951435,80.614128 71.3604857,80.5794702 71.3604857,80.5448124 C71.29117,80.4754967 71.1871965,80.4754967 71.1178808,80.5101545 L70.0781457,80.9607064 C69.9395143,81.0300221 69.9395143,81.1339956 69.9741722,81.2033113 C69.9741722,81.2379691 69.9741722,81.2726269 69.9395143,81.2726269 C69.9048565,81.3072848 69.8701987,81.2379691 69.8355408,81.1686534 C69.800883,81.0646799 69.7662252,80.9607064 69.7315673,80.8913907 C69.6969095,80.7874172 69.6275938,80.7181015 69.592936,80.614128 C69.592936,80.5794702 69.5582781,80.5448124 69.592936,80.5448124 C69.6275938,80.5448124 69.6622517,80.5794702 69.6969095,80.614128 C69.7662252,80.6834437 69.8701987,80.6487859 69.9395143,80.614128 L70.9445916,80.1635762 Z" id="Shape" fill="#FFFFFF"></path>
            <path d="M69.6969095,79.4704194 C69.6622517,79.5397351 69.6275938,79.6090508 69.6275938,79.6090508 C69.6275938,79.6090508 69.6275938,79.6437086 69.6969095,79.6090508 L70.5633554,79.4011038 C70.6673289,79.3664459 70.7713024,79.2971302 70.7713024,79.1931567 C70.7713024,79.1238411 70.7366446,79.0545254 70.8059603,79.0198675 C70.8406181,79.0198675 70.8752759,79.0545254 70.8752759,79.1238411 C70.9099338,79.2278146 70.9099338,79.2971302 70.9099338,79.4011038 C70.9445916,79.5050773 70.9792494,79.5743929 70.9792494,79.6437086 C70.9792494,79.6783664 70.9792494,79.7130243 70.9445916,79.7130243 C70.9099338,79.7130243 70.8752759,79.6783664 70.8752759,79.6783664 C70.7713024,79.5743929 70.7019868,79.5397351 70.5633554,79.5743929 L69.6275938,79.8169978 C69.5236203,79.8516556 69.4196468,79.9209713 69.384989,80.0249448 C69.3503311,80.1289183 69.384989,80.1635762 69.3156733,80.1635762 C69.2810155,80.1635762 69.2810155,80.1635762 69.2810155,80.1289183 C69.2463576,80.0596026 69.2463576,79.990287 69.2463576,79.9209713 C69.2116998,79.8516556 69.2116998,79.78234 69.1770419,79.7130243 C69.1770419,79.6437086 69.1770419,79.6437086 69.1770419,79.6090508 L69.9395143,78.3960265 C69.9741722,78.3613687 69.9741722,78.3267108 69.9741722,78.292053 C69.9741722,78.2573951 69.9395143,78.292053 69.9048565,78.292053 L69.3503311,78.4306843 C69.1770419,78.4653422 69.0384106,78.5346578 69.0384106,78.6732892 C69.0384106,78.7426049 69.0384106,78.8119205 69.0037528,78.8119205 C68.9690949,78.8119205 68.9690949,78.7772627 68.9344371,78.7426049 C68.8997792,78.6732892 68.8997792,78.5693157 68.8997792,78.4653422 C68.8651214,78.3960265 68.8304636,78.292053 68.8304636,78.2227373 C68.8304636,78.1880795 68.8304636,78.1880795 68.8651214,78.1534216 C68.8997792,78.1534216 68.9344371,78.1534216 68.9690949,78.1880795 C69.0730684,78.292053 69.1423841,78.3267108 69.2810155,78.292053 L70.4593819,77.9801325 C70.5633554,77.9454746 70.5980132,77.9454746 70.5980132,77.9801325 C70.5980132,78.0147903 70.5633554,78.084106 70.5286976,78.1534216 L69.6969095,79.4704194 Z" id="Shape" fill="#FFFFFF"></path>
            <path d="M70.1821192,77.009713 C70.3207506,77.009713 70.3554084,76.8364238 70.3554084,76.801766 C70.3554084,76.7671082 70.3554084,76.7324503 70.4247241,76.7324503 C70.4593819,76.7324503 70.4593819,76.801766 70.4940397,76.8710817 C70.4940397,76.9403974 70.4940397,77.0443709 70.4940397,77.1483444 C70.4940397,77.2523179 70.5286976,77.3562914 70.5286976,77.4602649 C70.5286976,77.4949227 70.5286976,77.5642384 70.4940397,77.5642384 C70.4593819,77.5642384 70.4247241,77.5295806 70.4247241,77.4949227 C70.3900662,77.3909492 70.2860927,77.3909492 70.216777,77.3909492 L69.0730684,77.4949227 C68.8997792,77.4949227 68.8651214,77.5988962 68.8997792,77.7028698 C68.8997792,77.7375276 68.8997792,77.7721854 68.8304636,77.7721854 C68.7958057,77.7721854 68.7958057,77.7028698 68.7611479,77.6335541 C68.7611479,77.5295806 68.7611479,77.4256071 68.7611479,77.3216336 C68.7611479,77.21766 68.7264901,77.1136865 68.7264901,77.009713 C68.7264901,76.9750552 68.7264901,76.9403974 68.7611479,76.9403974 C68.7958057,76.9403974 68.8304636,77.009713 68.8304636,77.0443709 C68.8651214,77.1483444 68.9690949,77.1136865 69.0384106,77.1136865 L70.1821192,77.009713 Z" id="Shape" fill="#FFFFFF"></path>
            <path d="M69.6275938,76.0392936 C69.6622517,76.0739514 69.6969095,76.0739514 69.6969095,76.0739514 C69.7315673,76.0739514 69.7315673,76.0392936 69.7315673,75.9699779 L69.7315673,75.6927152 C69.7315673,75.6233996 69.7315673,75.5887417 69.7315673,75.5887417 C69.7315673,75.5887417 69.6622517,75.5887417 69.6275938,75.6233996 L69.2810155,75.7966887 C69.2463576,75.7966887 69.2463576,75.8313466 69.2116998,75.8313466 C69.2116998,75.8313466 69.2463576,75.8660044 69.2810155,75.8660044 L69.6275938,76.0392936 Z M68.7958057,75.7273731 C68.7264901,75.6927152 68.7264901,75.6927152 68.7264901,75.6580574 C68.7264901,75.6580574 68.7611479,75.6233996 68.7958057,75.6233996 L70.1821192,75.0342163 C70.2860927,74.9995585 70.3900662,74.9649007 70.4247241,74.8609272 C70.4593819,74.7916115 70.4593819,74.7569536 70.4940397,74.7569536 C70.5286976,74.7569536 70.5286976,74.7916115 70.5286976,74.8262693 C70.5286976,74.9649007 70.4940397,75.0688742 70.4940397,75.1728477 C70.4940397,75.2768212 70.4940397,75.4154525 70.4940397,75.519426 C70.4940397,75.5540839 70.4593819,75.5540839 70.4593819,75.5540839 C70.4247241,75.5540839 70.4247241,75.519426 70.4247241,75.4847682 C70.4247241,75.4154525 70.3554084,75.3807947 70.2860927,75.3807947 C70.216777,75.3807947 70.00883,75.4501104 69.9741722,75.4847682 C69.9395143,75.519426 69.9395143,75.5540839 69.9395143,75.6927152 L69.9048565,76.0739514 C69.9048565,76.2125828 70.1474614,76.2818985 70.2514349,76.2818985 C70.2860927,76.2818985 70.3554084,76.2125828 70.3554084,76.1779249 C70.3900662,76.1086093 70.3900662,76.0046358 70.4593819,76.0046358 C70.4940397,76.0046358 70.4940397,76.0392936 70.4940397,76.0739514 C70.4940397,76.1779249 70.4593819,76.2472406 70.4593819,76.3165563 C70.4593819,76.4205298 70.4593819,76.4898455 70.4593819,76.5591611 C70.4593819,76.593819 70.4593819,76.6284768 70.4247241,76.6284768 C70.3900662,76.6284768 70.3554084,76.5591611 70.3554084,76.5245033 C70.3207506,76.4898455 70.2860927,76.4551876 70.2514349,76.4205298 L68.7958057,75.7273731 Z" id="Shape" fill="#FFFFFF"></path>
            <path d="M69.8701987,71.9496689 C69.9048565,71.9496689 69.9741722,71.9496689 70.00883,71.9843267 C70.0434879,71.9843267 70.0781457,72.0189845 70.0434879,72.0536424 C70.0434879,72.0883002 69.9741722,72.0883002 69.9395143,72.0883002 C69.6275938,72.1576159 69.4196468,72.3309051 69.3503311,72.5388521 C69.2463576,72.8507726 69.3503311,73.1280353 69.8701987,73.3013245 C70.2514349,73.405298 70.6673289,73.3013245 70.7713024,72.9547461 C70.8406181,72.7467991 70.8059603,72.5388521 70.7019868,72.3655629 C70.6673289,72.3309051 70.6326711,72.2615894 70.6673289,72.2269316 C70.6673289,72.2269316 70.7019868,72.1922737 70.7019868,72.2269316 C70.7713024,72.2615894 71.083223,72.6428256 70.9445916,73.1280353 C70.8059603,73.5439294 70.3900662,73.8558499 69.8701987,73.7172185 C69.2116998,73.5092715 69.1077263,72.989404 69.2116998,72.5735099 C69.2810155,72.2962472 69.4889625,72.1576159 69.5236203,72.0883002 C69.5582781,72.0189845 69.4543046,72.0189845 69.4889625,71.9496689 C69.4889625,71.915011 69.5236203,71.915011 69.5236203,71.915011 L69.8701987,71.9496689 Z" id="Shape" fill="#FFFFFF"></path>
            <path d="M71.6377483,71.2565121 C71.7763797,70.9792494 71.6030905,70.6673289 71.29117,70.4940397 C70.9792494,70.3207506 70.3900662,70.2514349 70.216777,70.5980132 C70.0781457,70.8752759 70.2514349,71.1871965 70.5633554,71.3604857 C70.8752759,71.499117 71.4644592,71.6030905 71.6377483,71.2565121 M70.1474614,70.4247241 C70.3900662,69.9741722 70.8752759,69.7662252 71.3604857,70.0434879 C71.8456954,70.3207506 71.9496689,70.9445916 71.6724062,71.3951435 C71.4298013,71.8456954 70.9445916,72.0189845 70.4940397,71.7763797 C70.00883,71.5337748 69.9048565,70.9099338 70.1474614,70.4247241" id="Shape" fill="#FFFFFF"></path>
            <path d="M71.3258278,69.3503311 C71.2565121,69.2810155 71.1178808,69.2116998 71.0485651,69.2463576 C70.9792494,69.2810155 70.9445916,69.3156733 70.9099338,69.2810155 C70.8752759,69.2463576 70.8752759,69.2463576 70.9099338,69.2116998 C70.9445916,69.1423841 71.0139073,69.1077263 71.083223,69.0384106 C71.1178808,68.9690949 71.1871965,68.8997792 71.2218543,68.8651214 C71.2565121,68.8304636 71.2565121,68.8304636 71.3258278,68.8304636 L72.4348786,69.1423841 C72.5388521,69.1770419 72.5735099,69.1770419 72.6081678,69.1770419 C72.6081678,69.1770419 72.6081678,69.1077263 72.5735099,69.0730684 L72.1229581,67.9640177 C72.0883002,67.894702 72.0883002,67.894702 72.1229581,67.894702 C72.1576159,67.8253863 72.2269316,67.7907285 72.2962472,67.7214128 C72.3309051,67.6520971 72.4002208,67.5827815 72.4348786,67.5481236 C72.4348786,67.5481236 72.4695364,67.5481236 72.4695364,67.5481236 C72.5041943,67.5827815 72.4695364,67.6174393 72.4348786,67.686755 C72.4002208,67.7907285 72.4002208,67.8253863 72.5041943,67.9293598 L73.197351,68.518543 C73.3706402,68.6571744 73.4746137,68.7264901 73.6479029,68.6225166 C73.6825607,68.5878587 73.7172185,68.5878587 73.7518764,68.6225166 C73.7865342,68.6571744 73.7518764,68.6918322 73.7172185,68.7264901 C73.6479029,68.7958057 73.5785872,68.8651214 73.5092715,68.9344371 C73.4399558,69.0037528 73.3706402,69.1077263 73.3359823,69.1770419 C73.3013245,69.2116998 73.2666667,69.2463576 73.2320088,69.2116998 C73.197351,69.1770419 73.197351,69.1423841 73.2320088,69.1077263 C73.2666667,69.0384106 73.2320088,69.0037528 73.1280353,68.8997792 L72.5041943,68.3799117 C72.4695364,68.3799117 72.4348786,68.3452539 72.4348786,68.3452539 C72.4348786,68.3452539 72.4348786,68.3799117 72.4695364,68.4492274 L72.9200883,69.5236203 C72.9200883,69.5582781 72.9547461,69.592936 72.9200883,69.6275938 C72.8854305,69.6622517 72.8854305,69.6275938 72.8507726,69.6275938 L71.707064,69.3156733 C71.6724062,69.3156733 71.6377483,69.2810155 71.6377483,69.3156733 C71.6377483,69.3156733 71.6377483,69.3503311 71.6724062,69.3503311 L72.1922737,69.800883 C72.2962472,69.9048565 72.4348786,69.9741722 72.6081678,69.8701987 C72.6428256,69.8355408 72.6774834,69.8355408 72.7121413,69.8701987 C72.7467991,69.9048565 72.7121413,69.9395143 72.7121413,69.9395143 C72.6428256,70.00883 72.5735099,70.0781457 72.5388521,70.1128035 C72.4695364,70.1821192 72.4348786,70.2514349 72.3655629,70.3207506 C72.3655629,70.3554084 72.3309051,70.3554084 72.2962472,70.3207506 C72.2615894,70.2860927 72.2615894,70.2514349 72.2962472,70.216777 C72.3309051,70.0781457 72.2962472,70.00883 72.1922737,69.9048565 L71.3258278,69.3503311 Z" id="Shape" fill="#FFFFFF"></path>
            <path d="M73.197351,67.3401766 C73.1280353,67.2708609 73.0240618,67.1668874 72.9200883,67.1668874 C72.8161148,67.1668874 72.781457,67.2015453 72.781457,67.1668874 C72.7467991,67.1322296 72.781457,67.1322296 72.781457,67.1322296 C72.8507726,67.0975717 72.9200883,67.0629139 72.9547461,66.9935982 C73.0240618,66.9589404 73.0587196,66.8896247 73.1280353,66.8549669 C73.1626932,66.8203091 73.197351,66.8203091 73.2320088,66.8203091 L74.2370861,67.3748344 C74.3410596,67.4441501 74.3757174,67.4441501 74.3757174,67.4441501 C74.3757174,67.4441501 74.3757174,67.3748344 74.3757174,67.3401766 L74.2024283,66.1618102 C74.2024283,66.0924945 74.2024283,66.0924945 74.2024283,66.0924945 C74.2717439,66.0578366 74.3410596,66.0231788 74.4103753,65.9538631 C74.4796909,65.9192053 74.5143488,65.8498896 74.5836645,65.8152318 C74.5836645,65.8152318 74.6183223,65.8152318 74.6183223,65.8498896 C74.6529801,65.8845475 74.6183223,65.9192053 74.5836645,65.988521 C74.5143488,66.0578366 74.5143488,66.1271523 74.5836645,66.2311258 L75.103532,66.9589404 C75.2421634,67.1322296 75.311479,67.2362031 75.519426,67.1668874 C75.5887417,67.1668874 75.5887417,67.1668874 75.6233996,67.2015453 C75.6580574,67.2362031 75.6233996,67.2708609 75.5540839,67.3055188 C75.4501104,67.3401766 75.3807947,67.4094923 75.311479,67.4788079 C75.2421634,67.5481236 75.1381898,67.6174393 75.0688742,67.686755 C75.0342163,67.7214128 74.9995585,67.7560706 74.9649007,67.7214128 C74.9302428,67.686755 74.9649007,67.6520971 74.9649007,67.6174393 C74.9995585,67.5481236 74.9649007,67.5134658 74.895585,67.4094923 L74.4103753,66.7509934 C74.4103753,66.7163355 74.3757174,66.6816777 74.3757174,66.6816777 C74.3757174,66.6816777 74.3757174,66.7163355 74.3757174,66.8203091 L74.5836645,67.9640177 C74.5836645,67.9986755 74.5836645,68.0333333 74.5490066,68.0679912 C74.5143488,68.0679912 74.5143488,68.0679912 74.4796909,68.0679912 L73.4399558,67.4788079 C73.405298,67.4441501 73.3706402,67.4441501 73.3706402,67.4441501 C73.3706402,67.4441501 73.3706402,67.4788079 73.405298,67.5134658 L73.7865342,68.0679912 C73.8905077,68.2066225 73.9944812,68.2759382 74.1677704,68.2412804 C74.2024283,68.2412804 74.2370861,68.2412804 74.2717439,68.2759382 C74.3064018,68.310596 74.2717439,68.3452539 74.2370861,68.3452539 C74.1677704,68.3799117 74.0637969,68.4145695 73.9944812,68.4838852 C73.9251656,68.5532009 73.8558499,68.6225166 73.7865342,68.6571744 C73.7518764,68.6571744 73.7518764,68.6918322 73.7172185,68.6571744 C73.6825607,68.6225166 73.7172185,68.5878587 73.7172185,68.5532009 C73.7865342,68.4145695 73.7518764,68.3452539 73.6825607,68.2412804 L73.197351,67.3401766 Z" id="Shape" fill="#FFFFFF"></path>
            <path d="M76.6977925,66.7163355 C76.9750552,66.612362 77.0443709,66.2311258 76.9057395,65.8845475 C76.7671082,65.5726269 76.3512141,65.1220751 76.0046358,65.2953642 C75.7273731,65.3993377 75.6580574,65.780574 75.7966887,66.1271523 C75.9006623,66.4390728 76.3165563,66.8549669 76.6977925,66.7163355 M76.0392936,65.1567329 C76.5245033,64.9487859 77.009713,65.1220751 77.21766,65.6072848 C77.4256071,66.1271523 77.1136865,66.6816777 76.6284768,66.8549669 C76.1432671,67.0629139 75.6580574,66.8896247 75.4501104,66.404415 C75.2421634,65.9192053 75.5540839,65.3646799 76.0392936,65.1567329" id="Shape" fill="#FFFFFF"></path>
            <path d="M77.8761589,65.0874172 C77.8068433,65.0527594 77.7375276,65.0181015 77.7375276,65.0181015 C77.7375276,65.0181015 77.7028698,65.0181015 77.7375276,65.0874172 L77.9108168,65.988521 C77.9454746,66.0924945 77.9801325,66.196468 78.1187638,66.196468 C78.1880795,66.196468 78.2573951,66.196468 78.292053,66.2311258 C78.292053,66.2657837 78.2573951,66.3004415 78.1880795,66.3004415 C78.084106,66.3004415 78.0147903,66.3004415 77.9108168,66.3350993 C77.8068433,66.3697572 77.7375276,66.404415 77.6682119,66.404415 C77.6335541,66.404415 77.6335541,66.404415 77.5988962,66.3697572 C77.5988962,66.3350993 77.6335541,66.3004415 77.6682119,66.2657837 C77.7721854,66.1618102 77.8068433,66.0924945 77.7721854,65.9538631 L77.5642384,65.0181015 C77.5295806,64.914128 77.4949227,64.8101545 77.3909492,64.7754967 C77.2869757,64.7408389 77.2523179,64.7408389 77.2523179,64.706181 C77.2523179,64.6715232 77.2523179,64.6715232 77.2869757,64.6715232 C77.3562914,64.6715232 77.4256071,64.6368653 77.5295806,64.6368653 C77.5988962,64.6368653 77.6682119,64.6022075 77.7375276,64.5675497 C77.8068433,64.5675497 77.8068433,64.5675497 77.8415011,64.5675497 L79.0198675,65.3646799 C79.0545254,65.3993377 79.0891832,65.4339956 79.1238411,65.3993377 C79.1584989,65.3993377 79.1238411,65.3646799 79.1238411,65.3300221 L79.0198675,64.7754967 C78.9852097,64.6022075 78.9505519,64.4635762 78.7772627,64.4635762 C78.707947,64.4635762 78.6386313,64.4635762 78.6386313,64.4289183 C78.6386313,64.3942605 78.6732892,64.3942605 78.707947,64.3596026 C78.7772627,64.3596026 78.8812362,64.3596026 78.9852097,64.3249448 C79.0545254,64.290287 79.1584989,64.2556291 79.2278146,64.2556291 C79.2624724,64.2556291 79.2971302,64.2556291 79.2971302,64.290287 C79.2971302,64.3249448 79.2624724,64.3596026 79.2278146,64.3596026 C79.1238411,64.4635762 79.0891832,64.5328918 79.1238411,64.6715232 L79.3664459,65.8498896 C79.4011038,65.9538631 79.4011038,65.988521 79.3664459,65.988521 C79.3317881,65.988521 79.2624724,65.9538631 79.1931567,65.8845475 L77.8761589,65.0874172 Z" id="Shape" fill="#FFFFFF"></path>
            <path d="M79.6783664,64.4635762 C79.6437086,64.3942605 79.6090508,64.3596026 79.5743929,64.3249448 C79.5397351,64.3249448 79.5050773,64.3249448 79.5050773,64.2556291 C79.5050773,64.2209713 79.5397351,64.2209713 79.5743929,64.2209713 C79.6783664,64.2209713 79.78234,64.2556291 79.8863135,64.2556291 C79.990287,64.2556291 80.0942605,64.2209713 80.198234,64.2209713 C80.2328918,64.2209713 80.2675497,64.2209713 80.2675497,64.2556291 C80.2675497,64.290287 80.2328918,64.290287 80.198234,64.3249448 C80.1289183,64.3596026 80.1289183,64.3942605 80.1289183,64.4289183 C80.1289183,64.4635762 80.1635762,64.498234 80.198234,64.6022075 L80.4754967,65.4339956 C80.4754967,65.4686534 80.4754967,65.4686534 80.5101545,65.4686534 C80.5101545,65.4686534 80.5448124,65.4339956 80.5448124,65.3993377 L80.8220751,64.8448124 L80.6834437,64.4289183 C80.6487859,64.3596026 80.614128,64.3249448 80.5794702,64.290287 C80.5448124,64.290287 80.5101545,64.2556291 80.5101545,64.2209713 C80.5101545,64.1863135 80.5448124,64.1863135 80.5794702,64.1863135 C80.6834437,64.1863135 80.7874172,64.2209713 80.8913907,64.2209713 C80.9953642,64.2209713 81.0993377,64.2209713 81.2033113,64.2209713 C81.2379691,64.2209713 81.2726269,64.2209713 81.2726269,64.2556291 C81.2726269,64.290287 81.2379691,64.290287 81.2033113,64.3249448 C81.1339956,64.3596026 81.1339956,64.3942605 81.1339956,64.4289183 C81.1339956,64.4635762 81.1686534,64.5675497 81.2033113,64.6022075 L81.480574,65.3646799 C81.480574,65.3993377 81.480574,65.3993377 81.5152318,65.3993377 C81.5498896,65.3993377 81.5498896,65.3646799 81.5498896,65.2953642 L81.7924945,64.6368653 C81.8271523,64.5675497 81.8271523,64.498234 81.8271523,64.4289183 C81.8271523,64.3249448 81.688521,64.3249448 81.6192053,64.290287 C81.5845475,64.2556291 81.5498896,64.2556291 81.5498896,64.2209713 C81.5498896,64.1863135 81.5845475,64.1863135 81.6192053,64.1863135 C81.7231788,64.1863135 81.7924945,64.2209713 81.8618102,64.2209713 C81.9311258,64.2209713 82.0350993,64.1863135 82.104415,64.1863135 C82.1390728,64.1863135 82.1737307,64.1863135 82.1737307,64.2209713 C82.1737307,64.2556291 82.104415,64.2556291 82.0697572,64.3249448 C82.0004415,64.3942605 82.0004415,64.4289183 81.9311258,64.6022075 L81.4459161,65.8152318 C81.3766004,65.9538631 81.3766004,65.9538631 81.3419426,65.9538631 C81.3072848,65.9538631 81.2726269,65.9538631 81.2726269,65.8498896 L80.9953642,65.0527594 C80.9953642,65.0181015 80.9607064,64.9834437 80.9607064,64.9834437 C80.9607064,64.9834437 80.9260486,65.0181015 80.9260486,65.0527594 L80.5448124,65.8152318 C80.4754967,65.9538631 80.4754967,65.9538631 80.4408389,65.9538631 C80.406181,65.9538631 80.406181,65.9538631 80.3715232,65.8498896 L79.6783664,64.4635762 Z" id="Shape" fill="#FFFFFF"></path>
            <path d="M82.4856512,64.8448124 C82.5203091,64.7408389 82.5203091,64.5328918 82.4509934,64.498234 C82.3816777,64.4635762 82.312362,64.4289183 82.3470199,64.3942605 C82.3470199,64.3596026 82.3816777,64.3596026 82.4509934,64.3596026 C82.6242826,64.4289183 82.8322296,64.4635762 83.0055188,64.498234 C83.1788079,64.5328918 83.386755,64.5675497 83.594702,64.6022075 C83.6640177,64.6022075 83.6986755,64.6368653 83.6986755,64.6715232 C83.6986755,64.706181 83.6640177,64.7754967 83.6640177,64.8448124 C83.6640177,64.914128 83.6640177,64.9487859 83.6293598,65.0181015 C83.6293598,65.0527594 83.6293598,65.0527594 83.5600442,65.0527594 C83.5253863,65.0527594 83.5253863,64.9834437 83.5253863,64.9834437 C83.5253863,64.8101545 83.4907285,64.7408389 83.1788079,64.6715232 L83.0055188,64.6368653 C82.9362031,64.6368653 82.9015453,64.6368653 82.9015453,64.7408389 L82.7975717,65.1567329 C82.7975717,65.1913907 82.8322296,65.2260486 82.9362031,65.2260486 C83.0748344,65.2607064 83.2134658,65.2260486 83.2481236,65.1220751 C83.2827815,65.0527594 83.3174393,65.0527594 83.3174393,65.0527594 C83.3520971,65.0527594 83.3520971,65.0874172 83.3520971,65.1220751 C83.3520971,65.1913907 83.3174393,65.2607064 83.2827815,65.3300221 C83.2827815,65.3993377 83.2481236,65.4686534 83.2481236,65.5379691 C83.2481236,65.5726269 83.2481236,65.6072848 83.1788079,65.6072848 C83.1441501,65.6072848 83.1441501,65.5379691 83.1441501,65.4686534 C83.1094923,65.3646799 83.0401766,65.3300221 82.9015453,65.2953642 C82.7975717,65.2607064 82.7629139,65.2953642 82.7282561,65.3646799 L82.6242826,65.780574 C82.5896247,65.9538631 82.6242826,65.988521 82.7282561,66.0231788 C83.0055188,66.0924945 83.1441501,66.0231788 83.2481236,65.9538631 C83.3520971,65.8845475 83.386755,65.8152318 83.4214128,65.8152318 C83.4560706,65.8152318 83.4560706,65.8498896 83.4560706,65.8845475 C83.4560706,65.9538631 83.4214128,66.0231788 83.386755,66.0924945 C83.3174393,66.196468 83.2134658,66.2657837 83.0748344,66.2657837 C82.9015453,66.2311258 82.7629139,66.1618102 82.5896247,66.1271523 C82.4163355,66.0924945 82.2430464,66.0924945 82.104415,66.0578366 C82.0350993,66.0578366 82.0004415,66.0231788 82.0004415,65.988521 C82.0004415,65.9538631 82.0697572,65.9538631 82.104415,65.9192053 C82.2083885,65.8845475 82.2083885,65.8498896 82.2430464,65.7112583 L82.4856512,64.8448124 Z" id="Shape" fill="#FFFFFF"></path>
            <path d="M84.3918322,65.8498896 C84.3571744,65.8845475 84.3571744,65.8845475 84.3571744,65.8845475 C84.3571744,65.9192053 84.3918322,65.9192053 84.4611479,65.9538631 L84.7037528,66.0578366 C84.7730684,66.0924945 84.8077263,66.0924945 84.8077263,66.0924945 C84.8077263,66.0924945 84.8077263,66.0231788 84.8077263,65.988521 L84.7730684,65.6072848 C84.7730684,65.5726269 84.7730684,65.5379691 84.7384106,65.5379691 C84.7384106,65.5379691 84.6690949,65.5726269 84.6690949,65.5726269 L84.3918322,65.8498896 Z M84.9810155,65.1220751 C85.0503311,65.0874172 85.0503311,65.0527594 85.084989,65.0527594 C85.084989,65.0527594 85.084989,65.0874172 85.084989,65.1220751 L85.1543046,66.6470199 C85.1543046,66.7509934 85.1543046,66.8896247 85.2236203,66.9242826 C85.292936,66.9589404 85.3275938,66.9935982 85.292936,67.0282561 C85.292936,67.0629139 85.2582781,67.0629139 85.2236203,67.0282561 C85.1196468,66.9935982 85.0156733,66.9242826 84.9116998,66.8896247 C84.8077263,66.8549669 84.7037528,66.8203091 84.5651214,66.7856512 C84.5304636,66.7856512 84.5304636,66.7509934 84.5304636,66.7163355 C84.5304636,66.6816777 84.5651214,66.6816777 84.5997792,66.6816777 C84.6690949,66.6816777 84.7384106,66.6470199 84.7384106,66.5777042 C84.7730684,66.5083885 84.7730684,66.3004415 84.7384106,66.2311258 C84.7037528,66.196468 84.6690949,66.1618102 84.5651214,66.1271523 L84.218543,65.988521 C84.1145695,65.9538631 83.9412804,66.1618102 83.9066225,66.2657837 C83.9066225,66.3004415 83.9412804,66.3697572 83.9759382,66.404415 C84.0452539,66.4390728 84.1145695,66.5083885 84.1145695,66.5430464 C84.1145695,66.5777042 84.0799117,66.5777042 84.0452539,66.5430464 C83.9759382,66.5083885 83.9066225,66.4737307 83.802649,66.4390728 C83.7333333,66.404415 83.6293598,66.404415 83.5600442,66.3697572 C83.5253863,66.3697572 83.4907285,66.3350993 83.5253863,66.3004415 C83.5253863,66.2657837 83.594702,66.2657837 83.6293598,66.2657837 C83.6640177,66.2657837 83.6986755,66.2311258 83.7333333,66.196468 L84.9810155,65.1220751 Z" id="Shape" fill="#FFFFFF"></path>
            <path d="M86.2980132,66.0231788 C86.3673289,65.8845475 86.3326711,65.780574 86.2286976,65.7459161 C86.1940397,65.7459161 86.1940397,65.7112583 86.2286976,65.6766004 C86.2286976,65.6419426 86.2633554,65.6419426 86.2980132,65.6766004 C86.4019868,65.7459161 86.5059603,65.8152318 86.6099338,65.8845475 C86.7139073,65.9538631 86.8178808,65.988521 86.9218543,66.0578366 C86.9565121,66.0924945 86.99117,66.0924945 86.9565121,66.1271523 C86.9218543,66.1618102 86.8871965,66.1618102 86.8525386,66.1271523 C86.7485651,66.0924945 86.6792494,66.1618102 86.6445916,66.2311258 L86.0554084,67.1668874 C85.9514349,67.3401766 85.9514349,67.3748344 86.0900662,67.4441501 C86.2980132,67.5827815 86.4713024,67.5827815 86.6099338,67.5827815 C86.7139073,67.5481236 86.783223,67.5134658 86.8525386,67.5134658 C86.8871965,67.5481236 86.8871965,67.5827815 86.8525386,67.6174393 C86.7485651,67.7907285 86.4713024,67.8253863 86.3326711,67.7214128 C86.1940397,67.6520971 85.916777,67.4441501 85.7434879,67.3401766 C85.6741722,67.2708609 85.5701987,67.2708609 85.500883,67.2015453 C85.4662252,67.1668874 85.3969095,67.1322296 85.4315673,67.0975717 C85.4662252,67.0629139 85.500883,67.0629139 85.5701987,67.0629139 C85.6741722,67.0629139 85.7434879,66.9935982 85.7781457,66.9242826 L86.2980132,66.0231788 Z" id="Shape" fill="#FFFFFF"></path>
            <path d="M87.9269316,67.0282561 C87.9962472,66.9589404 87.9615894,66.8896247 87.8576159,66.8203091 C87.6843267,66.6470199 87.5803532,66.612362 87.3724062,66.7509934 C87.3724062,66.7509934 87.3377483,66.7509934 87.3377483,66.7509934 C87.3030905,66.7163355 87.3030905,66.7163355 87.3377483,66.6816777 C87.3377483,66.6816777 87.3724062,66.6470199 87.407064,66.612362 L87.5803532,66.4390728 C87.615011,66.404415 87.615011,66.404415 87.6843267,66.4390728 C87.8922737,66.612362 88.0655629,66.7856512 88.2735099,66.9589404 C88.481457,67.1322296 88.689404,67.2708609 88.897351,67.4441501 C88.9320088,67.4788079 88.9320088,67.5134658 88.897351,67.5827815 L88.7587196,67.7907285 C88.7587196,67.8253863 88.7240618,67.8253863 88.7240618,67.8253863 C88.7240618,67.8253863 88.689404,67.8253863 88.689404,67.8253863 C88.6547461,67.7907285 88.6547461,67.7907285 88.6547461,67.7907285 C88.7587196,67.5481236 88.689404,67.4788079 88.5161148,67.3055188 C88.4121413,67.2015453 88.3428256,67.2015453 88.3081678,67.2708609 L87.5456954,68.1719647 C87.407064,68.310596 87.5456954,68.4492274 87.5803532,68.518543 C87.5803532,68.5532009 87.615011,68.5878587 87.5803532,68.6225166 C87.5456954,68.6571744 87.5456954,68.6225166 87.5110375,68.6225166 C87.407064,68.518543 87.3030905,68.4145695 87.1644592,68.310596 C87.0604857,68.2066225 86.9218543,68.1373068 86.783223,68.0333333 C86.7485651,67.9986755 86.7485651,67.9986755 86.7485651,67.9640177 C86.783223,67.9293598 86.8178808,67.9640177 86.8525386,67.9640177 C86.9565121,67.9986755 87.0604857,68.102649 87.199117,67.9640177 L87.9269316,67.0282561 Z" id="Shape" fill="#FFFFFF"></path>
            <path d="M89.4172185,69.2116998 C89.4865342,69.2810155 89.5211921,69.2810155 89.5558499,69.2463576 L89.8331126,69.0384106 C89.9370861,68.9344371 89.9370861,68.8304636 89.8677704,68.7611479 C89.8331126,68.7264901 89.8331126,68.7264901 89.8677704,68.6918322 C89.9024283,68.6571744 89.9370861,68.7264901 90.0064018,68.7958057 C90.0757174,68.8651214 90.1103753,68.9690949 90.1796909,69.0384106 C90.2490066,69.1077263 90.3183223,69.1770419 90.387638,69.2463576 C90.4222958,69.2810155 90.4222958,69.3156733 90.387638,69.3156733 C90.3529801,69.3503311 90.3183223,69.3156733 90.2836645,69.3156733 C90.2143488,69.2810155 90.1103753,69.2810155 90.0410596,69.3503311 L89.1746137,70.0781457 C89.0706402,70.1821192 89.0706402,70.2860927 89.1399558,70.3554084 C89.1746137,70.3900662 89.1746137,70.4247241 89.1399558,70.4247241 C89.105298,70.4593819 89.0706402,70.3900662 89.0013245,70.3554084 C88.9320088,70.2860927 88.897351,70.1821192 88.8280353,70.1128035 C88.7587196,70.0434879 88.689404,69.9741722 88.6200883,69.9048565 C88.5854305,69.8701987 88.5854305,69.8355408 88.6200883,69.8355408 C88.6547461,69.800883 88.689404,69.8355408 88.7240618,69.8355408 C88.7933775,69.9048565 88.897351,69.8701987 88.9666667,69.800883 L89.3479029,69.4889625 C89.4172185,69.4196468 89.4172185,69.4196468 89.3479029,69.3503311 L88.9666667,68.8651214 C88.9320088,68.8304636 88.897351,68.8651214 88.8626932,68.8651214 L88.481457,69.1770419 C88.3774834,69.2810155 88.3774834,69.384989 88.4467991,69.4543046 C88.481457,69.4889625 88.481457,69.5236203 88.4467991,69.5236203 C88.4121413,69.5582781 88.3774834,69.4889625 88.3081678,69.4196468 C88.2388521,69.3503311 88.2041943,69.2463576 88.1348786,69.1770419 C88.0655629,69.1077263 87.9962472,69.0384106 87.9269316,68.9690949 C87.8922737,68.9344371 87.8922737,68.8997792 87.9269316,68.8997792 C87.9615894,68.8651214 87.9962472,68.8997792 88.0309051,68.8997792 C88.1002208,68.9690949 88.2041943,68.9344371 88.2735099,68.8651214 L89.1399558,68.1373068 C89.2439294,68.0333333 89.2439294,67.9293598 89.1746137,67.8600442 C89.1399558,67.8253863 89.1399558,67.7907285 89.1746137,67.7907285 C89.2092715,67.7560706 89.2439294,67.8253863 89.313245,67.894702 C89.3825607,67.9640177 89.4172185,68.0679912 89.4865342,68.1373068 C89.5558499,68.2066225 89.6251656,68.2759382 89.6944812,68.3452539 C89.7291391,68.3799117 89.7291391,68.4145695 89.6944812,68.4145695 C89.6598234,68.4492274 89.6251656,68.4145695 89.5905077,68.4145695 C89.5211921,68.3452539 89.4172185,68.4145695 89.3479029,68.4492274 L89.0706402,68.6571744 C89.0359823,68.6918322 89.0359823,68.7264901 89.0706402,68.7958057 L89.4172185,69.2116998 Z" id="Shape" fill="#FFFFFF"></path>
            <path d="M90.9768212,70.7713024 C91.1154525,70.7019868 91.1501104,70.5980132 91.0807947,70.5286976 C91.0807947,70.4940397 91.0807947,70.4593819 91.1154525,70.4593819 C91.1501104,70.4593819 91.1847682,70.4593819 91.219426,70.5633554 C91.2540839,70.6673289 91.2887417,70.7713024 91.3233996,70.8406181 C91.3580574,70.9445916 91.4273731,71.0139073 91.4620309,71.1178808 C91.4966887,71.1871965 91.4620309,71.1871965 91.4620309,71.1871965 C91.4273731,71.1871965 91.3927152,71.1871965 91.3927152,71.1525386 C91.3233996,71.083223 91.219426,71.083223 91.1501104,71.1178808 L90.4222958,71.4298013 C90.1450331,71.5337748 90.0410596,71.8110375 90.1450331,72.0883002 C90.3183223,72.5041943 90.6995585,72.4695364 90.9768212,72.3309051 L91.5660044,72.0883002 C91.6699779,72.0189845 91.7392936,71.9496689 91.6699779,71.8110375 C91.6699779,71.7763797 91.6699779,71.7417219 91.7046358,71.707064 C91.7392936,71.707064 91.7392936,71.707064 91.7739514,71.7763797 C91.8086093,71.8456954 91.8086093,71.915011 91.8432671,71.9843267 C91.8779249,72.0536424 91.9125828,72.1229581 91.9472406,72.1922737 C91.9818985,72.2269316 91.9472406,72.2615894 91.9472406,72.2615894 C91.9125828,72.2962472 91.8779249,72.2269316 91.8432671,72.1922737 C91.7739514,72.1576159 91.7392936,72.1576159 91.5313466,72.2269316 L91.0461369,72.4348786 C90.5262693,72.6428256 90.1450331,72.5041943 89.9370861,71.9843267 C89.7637969,71.5684327 89.8331126,71.2218543 90.2490066,71.0485651 L90.9768212,70.7713024 Z" id="Shape" fill="#FFFFFF"></path>
            <path d="M91.7046358,73.2666667 C91.7392936,73.197351 91.7739514,73.1280353 91.7739514,73.1280353 C91.7739514,73.1280353 91.7739514,73.0933775 91.7046358,73.1280353 L90.8381898,73.3359823 C90.6995585,73.3706402 90.6302428,73.4399558 90.6302428,73.5439294 C90.6302428,73.613245 90.6302428,73.6825607 90.595585,73.7172185 C90.5609272,73.7172185 90.5262693,73.6825607 90.5262693,73.613245 C90.4916115,73.5092715 90.4916115,73.4399558 90.4916115,73.3359823 C90.4569536,73.2320088 90.4222958,73.1626932 90.4222958,73.0933775 C90.4222958,73.0587196 90.4222958,73.0240618 90.4569536,73.0240618 C90.4916115,73.0240618 90.5262693,73.0240618 90.5262693,73.0587196 C90.6302428,73.1626932 90.6995585,73.197351 90.8381898,73.1626932 L91.7739514,72.9547461 C91.8779249,72.9547461 91.9818985,72.8507726 92.0165563,72.781457 C92.0512141,72.6774834 92.0512141,72.6428256 92.085872,72.6428256 C92.1205298,72.6428256 92.1205298,72.6428256 92.1205298,72.6774834 C92.1205298,72.7467991 92.1551876,72.8161148 92.1551876,72.8854305 C92.1551876,72.9547461 92.1898455,73.0240618 92.2245033,73.0933775 C92.2245033,73.1280353 92.2245033,73.1626932 92.2245033,73.197351 L91.4273731,74.3757174 C91.3927152,74.4103753 91.3927152,74.4450331 91.3927152,74.4796909 C91.3927152,74.5143488 91.4273731,74.4796909 91.4620309,74.4796909 L92.0165563,74.3410596 C92.1898455,74.3064018 92.3284768,74.2717439 92.3284768,74.0984547 C92.3284768,74.0291391 92.3284768,73.9598234 92.3631347,73.9598234 C92.3977925,73.9598234 92.3977925,73.9944812 92.4324503,74.0291391 C92.4671082,74.0984547 92.4671082,74.2024283 92.4671082,74.3064018 C92.501766,74.4103753 92.5364238,74.4796909 92.5364238,74.5490066 C92.5364238,74.5836645 92.5364238,74.5836645 92.501766,74.6183223 C92.4671082,74.6183223 92.4324503,74.5836645 92.4324503,74.5836645 C92.3284768,74.4796909 92.2591611,74.4450331 92.1205298,74.4796909 L90.9421634,74.7222958 C90.8381898,74.7569536 90.803532,74.7569536 90.803532,74.7222958 C90.803532,74.687638 90.8381898,74.6183223 90.9075055,74.5490066 L91.7046358,73.2666667 Z" id="Shape" fill="#FFFFFF"></path>
            <path d="M91.1154525,75.6580574 C90.9421634,75.6580574 90.9075055,75.7966887 90.9075055,75.8660044 C90.9075055,75.9006623 90.9075055,75.9353201 90.8381898,75.9353201 C90.803532,75.9353201 90.803532,75.8660044 90.803532,75.7966887 C90.803532,75.7273731 90.803532,75.6233996 90.803532,75.519426 C90.803532,75.4154525 90.7688742,75.311479 90.7688742,75.2075055 C90.7688742,75.1728477 90.7688742,75.1381898 90.803532,75.103532 C90.8381898,75.103532 90.8728477,75.1381898 90.8728477,75.1728477 C90.9075055,75.2768212 91.011479,75.2768212 91.0807947,75.2768212 L92.2245033,75.2075055 C92.3631347,75.2075055 92.4324503,75.103532 92.4324503,74.9995585 C92.4324503,74.9649007 92.4324503,74.9302428 92.501766,74.9302428 C92.5364238,74.9302428 92.5364238,74.9995585 92.5364238,75.0688742 C92.5364238,75.1728477 92.5364238,75.2768212 92.5364238,75.3807947 C92.5364238,75.4847682 92.5710817,75.5887417 92.5710817,75.6927152 C92.5710817,75.7273731 92.5710817,75.7620309 92.5364238,75.7620309 C92.501766,75.7620309 92.4671082,75.6927152 92.4671082,75.6580574 C92.4324503,75.5540839 92.3284768,75.5540839 92.2591611,75.5887417 L91.1154525,75.6580574 Z" id="Shape" fill="#FFFFFF"></path>
            <path d="M92.085872,77.5295806 C92.1551876,77.5642384 92.1898455,77.5988962 92.2245033,77.5988962 C92.2591611,77.5988962 92.293819,77.5988962 92.3284768,77.5642384 C92.3631347,77.5295806 92.3631347,77.4602649 92.4324503,77.3909492 C92.4671082,77.3562914 92.4671082,77.3216336 92.501766,77.3216336 C92.5364238,77.3216336 92.5364238,77.3562914 92.5364238,77.3909492 C92.5364238,77.4602649 92.501766,77.5642384 92.501766,77.6335541 C92.501766,77.7375276 92.501766,77.8068433 92.501766,77.9108168 C92.501766,77.9454746 92.501766,77.9801325 92.4671082,77.9801325 C92.4324503,77.9801325 92.4324503,77.9108168 92.3977925,77.8761589 C92.3284768,77.8068433 92.293819,77.7721854 92.1205298,77.7028698 L90.9075055,77.0443709 C90.7688742,76.9750552 90.7688742,76.9403974 90.7688742,76.9057395 C90.7688742,76.8710817 90.803532,76.8364238 90.8728477,76.801766 L92.3284768,76.2818985 C92.4671082,76.2472406 92.4671082,76.1779249 92.501766,76.1086093 C92.5364238,76.0739514 92.5364238,76.0392936 92.5710817,76.0392936 C92.6057395,76.0392936 92.6057395,76.0739514 92.6057395,76.1086093 C92.6057395,76.2125828 92.5710817,76.3512141 92.5710817,76.4551876 C92.5710817,76.5591611 92.5710817,76.6977925 92.5710817,76.801766 C92.5710817,76.8364238 92.5710817,76.8710817 92.5364238,76.8710817 C92.501766,76.8710817 92.501766,76.8364238 92.4671082,76.801766 C92.4671082,76.7324503 92.3977925,76.6977925 92.3631347,76.6977925 C92.3284768,76.6977925 92.2591611,76.7324503 92.2245033,76.7324503 L91.4273731,77.0443709 C91.3233996,77.0790287 91.3233996,77.0790287 91.3233996,77.1136865 C91.3233996,77.1136865 91.3580574,77.1483444 91.3927152,77.1483444 L92.085872,77.5295806 Z" id="Shape" fill="#FFFFFF"></path>
            <path d="M91.9472406,78.4306843 C92.085872,78.4653422 92.2591611,78.5 92.293819,78.3960265 C92.3284768,78.3267108 92.3631347,78.2573951 92.3977925,78.292053 C92.4324503,78.292053 92.4324503,78.3267108 92.4324503,78.3960265 C92.3631347,78.5693157 92.3284768,78.7772627 92.2591611,78.9505519 C92.2245033,79.1584989 92.1898455,79.3317881 92.1551876,79.5397351 C92.1551876,79.6090508 92.1205298,79.6437086 92.085872,79.6437086 C92.0165563,79.6437086 91.9818985,79.6090508 91.9125828,79.6090508 C91.8432671,79.6090508 91.8086093,79.5743929 91.7392936,79.5743929 C91.7046358,79.5743929 91.7046358,79.5743929 91.7046358,79.5050773 C91.7046358,79.4704194 91.7739514,79.4704194 91.7739514,79.4704194 C91.9472406,79.5050773 92.0165563,79.4357616 92.085872,79.1584989 L92.1205298,78.9852097 C92.1205298,78.915894 92.1205298,78.8812362 92.0165563,78.8812362 L91.6006623,78.7772627 C91.5660044,78.7772627 91.5313466,78.8119205 91.5313466,78.915894 C91.4966887,79.0545254 91.4966887,79.1931567 91.6006623,79.2278146 C91.6699779,79.2624724 91.6699779,79.2971302 91.6699779,79.2971302 C91.6699779,79.3317881 91.6353201,79.3317881 91.6006623,79.3317881 C91.5313466,79.2971302 91.4620309,79.2971302 91.3927152,79.2624724 C91.3233996,79.2278146 91.2540839,79.2278146 91.1847682,79.2278146 C91.1501104,79.2278146 91.1154525,79.1931567 91.1154525,79.1584989 C91.1154525,79.1238411 91.1847682,79.1238411 91.2540839,79.1238411 C91.3580574,79.0891832 91.3927152,79.0198675 91.4273731,78.8812362 C91.4620309,78.7772627 91.4273731,78.7426049 91.3580574,78.707947 L90.9421634,78.6039735 C90.7688742,78.5693157 90.7342163,78.6039735 90.6995585,78.707947 C90.6302428,78.9505519 90.6649007,79.1238411 90.7342163,79.2278146 C90.803532,79.3317881 90.8728477,79.3664459 90.8728477,79.4011038 C90.8728477,79.4357616 90.8381898,79.4357616 90.803532,79.4357616 C90.7688742,79.4357616 90.6649007,79.3664459 90.6302428,79.3317881 C90.5262693,79.2624724 90.4569536,79.1238411 90.4569536,79.0198675 C90.4916115,78.8465784 90.5609272,78.707947 90.595585,78.5346578 C90.6302428,78.3613687 90.6649007,78.1880795 90.6995585,78.0494481 C90.6995585,77.9801325 90.7342163,77.9454746 90.7688742,77.9454746 C90.803532,77.9454746 90.803532,78.0147903 90.8381898,78.0494481 C90.8728477,78.1534216 90.9075055,78.1534216 91.0461369,78.1880795 L91.9472406,78.4306843 Z" id="Shape" fill="#FFFFFF"></path>
            <path d="M91.011479,80.4408389 C90.9768212,80.4408389 90.9421634,80.406181 90.8728477,80.5448124 C90.7688742,80.7527594 90.8381898,80.8913907 91.0807947,80.9953642 C91.2540839,81.0646799 91.4620309,81.0300221 91.5313466,80.8220751 C91.6006623,80.6834437 91.5660044,80.6487859 91.4620309,80.614128 L91.011479,80.4408389 Z M91.5660044,80.2675497 C91.7046358,80.3368653 91.7739514,80.2675497 91.8432671,80.1635762 C91.8779249,80.1289183 91.8779249,80.1289183 91.9125828,80.1289183 C91.9472406,80.1289183 91.9472406,80.1635762 91.9125828,80.198234 C91.8779249,80.2675497 91.8432671,80.3022075 91.7739514,80.4754967 C91.7046358,80.614128 91.6699779,80.7874172 91.6006623,80.8913907 C91.4620309,81.2033113 91.2540839,81.5152318 90.8728477,81.3419426 C90.6995585,81.2726269 90.6649007,81.1686534 90.6649007,81.0300221 C90.6649007,80.9607064 90.6649007,80.8913907 90.6649007,80.8913907 C90.6302428,80.8913907 90.0410596,80.9260486 89.8677704,80.9953642 C89.8331126,80.9953642 89.7984547,81.0300221 89.7984547,81.0300221 C89.7984547,81.0646799 89.7984547,81.0993377 89.7637969,81.0993377 C89.7637969,81.1339956 89.7291391,81.1339956 89.6944812,81.1339956 C89.5905077,81.0993377 89.6944812,80.8220751 89.7291391,80.7181015 C89.7637969,80.6487859 89.8331126,80.5794702 89.9370861,80.5794702 L90.5609272,80.5101545 C90.6649007,80.5101545 90.7342163,80.4754967 90.7688742,80.406181 C90.803532,80.3368653 90.803532,80.3368653 90.7688742,80.3022075 L90.387638,80.1289183 C90.2143488,80.0596026 90.1103753,80.0942605 90.0757174,80.198234 C90.0757174,80.2328918 90.0410596,80.2328918 90.0064018,80.2328918 C89.9717439,80.2328918 89.9717439,80.198234 90.0410596,80.0942605 C90.0757174,79.990287 90.1450331,79.9209713 90.1796909,79.8169978 C90.2143488,79.7130243 90.2490066,79.6090508 90.2836645,79.5397351 C90.2836645,79.5050773 90.3183223,79.4704194 90.3529801,79.5050773 C90.387638,79.5050773 90.387638,79.5743929 90.387638,79.6090508 C90.387638,79.7130243 90.4569536,79.78234 90.5262693,79.8169978 L91.5660044,80.2675497 Z" id="Shape" fill="#FFFFFF"></path>
            <path d="M89.9024283,81.4459161 C89.9370861,81.4459161 89.9717439,81.4459161 89.9717439,81.480574 C89.9717439,81.480574 90.0064018,81.5152318 89.9717439,81.5498896 C89.9370861,81.5845475 89.8677704,81.5498896 89.8331126,81.5498896 C89.6251656,81.5152318 89.3825607,81.5845475 89.2439294,81.7924945 C89.1399558,81.9311258 89.1746137,82.104415 89.313245,82.2083885 C89.6598234,82.4163355 90.0064018,81.5152318 90.595585,81.896468 C90.803532,82.0350993 90.9075055,82.3470199 90.7342163,82.5896247 C90.6302428,82.7629139 90.4569536,82.8322296 90.4222958,82.9015453 C90.4222958,82.9362031 90.4222958,83.0055188 90.387638,83.0055188 C90.3529801,83.0401766 90.3529801,83.0401766 90.3183223,83.0055188 C90.2143488,82.9362031 89.9717439,82.8322296 89.9717439,82.7975717 C89.9370861,82.7629139 89.9370861,82.7629139 89.9370861,82.7282561 C89.9717439,82.6935982 90.0064018,82.6935982 90.0757174,82.7282561 C90.2490066,82.7975717 90.5262693,82.6935982 90.6302428,82.5203091 C90.6995585,82.3816777 90.6995585,82.2430464 90.595585,82.1390728 C90.2490066,81.896468 89.9024283,82.8322296 89.313245,82.4509934 C89.105298,82.312362 88.9320088,82.0004415 89.1399558,81.6538631 C89.2439294,81.5152318 89.3479029,81.4112583 89.4518764,81.3072848 C89.4865342,81.2726269 89.4865342,81.2379691 89.5211921,81.2726269 L89.9024283,81.4459161 Z" id="Shape" fill="#FFFFFF"></path>
            <path d="M88.6200883,82.9708609 C88.5161148,82.8668874 88.3774834,82.9362031 88.3428256,82.9708609 C88.3081678,83.0055188 88.3081678,83.0055188 88.2735099,82.9708609 C88.2388521,82.9362031 88.2735099,82.9015453 88.3428256,82.8322296 C88.3774834,82.7629139 88.481457,82.6935982 88.5507726,82.6242826 C88.6200883,82.5549669 88.6547461,82.4509934 88.7240618,82.3816777 C88.7587196,82.3470199 88.7933775,82.312362 88.7933775,82.3470199 C88.8280353,82.3816777 88.7933775,82.4163355 88.7933775,82.4509934 C88.7587196,82.5549669 88.8280353,82.6242826 88.897351,82.6589404 L89.7637969,83.386755 C89.9024283,83.4907285 89.9717439,83.4560706 90.0410596,83.386755 C90.0757174,83.3520971 90.0757174,83.3520971 90.1103753,83.386755 C90.1450331,83.4214128 90.1103753,83.4560706 90.0410596,83.5253863 C89.9717439,83.594702 89.9024283,83.6640177 89.8331126,83.7333333 C89.7637969,83.802649 89.7291391,83.9066225 89.6598234,83.9759382 C89.6251656,84.010596 89.6251656,84.0452539 89.5905077,84.010596 C89.5558499,83.9759382 89.5905077,83.9412804 89.5905077,83.9066225 C89.6251656,83.802649 89.5558499,83.7333333 89.4865342,83.6986755 L88.6200883,82.9708609 Z" id="Shape" fill="#FFFFFF"></path>
            <path d="M88.7240618,84.5997792 C88.7933775,84.6690949 88.8280353,84.6344371 88.9320088,84.5651214 C89.105298,84.3918322 89.1746137,84.3225166 89.0706402,84.0799117 C89.0706402,84.0799117 89.0706402,84.0452539 89.0706402,84.0452539 C89.105298,84.010596 89.105298,84.010596 89.1399558,84.0452539 C89.1399558,84.0452539 89.1746137,84.0799117 89.2092715,84.1145695 L89.3825607,84.3225166 C89.4172185,84.3571744 89.4172185,84.3918322 89.3825607,84.4264901 C89.2092715,84.5997792 89.0013245,84.7730684 88.7933775,84.9463576 C88.6200883,85.1196468 88.4121413,85.3275938 88.2388521,85.500883 C88.2041943,85.5355408 88.1695364,85.5355408 88.1002208,85.500883 L87.8922737,85.3275938 C87.8922737,85.3275938 87.8576159,85.292936 87.8576159,85.292936 C87.8576159,85.292936 87.8576159,85.2582781 87.8576159,85.2582781 C87.8922737,85.2236203 87.8922737,85.2236203 87.8922737,85.2582781 C88.1002208,85.3969095 88.2041943,85.3275938 88.3774834,85.1543046 C88.481457,85.0503311 88.481457,85.0156733 88.4467991,84.9463576 L87.6496689,84.0799117 C87.5110375,83.9412804 87.3724062,84.0452539 87.3030905,84.0799117 C87.2684327,84.0799117 87.2337748,84.1145695 87.199117,84.0799117 C87.1644592,84.0452539 87.199117,84.0452539 87.199117,84.010596 C87.3030905,83.9066225 87.4417219,83.802649 87.5456954,83.6986755 C87.6496689,83.594702 87.7536424,83.4907285 87.8576159,83.386755 C87.8922737,83.386755 87.8922737,83.3520971 87.9269316,83.386755 C87.9615894,83.4214128 87.9269316,83.4560706 87.9269316,83.4907285 C87.8922737,83.5600442 87.7536424,83.6986755 87.8922737,83.8373068 L88.7240618,84.5997792 Z" id="Shape" fill="#FFFFFF"></path>
            <path d="M86.5406181,86.1593819 C86.5406181,86.2286976 86.5752759,86.2633554 86.5752759,86.2980132 C86.6099338,86.3673289 86.7139073,86.3326711 86.8178808,86.2980132 C86.8525386,86.2980132 86.8871965,86.2980132 86.8871965,86.3326711 C86.9218543,86.3673289 86.8871965,86.3673289 86.8525386,86.4019868 C86.783223,86.4366446 86.6792494,86.4713024 86.6099338,86.5406181 C86.5406181,86.5752759 86.4713024,86.6445916 86.4019868,86.7139073 C86.3673289,86.7139073 86.3673289,86.7485651 86.3326711,86.7139073 C86.2980132,86.6792494 86.3326711,86.6792494 86.3673289,86.6099338 C86.4019868,86.5406181 86.4366446,86.4713024 86.4019868,86.2980132 L86.3673289,85.6741722 C86.3673289,85.6048565 86.3673289,85.5701987 86.3326711,85.5355408 L86.1247241,85.1889625 C86.0554084,85.084989 85.9860927,85.0156733 85.8474614,85.084989 C85.8128035,85.1196468 85.7434879,85.1543046 85.70883,85.084989 C85.6741722,85.0503311 85.7434879,85.0156733 85.8128035,84.9463576 C85.916777,84.8770419 86.0207506,84.8423841 86.1247241,84.7730684 C86.1940397,84.7384106 86.2980132,84.6344371 86.3673289,84.5997792 C86.4366446,84.5651214 86.4713024,84.5304636 86.5059603,84.5651214 C86.5406181,84.5997792 86.5059603,84.6344371 86.4366446,84.6690949 C86.3326711,84.7730684 86.3673289,84.8423841 86.4366446,84.9463576 L86.6099338,85.2236203 C86.6099338,85.2582781 86.6445916,85.2582781 86.6792494,85.2582781 L87.407064,85.6395143 C87.5803532,85.7434879 87.6496689,85.7434879 87.7189845,85.70883 C87.7883002,85.6741722 87.8229581,85.6741722 87.8576159,85.70883 C87.8922737,85.7434879 87.8576159,85.7781457 87.8229581,85.7781457 C87.7189845,85.8474614 87.615011,85.8821192 87.5110375,85.9514349 C87.407064,86.0207506 87.3377483,86.0900662 87.2337748,86.1593819 C87.199117,86.1940397 87.1644592,86.1940397 87.1298013,86.1593819 C87.0951435,86.1247241 87.1644592,86.0900662 87.199117,86.0554084 C87.199117,86.0207506 87.2337748,85.9860927 87.199117,85.9860927 C87.1644592,85.9514349 87.1298013,85.916777 87.0951435,85.916777 L86.6792494,85.6741722 C86.6099338,85.6395143 86.5752759,85.6395143 86.5752759,85.6395143 C86.5752759,85.6395143 86.5752759,85.70883 86.5752759,85.7434879 L86.5406181,86.1593819 Z" id="Shape" fill="#FFFFFF"></path>
            <path d="M77.009713,86.7139073 C76.9403974,86.7139073 76.9057395,86.7139073 76.8710817,86.7139073 C76.8364238,86.7139073 76.801766,86.7139073 76.7671082,86.7485651 C76.7324503,86.7485651 76.7324503,86.783223 76.6977925,86.8178808 C76.6631347,86.8525386 76.6284768,86.8871965 76.593819,86.9218543 L76.5591611,86.9218543 C76.5591611,86.8525386 76.5591611,86.8178808 76.5591611,86.7485651 C76.5591611,86.7139073 76.5591611,86.6792494 76.5245033,86.6445916 C76.5245033,86.6099338 76.4898455,86.6099338 76.4551876,86.5752759 C76.4205298,86.5406181 76.385872,86.5059603 76.3512141,86.4713024 L76.3512141,86.4366446 C76.4205298,86.4366446 76.4551876,86.4366446 76.4898455,86.4366446 C76.5245033,86.4366446 76.5591611,86.4366446 76.593819,86.4019868 C76.6284768,86.4019868 76.6284768,86.3673289 76.6631347,86.3326711 C76.6977925,86.2980132 76.7324503,86.2633554 76.7671082,86.2286976 L76.801766,86.2286976 C76.801766,86.2980132 76.801766,86.3326711 76.801766,86.3673289 C76.801766,86.4019868 76.801766,86.4366446 76.8364238,86.4713024 C76.8364238,86.5059603 76.8710817,86.5059603 76.9057395,86.5406181 C76.9057395,86.6099338 76.9403974,86.6445916 77.009713,86.7139073 L77.009713,86.7139073 Z" id="Shape" fill="#FFFFFF"></path>
            <path d="M78.5,86.4366446 C78.5,86.4019868 78.4653422,86.3673289 78.4306843,86.3673289 C78.3613687,86.3673289 78.3267108,86.3673289 78.292053,86.3673289 C78.2573951,86.3673289 78.2227373,86.3326711 78.2573951,86.2980132 C78.2573951,86.2633554 78.3267108,86.2633554 78.3613687,86.2633554 C78.5,86.2633554 78.6386313,86.2633554 78.7772627,86.1940397 C78.8119205,86.1940397 78.8119205,86.1593819 78.8465784,86.1593819 C78.8812362,86.1593819 78.8812362,86.1940397 78.8812362,86.2286976 L78.6039735,87.615011 C78.5693157,87.7536424 78.6386313,87.7883002 78.707947,87.8229581 C78.7426049,87.8576159 78.8119205,87.8576159 78.8119205,87.8922737 C78.8119205,87.9269316 78.7772627,87.9269316 78.707947,87.9269316 C78.6039735,87.8922737 78.5,87.8576159 78.3960265,87.8576159 C78.292053,87.8576159 78.1880795,87.8229581 78.084106,87.8229581 C78.0147903,87.8229581 78.0147903,87.7883002 78.0147903,87.7536424 C78.0147903,87.7189845 78.084106,87.7189845 78.1534216,87.7189845 C78.2227373,87.7189845 78.292053,87.6496689 78.3267108,87.5803532 L78.5,86.4366446 Z" id="Shape" fill="#FFFFFF"></path>
            <path d="M79.5397351,86.5752759 C79.5050773,86.8178808 79.8863135,86.9218543 79.9556291,86.9218543 C80.0942605,86.9218543 80.1635762,86.8178808 80.1635762,86.6792494 C80.1635762,86.4713024 80.0249448,86.3326711 79.8169978,86.3326711 C79.7130243,86.3673289 79.5743929,86.4019868 79.5397351,86.5752759 L79.5397351,86.5752759 Z M79.6437086,87.2337748 C79.6090508,87.2337748 79.6090508,87.2337748 79.5743929,87.199117 C79.5397351,87.199117 79.4357616,87.3030905 79.4357616,87.4763797 C79.4357616,87.7189845 79.5397351,87.9269316 79.8169978,87.9269316 C79.9556291,87.9269316 80.1635762,87.8576159 80.1635762,87.6843267 C80.1635762,87.5456954 80.1289183,87.4763797 80.0249448,87.407064 L79.6437086,87.2337748 Z M80.406181,86.6792494 C80.406181,86.8525386 80.3022075,86.9218543 80.1289183,86.99117 C80.0942605,86.99117 80.0596026,86.99117 80.0596026,87.0258278 C80.0596026,87.0258278 80.0942605,87.0604857 80.0942605,87.0604857 C80.2675497,87.1644592 80.406181,87.3377483 80.406181,87.5803532 C80.3715232,87.9615894 80.0596026,88.1002208 79.7130243,88.0655629 C79.4357616,88.0309051 79.1584989,87.8922737 79.1584989,87.5456954 C79.1584989,87.3724062 79.2624724,87.2684327 79.4357616,87.199117 C79.4704194,87.199117 79.4704194,87.199117 79.4704194,87.199117 C79.4704194,87.199117 79.4357616,87.1644592 79.4357616,87.1644592 C79.3317881,87.0604857 79.2624724,86.9218543 79.2624724,86.783223 C79.2971302,86.4713024 79.5743929,86.2980132 79.8516556,86.3326711 C80.1289183,86.2980132 80.4408389,86.4019868 80.406181,86.6792494 L80.406181,86.6792494 Z" id="Shape" fill="#FFFFFF"></path>
            <path d="M81.1339956,86.4713024 C80.9607064,86.4713024 80.9260486,86.6099338 80.8567329,86.6099338 C80.8567329,86.6099338 80.8220751,86.6099338 80.8220751,86.5752759 C80.8220751,86.5059603 81.0300221,86.2980132 81.3072848,86.2633554 C81.480574,86.2633554 81.688521,86.3326711 81.688521,86.5406181 C81.688521,86.7139073 81.5845475,86.8178808 81.4459161,86.9218543 C81.4459161,86.9218543 81.4459161,86.9565121 81.4459161,86.9565121 C81.4459161,86.9565121 81.4459161,86.9565121 81.480574,86.9565121 C81.7231788,86.9565121 81.8618102,87.0951435 81.8618102,87.3377483 C81.896468,87.7189845 81.6192053,88.0309051 81.2379691,88.0309051 C81.0300221,88.0309051 80.7874172,87.9269316 80.7874172,87.8576159 C80.7874172,87.8229581 80.7874172,87.8229581 80.8220751,87.8229581 C80.8913907,87.8229581 80.9260486,87.9615894 81.1686534,87.9269316 C81.4112583,87.9269316 81.5152318,87.7189845 81.5152318,87.4763797 C81.5152318,87.3030905 81.4112583,87.1644592 81.2379691,87.1644592 C81.2033113,87.1644592 81.1686534,87.1644592 81.1339956,87.199117 C81.0993377,87.199117 81.0993377,87.199117 81.0993377,87.1644592 C81.0993377,87.1298013 81.1686534,87.0951435 81.2033113,87.0604857 C81.3419426,86.99117 81.4112583,86.8525386 81.4112583,86.6792494 C81.3766004,86.5406181 81.2726269,86.4366446 81.1339956,86.4713024" id="Shape" fill="#FFFFFF"></path>
            <path d="M82.5896247,87.0951435 C82.5549669,87.0951435 82.5549669,87.0951435 82.5203091,87.0951435 C82.4856512,87.0951435 82.4163355,87.2337748 82.4509934,87.3724062 C82.4856512,87.615011 82.6589404,87.7883002 82.9362031,87.7189845 C83.0748344,87.6843267 83.2481236,87.5803532 83.2134658,87.3724062 C83.1788079,87.2337748 83.1094923,87.1644592 83.0055188,87.1644592 L82.5896247,87.0951435 Z M82.3470199,86.5059603 C82.3816777,86.7485651 82.7975717,86.7485651 82.8322296,86.7485651 C82.9708609,86.7139073 83.0055188,86.5752759 82.9708609,86.4713024 C82.9362031,86.2633554 82.7629139,86.1940397 82.5549669,86.2286976 C82.4509934,86.2286976 82.312362,86.3326711 82.3470199,86.5059603 L82.3470199,86.5059603 Z M83.2134658,86.3673289 C83.2481236,86.5406181 83.1788079,86.6445916 83.0401766,86.7139073 C83.0055188,86.7485651 82.9708609,86.7485651 83.0055188,86.7485651 C83.0055188,86.7485651 83.0401766,86.7485651 83.0748344,86.783223 C83.2827815,86.8525386 83.4560706,86.99117 83.4907285,87.199117 C83.5600442,87.5803532 83.2827815,87.7883002 82.9362031,87.8576159 C82.6589404,87.9269316 82.3470199,87.8229581 82.2777042,87.5110375 C82.2430464,87.3377483 82.312362,87.199117 82.4509934,87.0951435 C82.4509934,87.0604857 82.4856512,87.0604857 82.4856512,87.0604857 C82.4856512,87.0604857 82.4509934,87.0604857 82.4509934,87.0258278 C82.312362,86.9565121 82.2430464,86.8525386 82.2083885,86.6792494 C82.1390728,86.3673289 82.3816777,86.1593819 82.6589404,86.0900662 C82.8322296,86.0554084 83.1441501,86.0900662 83.2134658,86.3673289 L83.2134658,86.3673289 Z" id="Shape" fill="#FFFFFF"></path>
            <path d="M85.1543046,86.3673289 C85.1196468,86.4019868 85.084989,86.4366446 85.0503311,86.4713024 C85.0156733,86.5059603 85.0156733,86.5406181 84.9810155,86.5406181 C84.9810155,86.5752759 84.9463576,86.6099338 84.9463576,86.6445916 C84.9463576,86.6792494 84.9463576,86.7485651 84.9463576,86.783223 L84.9463576,86.783223 C84.9116998,86.7485651 84.8770419,86.7139073 84.8423841,86.6792494 C84.8077263,86.6445916 84.7730684,86.6445916 84.7730684,86.6445916 C84.7384106,86.6445916 84.7037528,86.6445916 84.6690949,86.6099338 C84.6344371,86.6099338 84.5651214,86.6099338 84.5304636,86.6099338 L84.5304636,86.5752759 C84.5651214,86.5406181 84.5997792,86.5059603 84.6344371,86.4713024 C84.6690949,86.4366446 84.6690949,86.4019868 84.6690949,86.4019868 C84.6690949,86.3673289 84.6690949,86.3326711 84.7037528,86.2980132 C84.7037528,86.2633554 84.7037528,86.1940397 84.7037528,86.1593819 L84.7384106,86.1593819 C84.7730684,86.1940397 84.8077263,86.2286976 84.8423841,86.2633554 C84.8770419,86.2980132 84.9116998,86.2980132 84.9116998,86.3326711 C84.9463576,86.3326711 84.9810155,86.3326711 85.0156733,86.3673289 C85.0503311,86.3326711 85.084989,86.3326711 85.1543046,86.3673289 L85.1543046,86.3673289 Z" id="Shape" fill="#FFFFFF"></path>
            <path d="M90.1450331,76.1779249 C90.1450331,81.4112583 85.8821192,85.6741722 80.6487859,85.6741722 C75.4154525,85.6741722 71.1525386,81.4112583 71.1525386,76.1779249 C71.1525386,70.9445916 75.4154525,66.6816777 80.6487859,66.6816777 C85.8821192,66.6816777 90.1450331,70.9445916 90.1450331,76.1779249" id="Shape" fill="#FFFFFF"></path>
            <g transform="translate(72.088300, 70.355408)" id="Shape" fill="#000000">
                <path d="M6.55033113,5.12935982 L6.48101545,11.0211921 C6.48101545,11.0211921 6.48101545,11.0558499 6.51567329,11.0905077 C6.55033113,11.1251656 6.68896247,11.1598234 7.13951435,11.1598234 C7.59006623,11.1598234 7.72869757,11.0905077 7.76335541,11.0905077 C7.79801325,11.0558499 7.79801325,11.0211921 7.79801325,11.0211921 L7.76335541,5.12935982 C7.69403974,5.09470199 7.52075055,5.02538631 7.17417219,5.02538631 C6.79293598,4.99072848 6.6196468,5.06004415 6.55033113,5.12935982"></path>
                <path d="M7.17417219,3.25783664 C6.44635762,3.25783664 6.27306843,3.5004415 6.27306843,3.5004415 L6.27306843,3.56975717 C6.27306843,3.56975717 6.41169978,3.56975717 6.48101545,3.74304636 C6.55033113,3.95099338 6.58498896,4.67880795 6.58498896,4.67880795 L6.58498896,4.74812362 C6.68896247,4.67880795 6.86225166,4.64415011 7.17417219,4.64415011 C7.48609272,4.64415011 7.6593819,4.71346578 7.76335541,4.74812362 L7.76335541,4.67880795 C7.76335541,4.67880795 7.76335541,4.05496689 7.86732892,3.74304636 C7.93664459,3.60441501 8.0406181,3.56975717 8.0406181,3.56975717 L8.0406181,3.5004415 C8.07527594,3.46578366 7.90198675,3.25783664 7.17417219,3.25783664"></path>
                <path d="M9.32295806,5.12935982 L9.28830022,11.0211921 C9.28830022,11.0211921 9.28830022,11.0558499 9.32295806,11.0905077 C9.35761589,11.1251656 9.49624724,11.1598234 9.94679912,11.1598234 C10.397351,11.1598234 10.5359823,11.1251656 10.5706402,11.0905077 C10.605298,11.0558499 10.605298,11.0211921 10.605298,11.0211921 L10.5359823,5.12935982 C10.4666667,5.09470199 10.3280353,4.99072848 9.94679912,4.99072848 C9.53090508,4.99072848 9.39227373,5.06004415 9.32295806,5.12935982"></path>
                <path d="M10.813245,3.5004415 C10.813245,3.5004415 10.6399558,3.25783664 9.91214128,3.25783664 C9.18432671,3.25783664 9.01103753,3.46578366 9.01103753,3.46578366 L9.01103753,3.53509934 C9.01103753,3.53509934 9.11501104,3.56975717 9.18432671,3.70838852 C9.32295806,3.98565121 9.28830022,4.64415011 9.28830022,4.64415011 L9.28830022,4.71346578 C9.39227373,4.64415011 9.56556291,4.60949227 9.87748344,4.60949227 C10.189404,4.60949227 10.3626932,4.67880795 10.4666667,4.71346578 L10.4666667,4.64415011 C10.4666667,4.64415011 10.5013245,3.91633554 10.5706402,3.70838852 C10.6399558,3.56975717 10.7785872,3.53509934 10.7785872,3.53509934 L10.813245,3.5004415 Z"></path>
                <path d="M14.8682119,10.9518764 L13.4818985,10.9518764 C13.4472406,10.9518764 13.4472406,10.9172185 13.4472406,10.9172185 L13.2392936,4.05496689 C13.2392936,4.05496689 13.2392936,4.02030905 13.2739514,4.02030905 L14.209713,4.02030905 C14.2443709,4.02030905 14.2443709,4.05496689 14.2443709,4.05496689 L14.9028698,10.8825607 C14.9375276,10.8825607 14.9375276,10.9518764 14.8682119,10.9518764 L14.8682119,10.9518764 Z M14.4869757,3.81236203 C14.4869757,3.81236203 14.4869757,3.77770419 14.4523179,3.77770419 L13.1006623,3.77770419 C13.0660044,3.77770419 13.0660044,3.81236203 13.0660044,3.81236203 L13.2739514,11.1944812 C13.2739514,11.1944812 13.2739514,11.2637969 13.3086093,11.2637969 L15.2147903,11.2637969 C15.284106,11.2637969 15.284106,11.1944812 15.284106,11.1944812 L14.4869757,3.81236203 Z"></path>
                <path d="M3.67373068,10.8825607 C3.67373068,10.8825607 3.67373068,10.9172185 3.63907285,10.9172185 L2.25275938,10.9172185 C2.18344371,10.9172185 2.21810155,10.8479029 2.21810155,10.8479029 L2.87660044,4.02030905 C2.87660044,4.02030905 2.87660044,3.98565121 2.91125828,3.98565121 L3.84701987,3.98565121 C3.8816777,3.98565121 3.8816777,4.02030905 3.8816777,4.02030905 L3.67373068,10.8825607 Z M3.84701987,11.1944812 L4.05496689,3.81236203 C4.05496689,3.81236203 4.05496689,3.77770419 4.02030905,3.77770419 L2.66865342,3.77770419 C2.63399558,3.77770419 2.63399558,3.81236203 2.63399558,3.81236203 L1.87152318,11.1944812 C1.87152318,11.1944812 1.87152318,11.2637969 1.94083885,11.2637969 L3.84701987,11.2637969 C3.8816777,11.2637969 3.84701987,11.1944812 3.84701987,11.1944812 L3.84701987,11.1944812 Z"></path>
                <path d="M15.2494481,2.70331126 C15.2494481,2.70331126 15.0761589,2.80728477 15.0068433,2.91125828 C14.9375276,3.01523179 14.9375276,3.18852097 14.9375276,3.18852097 L12.5461369,3.18852097 C12.5461369,3.18852097 12.5461369,3.04988962 12.4768212,2.91125828 C12.4075055,2.77262693 12.2688742,2.70331126 12.2688742,2.70331126 L12.2688742,2.63399558 C12.2688742,2.63399558 12.2688742,2.59933775 12.3381898,2.59933775 L12.8927152,2.59933775 C13.0660044,2.8419426 13.3432671,3.01523179 13.793819,3.01523179 C14.2443709,3.01523179 14.5562914,2.8419426 14.6949227,2.59933775 L15.2147903,2.59933775 C15.2494481,2.59933775 15.2494481,2.63399558 15.2494481,2.63399558 L15.2494481,2.70331126 L15.2494481,2.70331126 Z M11.4370861,2.21810155 L5.64922737,2.21810155 L5.64922737,1.90618102 L11.4370861,1.90618102 L11.4370861,2.21810155 Z M6.93156733,0.831788079 C6.93156733,0.831788079 7.24348786,0.935761589 7.55540839,0.935761589 C7.93664459,0.935761589 8.0406181,0.831788079 8.14459161,0.901103753 C8.21390728,0.970419426 8.14459161,1.07439294 8.14459161,1.14370861 C8.14459161,1.24768212 8.21390728,1.31699779 8.31788079,1.31699779 C8.38719647,1.31699779 8.4218543,1.28233996 8.4218543,1.24768212 C8.38719647,1.21302428 8.35253863,1.14370861 8.35253863,1.07439294 C8.35253863,0.970419426 8.45651214,0.866445916 8.56048565,0.866445916 C8.66445916,0.866445916 8.76843267,0.970419426 8.76843267,1.07439294 C8.76843267,1.14370861 8.73377483,1.21302428 8.699117,1.24768212 C8.73377483,1.28233996 8.76843267,1.31699779 8.80309051,1.31699779 C8.90706402,1.31699779 8.97637969,1.24768212 8.97637969,1.14370861 C8.97637969,1.0397351 8.90706402,0.970419426 8.97637969,0.901103753 C9.0803532,0.831788079 9.18432671,0.901103753 9.56556291,0.935761589 C9.87748344,0.935761589 10.1547461,0.831788079 10.189404,0.831788079 C10.189404,0.831788079 10.0854305,1.24768212 9.49624724,1.38631347 C9.04569536,1.49028698 8.59514349,1.49028698 8.59514349,1.49028698 L8.59514349,1.49028698 C8.59514349,1.49028698 8.17924945,1.49028698 7.69403974,1.38631347 C7.03554084,1.24768212 6.93156733,0.831788079 6.93156733,0.831788079 L6.93156733,0.831788079 Z M4.85209713,2.70331126 C4.85209713,2.70331126 4.71346578,2.80728477 4.64415011,2.91125828 C4.57483444,3.04988962 4.57483444,3.18852097 4.57483444,3.18852097 L2.14878587,3.18852097 C2.14878587,3.18852097 2.14878587,3.04988962 2.0794702,2.91125828 C2.01015453,2.80728477 1.83686534,2.70331126 1.83686534,2.70331126 L1.83686534,2.63399558 C1.83686534,2.63399558 1.83686534,2.59933775 1.87152318,2.59933775 L2.39139073,2.59933775 C2.56467991,2.8419426 2.8419426,3.01523179 3.29249448,3.01523179 C3.74304636,3.01523179 4.05496689,2.8419426 4.19359823,2.59933775 L4.74812362,2.59933775 C4.78278146,2.59933775 4.81743929,2.63399558 4.81743929,2.63399558 L4.81743929,2.70331126 L4.85209713,2.70331126 Z M15.6653422,1.87152318 L11.4370861,1.87152318 L11.4717439,1.55960265 L15.5267108,1.55960265 C15.5267108,1.55960265 15.5267108,1.38631347 15.5267108,1.31699779 C15.5267108,1.07439294 15.6653422,0.901103753 15.6653422,0.901103753 L16.1852097,0.242604857 L16.1852097,0.0346578366 C16.1852097,-1.13686838e-13 16.1852097,-1.13686838e-13 16.1505519,-1.13686838e-13 L11.2637969,-1.13686838e-13 C11.2291391,-1.13686838e-13 11.2291391,-1.13686838e-13 11.2291391,0.0346578366 L11.2291391,0.41589404 L5.85717439,0.41589404 L5.85717439,0.0346578366 C5.85717439,0.0346578366 5.85717439,-1.13686838e-13 5.82251656,-1.13686838e-13 L0.935761589,-1.13686838e-13 C0.901103753,-1.13686838e-13 0.901103753,-1.13686838e-13 0.901103753,0.0346578366 L0.901103753,0.242604857 L1.4209713,0.901103753 C1.4209713,0.901103753 1.55960265,1.07439294 1.55960265,1.31699779 C1.55960265,1.35165563 1.55960265,1.55960265 1.55960265,1.55960265 L5.61456954,1.55960265 L5.64922737,1.87152318 L1.4209713,1.87152318 L0.0693156733,11.9222958 L1.21302428,11.9222958 L2.14878587,3.39646799 L4.5401766,3.39646799 L4.43620309,11.9222958 L5.37196468,11.9222958 L5.64922737,11.5064018 L5.64922737,2.8419426 L11.4370861,2.8419426 L11.4370861,11.5064018 L11.7143488,11.9222958 L12.6501104,11.9222958 L12.5461369,3.39646799 L14.9375276,3.39646799 L15.8732892,11.9222958 L17.0169978,11.9222958 L15.6653422,1.87152318 Z"></path>
            </g>
            <path d="M78.292053,69.4196468 C78.292053,69.800883 78.5346578,69.6969095 78.5346578,69.7662252 C78.5346578,69.7662252 78.5346578,69.800883 78.4653422,69.800883 C78.3960265,69.800883 78.3267108,69.800883 78.2227373,69.800883 C78.1187638,69.800883 78.0147903,69.800883 77.9801325,69.800883 C77.9454746,69.800883 77.9454746,69.800883 77.9454746,69.7662252 C77.9454746,69.6969095 78.1187638,69.7315673 78.1534216,69.4889625 L78.1880795,68.5532009 C78.1880795,68.1719647 77.9454746,68.2759382 77.9454746,68.1719647 C77.9454746,68.1719647 77.9454746,68.1373068 77.9801325,68.1373068 C78.0147903,68.1373068 78.0494481,68.1373068 78.1187638,68.1373068 C78.1880795,68.1373068 78.2573951,68.1373068 78.3267108,68.1373068 C78.3613687,68.1373068 78.3613687,68.1373068 78.3960265,68.2066225 L78.915894,69.3156733 C78.915894,69.3503311 78.915894,69.3503311 78.9505519,69.3503311 C78.9505519,69.3503311 78.9852097,69.3156733 78.9852097,69.3156733 L79.5397351,68.2066225 C79.5397351,68.2066225 79.5397351,68.1719647 79.6090508,68.1719647 C79.6783664,68.1719647 79.7130243,68.1719647 79.7476821,68.1719647 C79.78234,68.1719647 79.8169978,68.1719647 79.8863135,68.1719647 C79.9556291,68.1719647 79.9556291,68.1719647 79.9556291,68.2066225 C79.9556291,68.2759382 79.7130243,68.2066225 79.7476821,68.4838852 L79.78234,69.5236203 C79.78234,69.8355408 79.990287,69.7315673 79.990287,69.800883 C79.990287,69.8355408 79.9556291,69.8355408 79.8863135,69.8355408 C79.8169978,69.8355408 79.7476821,69.8355408 79.6783664,69.8355408 C79.5397351,69.8355408 79.4704194,69.8355408 79.4357616,69.8355408 C79.4011038,69.8355408 79.3317881,69.8355408 79.3317881,69.800883 C79.3317881,69.7315673 79.5050773,69.800883 79.5050773,69.5582781 L79.4704194,68.8651214 C79.4704194,68.7958057 79.4704194,68.7611479 79.4357616,68.7611479 C79.4357616,68.7611479 79.4011038,68.7958057 79.3664459,68.8997792 L78.915894,69.800883 C78.915894,69.8355408 78.8812362,69.8701987 78.8465784,69.8701987 C78.8119205,69.8701987 78.8119205,69.8355408 78.7772627,69.800883 L78.3267108,68.7958057 C78.3267108,68.7958057 78.3267108,68.7611479 78.292053,68.7611479 C78.292053,68.7611479 78.292053,68.7958057 78.292053,68.8304636 L78.292053,69.4196468 Z" id="Shape" fill="#000000"></path>
            <path d="M81.480574,68.6571744 C81.480574,68.6918322 81.480574,68.7264901 81.4459161,68.7264901 C81.4112583,68.7264901 81.3766004,68.6918322 81.3766004,68.6571744 C81.2726269,68.4492274 81.0646799,68.2412804 80.7874172,68.2412804 C80.4408389,68.2412804 80.2675497,68.5532009 80.2675497,68.8651214 C80.2675497,69.1770419 80.4408389,69.6622517 80.8913907,69.6622517 C81.2379691,69.6622517 81.4112583,69.3503311 81.480574,69.3503311 C81.480574,69.3503311 81.5152318,69.3503311 81.5152318,69.384989 C81.5152318,69.4889625 81.2726269,69.8355408 80.7874172,69.8355408 C80.0942605,69.8355408 79.990287,69.2463576 79.990287,69.0730684 C79.990287,68.6918322 80.2328918,68.1719647 80.8220751,68.1719647 C81.0993377,68.1719647 81.2726269,68.310596 81.3419426,68.310596 C81.3766004,68.310596 81.3766004,68.2412804 81.4112583,68.2412804 C81.4112583,68.2412804 81.4459161,68.2412804 81.4459161,68.2412804 L81.480574,68.6571744 Z" id="Shape" fill="#000000"></path>
            <path d="M82.5203091,69.7662252 C82.4856512,69.8355408 82.4856512,69.8355408 82.4509934,69.8355408 C82.4163355,69.8355408 82.4163355,69.800883 82.3470199,69.6969095 L81.7578366,68.3452539 C81.7231788,68.2412804 81.688521,68.2412804 81.5845475,68.2066225 C81.5845475,68.2066225 81.5498896,68.2066225 81.5498896,68.1719647 C81.5498896,68.102649 81.6192053,68.1373068 81.6538631,68.1373068 C81.7231788,68.1373068 81.7924945,68.1373068 81.896468,68.1373068 C82.0350993,68.1373068 82.104415,68.1373068 82.1390728,68.1373068 C82.2083885,68.1373068 82.2430464,68.1373068 82.2430464,68.1719647 C82.2430464,68.2412804 82.104415,68.2066225 82.104415,68.310596 C82.104415,68.3799117 82.1390728,68.4838852 82.2083885,68.6225166 L82.5203091,69.384989 C82.5203091,69.4196468 82.5549669,69.4196468 82.5549669,69.4196468 C82.5549669,69.4196468 82.5896247,69.384989 82.5896247,69.384989 L82.9015453,68.6918322 C82.9708609,68.518543 82.9708609,68.4492274 82.9708609,68.4145695 C82.9708609,68.2066225 82.7282561,68.2759382 82.7282561,68.2066225 C82.7282561,68.1719647 82.7975717,68.1719647 82.8322296,68.1719647 C82.9015453,68.1719647 82.9708609,68.1719647 83.0401766,68.1719647 C83.1094923,68.1719647 83.1788079,68.1719647 83.2481236,68.1719647 C83.2827815,68.1719647 83.3174393,68.1719647 83.3174393,68.2066225 C83.3174393,68.2759382 83.2134658,68.2412804 83.1441501,68.3799117 L82.5203091,69.7662252 Z" id="Shape" fill="#000000"></path>
            <path d="M79.2624724,83.4560706 C79.2624724,83.5253863 79.3664459,83.5253863 79.4357616,83.5253863 C79.8169978,83.5253863 79.8169978,83.386755 79.8169978,83.2481236 C79.8169978,83.0055188 79.6783664,82.8322296 79.4357616,82.8322296 C79.3317881,82.8322296 79.2624724,82.8322296 79.2624724,82.9708609 L79.2624724,83.4560706 Z M78.9852097,83.0401766 C78.9852097,82.7629139 78.707947,82.8668874 78.707947,82.7629139 C78.707947,82.7282561 78.7426049,82.7282561 78.7772627,82.7282561 C78.8812362,82.7282561 78.915894,82.7282561 79.0545254,82.7282561 C79.2278146,82.7282561 79.3664459,82.7282561 79.5397351,82.7282561 C80.0596026,82.7282561 80.1289183,83.0748344 80.1289183,83.1788079 C80.1289183,83.3174393 80.0596026,83.4214128 79.990287,83.4907285 C79.9209713,83.5253863 79.8516556,83.5600442 79.8516556,83.594702 C79.8516556,83.594702 80.0596026,83.9412804 80.2328918,84.2532009 C80.2675497,84.2878587 80.3022075,84.2878587 80.3022075,84.2878587 C80.3368653,84.2878587 80.3368653,84.2878587 80.3715232,84.2878587 C80.406181,84.2878587 80.406181,84.2878587 80.406181,84.3225166 C80.406181,84.3918322 80.2328918,84.4611479 80.1635762,84.4611479 C79.990287,84.4611479 79.8863135,84.3225166 79.8169978,84.1838852 L79.6090508,83.802649 C79.5397351,83.6986755 79.5050773,83.6640177 79.4011038,83.6640177 C79.2624724,83.6640177 79.2971302,83.6640177 79.2971302,83.7679912 L79.2971302,84.1838852 C79.2971302,84.4264901 79.5397351,84.3571744 79.5397351,84.4264901 C79.5397351,84.4611479 79.5050773,84.4611479 79.4704194,84.4611479 C79.4357616,84.4611479 79.3664459,84.4611479 79.2624724,84.4611479 C79.1238411,84.4611479 79.0198675,84.4611479 78.8812362,84.4611479 C78.8465784,84.4611479 78.8119205,84.4611479 78.8119205,84.4264901 C78.8119205,84.3571744 79.0198675,84.4264901 79.0198675,84.1145695 L79.0198675,83.0401766 L78.9852097,83.0401766 Z" id="Shape" fill="#000000"></path>
            <path d="M80.9260486,84.0799117 C80.9260486,84.3918322 81.1686534,84.2878587 81.1686534,84.3571744 C81.1686534,84.3918322 81.1339956,84.3918322 81.0993377,84.3918322 C80.9260486,84.3918322 80.8220751,84.3918322 80.7874172,84.3918322 C80.6834437,84.3918322 80.5101545,84.3918322 80.4754967,84.3918322 C80.4754967,84.3918322 80.4408389,84.3918322 80.4408389,84.3571744 C80.4408389,84.2878587 80.6487859,84.3225166 80.6487859,84.0452539 L80.6487859,83.0055188 C80.6487859,82.7629139 80.406181,82.8668874 80.406181,82.7629139 C80.406181,82.7629139 80.406181,82.7282561 80.4754967,82.7282561 C80.4754967,82.7282561 80.614128,82.7282561 80.8220751,82.7282561 C80.8567329,82.7282561 81.0300221,82.7282561 81.2033113,82.7282561 C81.5152318,82.7282561 81.7924945,82.8322296 81.7924945,83.1788079 C81.7924945,83.4907285 81.5845475,83.6640177 81.2726269,83.6640177 C81.0300221,83.6640177 81.0300221,83.594702 81.0300221,83.594702 C81.0300221,83.594702 81.0300221,83.5600442 81.0646799,83.5600442 C81.0993377,83.5600442 81.1339956,83.5600442 81.1686534,83.5600442 C81.4459161,83.5600442 81.480574,83.2827815 81.480574,83.2134658 C81.480574,83.1441501 81.4459161,82.7975717 81.0993377,82.7975717 C80.9953642,82.7975717 80.9607064,82.8322296 80.9607064,82.9362031 L80.9607064,84.0799117 L80.9260486,84.0799117 Z" id="Shape" fill="#000000"></path>
            <path d="M82.5203091,84.1145695 C82.5203091,84.4264901 82.7975717,84.2878587 82.7975717,84.3918322 C82.7975717,84.4264901 82.7629139,84.4264901 82.7282561,84.4264901 C82.6242826,84.4264901 82.5549669,84.4264901 82.3470199,84.4264901 C82.2430464,84.4264901 82.1390728,84.4264901 82.0697572,84.4264901 C82.0350993,84.4264901 82.0350993,84.3918322 82.0350993,84.3918322 C82.0350993,84.3225166 82.2083885,84.3571744 82.2083885,84.1492274 L82.2083885,83.0055188 C82.2083885,82.7975717 81.9311258,82.8668874 81.9311258,82.7629139 C81.9311258,82.7282561 82.0004415,82.7282561 82.0004415,82.7282561 C82.104415,82.7282561 82.1737307,82.7282561 82.2777042,82.7282561 C82.3470199,82.7282561 82.4509934,82.7282561 82.5896247,82.7282561 C82.6589404,82.7282561 82.6589404,82.7282561 82.6589404,82.7629139 C82.6589404,82.8322296 82.4856512,82.7629139 82.4856512,82.9708609 L82.4856512,84.1145695 L82.5203091,84.1145695 Z" id="Shape" fill="#000000"></path>
        </g>
    </g>
</svg>