<?xml version="1.0" encoding="UTF-8"?>
<svg width="157px" height="90px" viewBox="0 0 157 90" version="1.1" xmlns="http://www.w3.org/2000/svg" xmlns:xlink="http://www.w3.org/1999/xlink">
    <!-- Generator: Sketch 46.2 (44496) - http://www.bohemiancoding.com/sketch -->
    <title>Group</title>
    <desc>Created with Sketch.</desc>
    <defs></defs>
    <g id="Page-1" stroke="none" stroke-width="1" fill="none" fill-rule="evenodd">
        <g id="Group" fill-rule="nonzero">
            <path d="M14.3141315,51.6764408 L66.7184095,10.0510851 L66.3025025,9.56586027 L13.690271,51.3645106 C13.8982245,51.4338284 14.106178,51.5378051 14.3141315,51.6764408 Z" id="Shape" fill="#FEBE10"></path>
            <rect id="Rectangle-path" fill="#FBB040" x="5.64940299" y="35.1787977" width="15.0073098" height="19.6169453"></rect>
            <path d="M55.4542624,58.7468593 L63.0445646,16.6362787 C62.8019522,16.7055966 62.5593398,16.8095733 62.3513863,16.8788911 L54.7957431,58.7122003 L55.4542624,58.7122003 L55.4542624,58.7468593 Z" id="Shape" fill="#FEBE10"></path>
            <polygon id="Shape" fill="#FEBE10" points="54.5877896 58.7468593 23.4987437 8.14484479 22.9442011 8.49143393 53.8252935 58.7468593"></polygon>
            <polygon id="Shape" fill="#FEBE10" points="68.9712389 33.0992629 69.2485102 32.5100613 28.6975808 12.0266432 28.3856506 12.6158447"></polygon>
            <polygon id="Shape" fill="#FEBE10" points="82.245603 3.67384489 82.0723084 3.04998443 20.4834182 18.5078601 20.6567128 19.1317205"></polygon>
            <path d="M105.501734,46.0616967 L54.7957431,58.0883399 L56.2860764,58.5735647 L105.536393,46.8935107 C105.467075,46.6162394 105.432416,46.3043091 105.501734,46.0616967 Z" id="Shape" fill="#FEBE10"></path>
            <path d="M106.506843,42.6651232 C106.472184,42.5264875 106.472184,42.4225108 106.472184,42.2838751 L70.0803241,16.7402555 C69.9070296,16.8788911 69.6990761,17.0175268 69.5257815,17.1561624 L106.333548,43.0117123 C106.368207,42.8730766 106.437525,42.7690999 106.506843,42.6651232 Z" id="Shape" fill="#FEBE10"></path>
            <path d="M13.2397052,35.2827745 C7.59030217,35.2134566 2.98066661,39.7191155 2.91134878,45.3685185 C2.84203095,51.0179214 7.34768977,55.627557 12.9970928,55.6968748 C18.6464957,55.7661927 23.2561313,51.2605338 23.3254491,45.6111308 C23.360108,39.9963868 18.8544492,35.3520923 13.2397052,35.2827745 Z" id="Shape" fill="#FEBE10"></path>
            <circle id="Oval" fill="#FEBE10" cx="26.202139" cy="13.1010695" r="9.42722461"></circle>
            <path d="M70.2189598,37.6742395 C67.9661304,37.6395806 66.1292079,35.8026582 66.1638669,33.5151699 C66.1985258,31.2623404 68.0354482,29.425418 70.3229365,29.4600769 C72.575766,29.4947358 74.4126884,31.3316583 74.3780295,33.6191466 C74.3433706,35.9066349 72.4717892,37.7088985 70.2189598,37.6742395 Z" id="Shape" fill="#FEBE10"></path>
            <path d="M63.4258127,18.3692244 L82.245603,3.88179837 C82.0376495,3.77782163 81.829696,3.67384489 81.5870836,3.56986814 L62.9752468,17.8839996 C63.1485413,18.0572942 63.287177,18.1959299 63.4258127,18.3692244 Z" id="Shape" fill="#FEBE10"></path>
            <path d="M63.1138824,24.2612398 C57.3951616,24.191922 52.820185,19.5129686 52.8895028,13.7942478 C52.9588206,8.07552697 57.637774,3.50055032 63.3564948,3.56986814 C69.0752156,3.63918597 73.6501923,8.31813936 73.5808745,14.0368602 C73.5115566,19.755581 68.8326032,24.3305576 63.1138824,24.2612398 Z" id="Shape" fill="#FEBE10"></path>
            <path d="M53.3054098,64.1536498 C49.8741773,64.1189909 47.1014642,61.27696 47.1361231,57.8457275 C47.170782,54.414495 50.0128129,51.6417819 53.4440454,51.6764408 C56.8752779,51.7110997 59.647991,54.5531307 59.6133321,57.9843632 C59.5786732,61.4155956 56.7366422,64.1883088 53.3054098,64.1536498 Z" id="Shape" fill="#FEBE10"></path>
            <circle id="Oval" fill="#FEBE10" cx="82.245603" cy="3.04998443" r="3.04998443"></circle>
            <path d="M13.8982245,60.0985569 C3.56986814,60.0985569 0.311930226,53.8599524 0.311930226,45.541813 C0.311930226,37.4662861 3.84713946,31.019728 13.9328834,31.019728 C23.776015,31.019728 27.3458832,36.9464023 27.3458832,45.541813 C27.3805421,53.7559756 23.9493096,60.0985569 13.8982245,60.0985569 Z M13.8982245,36.0106117 C9.53120136,36.0106117 7.03575955,38.3327589 7.03575955,45.541813 C7.03575955,53.2707508 9.49654244,55.1076733 13.8982245,55.1076733 C18.5078601,55.1076733 20.6567128,52.3349602 20.6567128,45.541813 C20.6567128,38.1941232 18.126612,36.0106117 13.8982245,36.0106117 Z" id="Shape" fill="#292B2C"></path>
            <path d="M44.6753402,59.8906034 L44.6753402,47.2054409 C44.6753402,45.8537432 44.6753402,44.1554565 42.2838751,44.1554565 C40.5162705,44.1554565 39.3725263,46.1656735 38.4020767,48.0372548 L38.4020767,59.8559445 L32.5447203,59.8559445 L32.5447203,44.4673867 C32.5447203,42.8384177 32.1981311,41.5906968 31.9901776,40.308317 L37.4316271,40.308317 L38.2981,42.6997821 C39.1645728,41.902627 40.8282007,39.6497976 43.3929604,39.6497976 C49.3889525,39.6497976 50.5673556,43.0117123 50.5673556,47.5173711 L50.5673556,59.8212856 L44.6753402,59.8212856 L44.6753402,59.8906034 Z" id="Shape" fill="#292B2C"></path>
            <polygon id="Shape" fill="#292B2C" points="56.0088051 59.8906034 56.0088051 31.8168831 61.8661615 31.8168831 61.8661615 59.8906034"></polygon>
            <polygon id="Shape" fill="#292B2C" points="67.3769289 59.8906034 67.3769289 40.3776348 73.1996264 40.3776348 73.1996264 59.8906034"></polygon>
            <path d="M90.8063547,59.8906034 L90.8063547,47.2054409 C90.8063547,45.8537432 90.8063547,44.1554565 88.4148897,44.1554565 C86.647285,44.1554565 85.5035409,46.1656735 84.5330913,48.0372548 L84.5330913,59.8559445 L78.6757348,59.8559445 L78.6757348,44.4673867 C78.6757348,42.8384177 78.3291457,41.5906968 78.1211922,40.308317 L83.5626417,40.308317 L84.4291146,42.6997821 C85.2955874,41.902627 86.9592153,39.6497976 89.5239749,39.6497976 C95.519967,39.6497976 96.6983701,43.0117123 96.6983701,47.5173711 L96.6983701,59.8212856 L90.8063547,59.8212856 L90.8063547,59.8906034 Z" id="Shape" fill="#292B2C"></path>
            <path d="M107.269339,51.988371 C107.789223,54.5877896 109.487509,55.5235803 111.497726,55.5235803 C113.196013,55.5235803 115.483502,54.8997198 117.528377,53.8599524 L119.469277,58.2962934 C117.077812,59.3707197 113.993168,59.8212856 111.185796,59.8212856 C104.635261,59.8212856 101.204029,55.0730144 101.204029,49.6662238 C101.204029,45.1259061 103.283564,39.1299139 110.908525,39.1299139 C118.325532,39.1299139 120.716998,43.0463712 120.716998,51.988371 L107.269339,51.988371 L107.269339,51.988371 Z M110.908525,43.6355727 C110.042052,43.6355727 107.442633,43.8435262 107.303998,47.6906657 L114.824982,47.6906657 C114.513052,44.4327278 112.814765,43.6355727 110.908525,43.6355727 Z" id="Shape" fill="#292B2C"></path>
            <path d="M141.858935,30.222573 C131.946486,30.3612087 126.886284,38.6446891 126.886284,45.3338595 C126.886284,52.8548439 132.986253,59.8906034 142.066889,59.8212856 L142.066889,56.043464 C135.239083,56.1820996 130.802742,50.9486036 130.802742,45.3685185 C130.802742,40.308317 134.476586,34.4163016 141.858935,34.0350536 C150.107757,33.6191466 153.81626,40.3776348 153.053764,45.3685185 C152.152633,51.0872393 149.310602,49.2503168 149.171966,48.5224796 L149.067989,48.3145261 C149.03333,48.1758905 149.03333,48.0025959 149.03333,47.8639603 L149.137307,41.8679681 C149.137307,38.6100302 146.676524,37.1196969 143.245292,37.1196969 C140.888485,37.1196969 138.011796,37.4316271 135.793625,38.1941232 L137.318617,41.8333092 C138.739633,41.1401309 140.888485,40.5509294 142.933361,40.5509294 C144.631648,40.5509294 144.631648,41.7639914 144.631648,42.4571697 L144.631648,42.9423945 L143.487904,42.9423945 C137.145323,42.9423945 135.239083,45.5071541 135.239083,48.5224796 C135.239083,51.2951927 137.041346,52.8895028 141.200416,52.8895028 C142.690749,52.8895028 144.077106,51.7110997 144.90892,51.0525803 C144.90892,51.0179214 145.22085,51.3991695 145.498121,51.7804175 C145.498121,51.7804175 145.498121,51.7804175 145.498121,51.8150765 C145.636757,51.988371 145.775392,52.1963245 145.948687,52.3696191 C145.983346,52.404278 146.018005,52.4389369 146.018005,52.4389369 L146.018005,52.4389369 C149.241284,55.7315337 156.519656,55.2463089 156.935563,45.3338595 C157.282152,38.5060535 153.469671,30.0492785 141.858935,30.222573 Z M144.666307,47.8293013 C144.111764,48.4531618 143.071997,49.4582703 142.136206,49.4582703 C141.165757,49.4582703 139.848718,49.3889525 139.848718,48.3145261 C139.848718,46.8588518 141.027121,46.0963556 143.93847,46.0963556 L144.666307,46.0963556 L144.666307,47.8293013 Z" id="Shape" fill="#292B2C"></path>
            <path d="M12.7198214,46.8588518 L22.9442011,20.4141004 L22.3203406,20.171488 L12.095961,46.6162394 C12.3039145,46.6508983 12.511868,46.754875 12.7198214,46.8588518 Z" id="Shape" fill="#FEBE10"></path>
            <g transform="translate(67.238293, 62.732634)" id="Shape">
                <polygon fill="#FEBE10" points="26.999294 2.87668986 33.445852 2.87668986 38.1941232 18.0919531 43.2543247 2.87668986 49.0423633 2.87668986 41.3827433 23.9146507 34.4163016 23.9146507"></polygon>
                <path d="M61.9008204,9.49654244 C61.6235491,7.38234869 60.1678747,6.58519366 58.5042469,6.58519366 C54.9690376,6.58519366 53.8946113,9.80847267 53.8946113,13.6556121 C53.8946113,14.9379919 53.9292702,20.2408058 58.434929,20.2408058 C61.5195724,20.2408058 61.8315026,17.9879764 61.9701383,17.1908214 L68.0354482,17.1908214 C68.0007893,23.776015 61.3116189,24.3305576 58.5735647,24.3305576 C56.5286888,24.3305576 52.9241617,23.9839685 50.6020145,21.5231856 C48.3145261,19.0624027 47.8986192,15.735147 47.8986192,13.5516354 C47.8986192,10.6749455 48.5571385,7.79825565 50.5326966,5.54542624 C52.6815493,3.08464335 55.4542624,2.4607829 58.5042469,2.4607829 C61.9008204,2.4607829 64.500239,3.25793792 66.1638669,5.02554253 C67.8621536,6.82780606 67.8968126,8.73404633 67.8968126,9.49654244 L61.9008204,9.49654244 Z" fill="#FEBE10"></path>
                <path d="M75.4177969,2.87668986 L75.4177969,15.3538989 C75.4177969,16.4976431 75.5217736,17.6413872 76.0763163,18.542519 C76.8734713,19.7209221 78.2251689,20.2754647 79.6461844,20.2754647 C83.3546882,20.2754647 83.839913,17.2601392 83.839913,15.1806043 L83.839913,2.91134878 L89.5239749,2.91134878 L89.5239749,15.0766276 C89.5239749,17.3987748 89.2120447,19.9288756 87.895006,21.4885267 C85.85013,23.9839685 82.1069673,24.5038522 79.4382309,24.5038522 C69.5257815,24.5038522 69.4911226,18.3345655 69.4911226,14.903333 L69.5257815,2.94600769 L75.4177969,2.94600769 L75.4177969,2.87668986 Z" fill="#FEBE10"></path>
                <path d="M26.5140692,13.4129997 C26.5140692,20.6567128 20.6567128,26.5140692 13.4129997,26.5140692 C6.1692867,26.5140692 0.311930226,20.6567128 0.311930226,13.4129997 C0.311930226,6.1692867 6.1692867,0.311930226 13.4129997,0.311930226 C20.6567128,0.277271312 26.5140692,6.1692867 26.5140692,13.4129997" fill="#FEBE10"></path>
                <path d="M13.4129997,22.9095422 C8.17950371,22.9095422 3.91645728,18.6464957 3.91645728,13.4129997 C3.91645728,8.17950371 8.17950371,3.91645728 13.4129997,3.91645728 C18.6464957,3.91645728 22.9095422,8.17950371 22.9095422,13.4129997 C22.9095422,18.6464957 18.6464957,22.9095422 13.4129997,22.9095422 M13.4129997,0.797155022 C6.44655801,0.797155022 0.797155022,6.44655801 0.797155022,13.4129997 C0.797155022,20.3794414 6.44655801,26.0288444 13.4129997,26.0288444 C20.3794414,26.0288444 26.0288444,20.3794414 26.0288444,13.4129997 C26.0288444,6.44655801 20.3794414,0.797155022 13.4129997,0.797155022" fill="#000000"></path>
                <path d="M6.79314715,22.8402243 C6.72382932,22.8748833 6.68917041,22.9095422 6.65451149,22.9442011 C6.61985258,22.97886 6.61985258,23.0135189 6.61985258,23.0481778 C6.61985258,23.1174957 6.68917041,23.1521546 6.72382932,23.2214724 C6.75848823,23.2561313 6.75848823,23.2907902 6.72382932,23.2907902 C6.68917041,23.3254491 6.68917041,23.3254491 6.65451149,23.2907902 C6.58519366,23.2561313 6.51587584,23.1868135 6.44655801,23.1174957 C6.37724018,23.0828367 6.27326344,23.0481778 6.20394561,23.0135189 C6.1692867,23.0135189 6.1692867,22.97886 6.1692867,22.9442011 C6.20394561,22.9095422 6.23860452,22.9442011 6.30792235,22.9095422 C6.37724018,22.8748833 6.44655801,22.8402243 6.58519366,22.7709065 L7.72893783,22.0084104 C7.86757348,21.9390926 7.86757348,21.9390926 7.9022324,21.9390926 C7.93689131,21.9737515 7.93689131,22.0084104 7.93689131,22.0777282 L7.72893783,23.6027204 C7.69427891,23.7413561 7.76359674,23.776015 7.79825565,23.8453328 C7.83291457,23.8799918 7.83291457,23.8799918 7.83291457,23.9493096 C7.79825565,23.9839685 7.79825565,23.9493096 7.76359674,23.9493096 C7.65962,23.8799918 7.59030217,23.8106739 7.48632543,23.7413561 C7.38234869,23.6720383 7.27837194,23.6373794 7.1743952,23.5680615 C7.1743952,23.5680615 7.10507737,23.5334026 7.13973629,23.4987437 C7.1743952,23.4640848 7.20905412,23.4640848 7.24371303,23.4987437 C7.31303086,23.5334026 7.34768977,23.4987437 7.38234869,23.4294259 C7.4170076,23.394767 7.4170076,23.3254491 7.4170076,23.2907902 L7.55564326,22.4243174 C7.55564326,22.3203406 7.55564326,22.3203406 7.55564326,22.2856817 C7.55564326,22.2856817 7.52098434,22.2856817 7.48632543,22.3203406 L6.79314715,22.8402243 Z" fill="#FFFFFF"></path>
                <path d="M6.51587584,21.3152321 C6.61985258,21.1765965 6.55053475,21.0726197 6.51587584,21.0379608 C6.48121692,21.0033019 6.48121692,21.0033019 6.51587584,20.968643 C6.55053475,20.9339841 6.58519366,20.968643 6.65451149,21.0379608 C6.72382932,21.0726197 6.79314715,21.1765965 6.86246498,21.2459143 C6.9317828,21.3152321 7.03575955,21.349891 7.10507737,21.4192089 C7.13973629,21.4538678 7.1743952,21.4885267 7.13973629,21.5231856 C7.10507737,21.5578445 7.07041846,21.5231856 7.03575955,21.5231856 C6.9317828,21.4885267 6.86246498,21.5578445 6.79314715,21.6271623 L6.06530995,22.4936352 C5.96133321,22.5976119 5.99599213,22.7015887 6.06530995,22.7709065 C6.09996887,22.8055654 6.09996887,22.8055654 6.06530995,22.8402243 C6.03065104,22.8748833 5.99599213,22.8402243 5.9266743,22.7709065 C5.85735647,22.7015887 5.78803864,22.6322709 5.71872081,22.562953 C5.64940299,22.4936352 5.54542624,22.4589763 5.47610841,22.3896585 C5.4414495,22.3549995 5.40679059,22.3549995 5.4414495,22.3203406 C5.47610841,22.2856817 5.51076733,22.3203406 5.54542624,22.3203406 C5.64940299,22.3549995 5.71872081,22.2856817 5.75337973,22.2163639 L6.51587584,21.3152321 Z" fill="#FFFFFF"></path>
                <path d="M5.1988371,21.0726197 C5.23349602,21.0379608 5.26815493,21.0033019 5.16417819,20.8993252 C5.02554253,20.7260306 4.88690688,20.7260306 4.67895339,20.8993252 C4.54031774,21.0033019 4.47099991,21.2112554 4.64429448,21.3845499 C4.74827122,21.4885267 4.78293013,21.4885267 4.85224796,21.4192089 L5.1988371,21.0726197 Z M5.16417819,21.6271623 C5.06020145,21.7311391 5.06020145,21.8351158 5.12951927,21.9044337 C5.16417819,21.9390926 5.16417819,21.9390926 5.12951927,21.9737515 C5.09486036,22.0084104 5.09486036,22.0084104 5.06020145,21.9390926 C5.02554253,21.9044337 4.99088362,21.8351158 4.85224796,21.6964802 C4.74827122,21.5925034 4.60963556,21.4538678 4.54031774,21.3845499 C4.29770534,21.1419376 4.12441077,20.8300073 4.43634099,20.552736 C4.57497665,20.4487593 4.67895339,20.4487593 4.81758905,20.4834182 C4.88690688,20.4834182 4.92156579,20.552736 4.9562247,20.5180771 C4.99088362,20.4834182 5.16417819,19.9288756 5.1988371,19.755581 C5.1988371,19.7209221 5.1988371,19.6862632 5.1988371,19.6862632 C5.16417819,19.6516042 5.16417819,19.6516042 5.12951927,19.6169453 C5.09486036,19.5822864 5.12951927,19.5822864 5.12951927,19.5476275 C5.1988371,19.4783097 5.40679059,19.6862632 5.47610841,19.755581 C5.51076733,19.8248988 5.54542624,19.8942166 5.51076733,20.0328523 L5.30281384,20.6220538 C5.26815493,20.7260306 5.26815493,20.7953484 5.30281384,20.8646662 C5.33747276,20.9339841 5.37213167,20.9339841 5.40679059,20.8993252 L5.71872081,20.6220538 C5.85735647,20.4834182 5.85735647,20.3794414 5.78803864,20.3101236 C5.75337973,20.2754647 5.75337973,20.2754647 5.78803864,20.2408058 C5.82269756,20.2061469 5.82269756,20.2408058 5.9266743,20.3101236 C5.99599213,20.3794414 6.03065104,20.4834182 6.09996887,20.552736 C6.1692867,20.6220538 6.23860452,20.6913717 6.30792235,20.7606895 C6.34258127,20.7953484 6.34258127,20.8300073 6.34258127,20.8300073 C6.30792235,20.8646662 6.27326344,20.8300073 6.23860452,20.8300073 C6.13462778,20.7953484 6.06530995,20.8300073 5.99599213,20.8646662 L5.16417819,21.6271623 Z" fill="#FFFFFF"></path>
                <path d="M4.05509294,18.6811547 C3.91645728,18.7504725 3.9511162,18.8544492 3.98577511,18.958426 C3.98577511,18.9930849 3.98577511,19.0277438 3.9511162,19.0277438 C3.91645728,19.0624027 3.88179837,19.0277438 3.84713946,18.9237671 C3.77782163,18.8197903 3.74316271,18.7504725 3.7085038,18.6464957 C3.67384489,18.542519 3.60452706,18.4732012 3.53520923,18.4038833 C3.50055032,18.3692244 3.50055032,18.3345655 3.53520923,18.3345655 C3.56986814,18.2999066 3.60452706,18.3345655 3.63918597,18.3692244 C3.7085038,18.4385423 3.81248054,18.4038833 3.88179837,18.3692244 L4.1937286,18.1612709 C4.22838751,18.126612 4.60963556,18.4385423 4.78293013,18.7158136 C5.06020145,19.1663795 4.9562247,19.6516042 4.54031774,19.9288756 C4.08975185,20.2061469 3.50055032,20.1021701 3.25793792,19.6516042 C3.08464335,19.3743329 3.08464335,19.1317205 3.08464335,19.0970616 C3.04998443,19.0277438 2.98066661,19.0970616 2.94600769,19.0277438 C2.94600769,18.9930849 2.94600769,18.9930849 2.94600769,18.9930849 L3.223279,18.7851314 C3.25793792,18.7504725 3.29259683,18.7158136 3.32725575,18.7158136 C3.36191466,18.6811547 3.39657357,18.6811547 3.39657357,18.7158136 C3.39657357,18.7504725 3.36191466,18.7851314 3.36191466,18.8197903 C3.15396118,19.2010384 3.223279,19.3743329 3.29259683,19.5476275 C3.50055032,19.8942166 3.84713946,19.8595577 4.1937286,19.6516042 C4.50565882,19.4436508 4.85224796,19.1317205 4.64429448,18.7504725 C4.54031774,18.542519 4.40168208,18.5078601 4.1937286,18.6464957 L4.05509294,18.6811547 Z" fill="#FFFFFF"></path>
                <path d="M3.7085038,17.3641159 C3.84713946,17.2947981 3.84713946,17.1561624 3.81248054,17.0868446 C3.81248054,17.0521857 3.81248054,17.0175268 3.84713946,17.0175268 C3.88179837,17.0175268 3.91645728,17.0868446 3.9511162,17.1215035 C3.98577511,17.1908214 4.02043403,17.2947981 4.05509294,17.3987748 C4.08975185,17.5027516 4.15906968,17.5720694 4.1937286,17.6760461 C4.22838751,17.7107051 4.22838751,17.745364 4.1937286,17.7800229 C4.15906968,17.8146818 4.12441077,17.7800229 4.12441077,17.745364 C4.05509294,17.6760461 3.9511162,17.6760461 3.88179837,17.7107051 L2.84203095,18.1612709 C2.70339529,18.2305888 2.70339529,18.3345655 2.73805421,18.4038833 C2.73805421,18.4385423 2.73805421,18.4732012 2.70339529,18.4732012 C2.66873638,18.5078601 2.63407747,18.4385423 2.59941855,18.3692244 C2.56475964,18.2652477 2.53010072,18.1612709 2.49544181,18.0919531 C2.4607829,17.9879764 2.39146507,17.9186585 2.35680615,17.8146818 C2.35680615,17.7800229 2.32214724,17.745364 2.35680615,17.745364 C2.39146507,17.7107051 2.42612398,17.7800229 2.4607829,17.8146818 C2.53010072,17.8839996 2.63407747,17.8493407 2.70339529,17.8146818 L3.7085038,17.3641159 Z" fill="#FFFFFF"></path>
                <path d="M2.4607829,16.6709376 C2.42612398,16.7402555 2.39146507,16.8095733 2.39146507,16.8095733 C2.39146507,16.8095733 2.39146507,16.8442322 2.4607829,16.8095733 L3.32725575,16.6016198 C3.43123249,16.5669609 3.53520923,16.4976431 3.53520923,16.3936663 C3.53520923,16.3243485 3.50055032,16.2550307 3.56986814,16.2203718 C3.60452706,16.2203718 3.63918597,16.2550307 3.63918597,16.3243485 C3.67384489,16.4283252 3.67384489,16.4976431 3.67384489,16.6016198 C3.7085038,16.7055966 3.74316271,16.7749144 3.74316271,16.8442322 C3.74316271,16.8788911 3.74316271,16.91355 3.7085038,16.91355 C3.67384489,16.91355 3.63918597,16.8788911 3.63918597,16.8788911 C3.53520923,16.7749144 3.4658914,16.7402555 3.32725575,16.7749144 L2.39146507,17.0175268 C2.28748833,17.0521857 2.18351158,17.1215035 2.14885267,17.2254803 C2.11419376,17.329457 2.14885267,17.3641159 2.07953484,17.3641159 C2.04487593,17.3641159 2.04487593,17.3641159 2.04487593,17.329457 C2.01021701,17.2601392 2.01021701,17.1908214 2.01021701,17.1215035 C1.9755581,17.0521857 1.9755581,16.9828679 1.94089919,16.91355 C1.94089919,16.8442322 1.94089919,16.8442322 1.94089919,16.8095733 L2.70339529,15.5965113 C2.73805421,15.5618524 2.73805421,15.4925346 2.73805421,15.4925346 C2.73805421,15.4578757 2.70339529,15.4925346 2.66873638,15.4925346 L2.11419376,15.6311702 C1.94089919,15.6658291 1.80226353,15.735147 1.80226353,15.8737826 C1.80226353,15.9431004 1.80226353,16.0124183 1.76760461,16.0124183 C1.7329457,16.0124183 1.7329457,15.9777594 1.69828679,15.9431004 C1.66362787,15.8737826 1.66362787,15.7698059 1.66362787,15.6658291 C1.62896896,15.5965113 1.59431004,15.4925346 1.59431004,15.4232167 C1.59431004,15.3885578 1.59431004,15.3885578 1.62896896,15.3538989 C1.66362787,15.3538989 1.69828679,15.3538989 1.7329457,15.3885578 C1.83692244,15.4925346 1.90624027,15.5271935 2.04487593,15.4925346 L3.223279,15.1806043 C3.32725575,15.1459454 3.36191466,15.1459454 3.36191466,15.1806043 C3.36191466,15.2152633 3.32725575,15.2845811 3.29259683,15.3538989 L2.4607829,16.6709376 Z" fill="#FFFFFF"></path>
                <path d="M2.94600769,14.2448137 C3.08464335,14.2448137 3.11930226,14.0715191 3.11930226,14.0368602 C3.11930226,14.0022013 3.11930226,13.9675423 3.18862009,13.9675423 C3.223279,13.9675423 3.223279,14.0368602 3.25793792,14.106178 C3.25793792,14.1754958 3.25793792,14.2794726 3.25793792,14.3834493 C3.25793792,14.4874261 3.29259683,14.5914028 3.29259683,14.6953795 C3.29259683,14.7300385 3.29259683,14.7993563 3.25793792,14.7993563 C3.223279,14.7993563 3.18862009,14.7646974 3.18862009,14.7300385 C3.15396118,14.6260617 3.04998443,14.6260617 2.98066661,14.6260617 L1.83692244,14.7300385 C1.66362787,14.7300385 1.62896896,14.8340152 1.66362787,14.9379919 C1.66362787,14.9726509 1.66362787,15.0073098 1.59431004,15.0073098 C1.55965113,15.0073098 1.55965113,14.9379919 1.52499222,14.8686741 C1.52499222,14.7646974 1.52499222,14.6607206 1.52499222,14.5567439 C1.52499222,14.4527671 1.4903333,14.3487904 1.4903333,14.2448137 C1.4903333,14.2101547 1.4903333,14.1754958 1.52499222,14.1754958 C1.55965113,14.1754958 1.59431004,14.2448137 1.59431004,14.2794726 C1.62896896,14.3834493 1.7329457,14.3834493 1.80226353,14.3487904 L2.94600769,14.2448137 Z" fill="#FFFFFF"></path>
                <path d="M2.39146507,13.2743641 C2.42612398,13.309023 2.4607829,13.309023 2.4607829,13.309023 C2.49544181,13.309023 2.49544181,13.2743641 2.49544181,13.2050462 L2.49544181,12.9277749 C2.49544181,12.8584571 2.49544181,12.8237982 2.49544181,12.8237982 C2.49544181,12.8237982 2.42612398,12.8237982 2.39146507,12.8584571 L2.04487593,13.0317517 C2.01021701,13.0317517 2.01021701,13.0664106 1.9755581,13.0664106 C1.9755581,13.0664106 2.01021701,13.1010695 2.04487593,13.1010695 L2.39146507,13.2743641 Z M1.55965113,12.9624338 C1.4903333,12.9277749 1.4903333,12.9277749 1.4903333,12.893116 C1.4903333,12.893116 1.52499222,12.8584571 1.55965113,12.8584571 L2.94600769,12.2692556 C3.04998443,12.2345966 3.15396118,12.1999377 3.18862009,12.095961 C3.223279,12.0266432 3.223279,11.9919843 3.25793792,11.9919843 C3.29259683,11.9919843 3.29259683,12.0266432 3.29259683,12.0613021 C3.29259683,12.1999377 3.25793792,12.3039145 3.25793792,12.4078912 C3.25793792,12.511868 3.25793792,12.6505036 3.25793792,12.7544804 C3.25793792,12.7891393 3.223279,12.7891393 3.223279,12.7891393 C3.18862009,12.7891393 3.18862009,12.7544804 3.18862009,12.7198214 C3.18862009,12.6505036 3.11930226,12.6158447 3.04998443,12.6158447 C2.98066661,12.6158447 2.77271312,12.6851625 2.73805421,12.7198214 C2.70339529,12.7544804 2.70339529,12.7891393 2.70339529,12.9277749 L2.66873638,13.309023 C2.66873638,13.4476586 2.91134878,13.5169765 3.01532552,13.5169765 C3.04998443,13.5169765 3.11930226,13.4476586 3.11930226,13.4129997 C3.15396118,13.3436819 3.15396118,13.2397052 3.223279,13.2397052 C3.25793792,13.2397052 3.25793792,13.2743641 3.25793792,13.309023 C3.25793792,13.4129997 3.223279,13.4823176 3.223279,13.5516354 C3.223279,13.6556121 3.223279,13.72493 3.223279,13.7942478 C3.223279,13.8289067 3.223279,13.8635656 3.18862009,13.8635656 C3.15396118,13.8635656 3.11930226,13.7942478 3.11930226,13.7595889 C3.08464335,13.72493 3.04998443,13.690271 3.01532552,13.6556121 L1.55965113,12.9624338 Z" fill="#FFFFFF"></path>
                <path d="M2.63407747,9.18461222 C2.66873638,9.18461222 2.73805421,9.18461222 2.77271312,9.21927113 C2.80737204,9.21927113 2.84203095,9.25393004 2.80737204,9.28858896 C2.80737204,9.32324787 2.73805421,9.32324787 2.70339529,9.32324787 C2.39146507,9.3925657 2.18351158,9.56586027 2.11419376,9.77381375 C2.01021701,10.085744 2.11419376,10.3630153 2.63407747,10.5363099 C3.01532552,10.6402866 3.43123249,10.5363099 3.53520923,10.1897207 C3.60452706,9.98176724 3.56986814,9.77381375 3.4658914,9.60051918 C3.43123249,9.56586027 3.39657357,9.49654244 3.43123249,9.46188353 C3.43123249,9.46188353 3.4658914,9.42722461 3.4658914,9.46188353 C3.53520923,9.49654244 3.84713946,9.8777905 3.7085038,10.3630153 C3.56986814,10.7789223 3.15396118,11.0908525 2.63407747,10.9522168 C1.9755581,10.7442633 1.87158136,10.2243796 1.9755581,9.80847267 C2.04487593,9.53120136 2.25282941,9.3925657 2.28748833,9.32324787 C2.32214724,9.25393004 2.2181705,9.25393004 2.25282941,9.18461222 C2.25282941,9.1499533 2.28748833,9.1499533 2.28748833,9.1499533 L2.63407747,9.18461222 Z" fill="#FFFFFF"></path>
                <path d="M4.40168208,8.45677502 C4.54031774,8.17950371 4.36702317,7.86757348 4.05509294,7.69427891 C3.74316271,7.52098434 3.15396118,7.45166651 2.98066661,7.79825565 C2.84203095,8.07552697 3.01532552,8.38745719 3.32725575,8.56075176 C3.63918597,8.73404633 4.22838751,8.80336416 4.40168208,8.45677502 M2.91134878,7.65962 C3.15396118,7.20905412 3.63918597,7.00110063 4.12441077,7.27837194 C4.60963556,7.55564326 4.71361231,8.17950371 4.43634099,8.63006959 C4.1937286,9.08063547 3.7085038,9.25393004 3.25793792,9.01131764 C2.77271312,8.73404633 2.66873638,8.11018588 2.91134878,7.65962" fill="#FFFFFF"></path>
                <path d="M4.08975185,6.58519366 C4.02043403,6.51587584 3.88179837,6.44655801 3.81248054,6.48121692 C3.74316271,6.51587584 3.7085038,6.55053475 3.67384489,6.51587584 C3.63918597,6.48121692 3.63918597,6.48121692 3.67384489,6.44655801 C3.7085038,6.37724018 3.77782163,6.34258127 3.84713946,6.27326344 C3.88179837,6.20394561 3.9511162,6.13462778 3.98577511,6.09996887 C4.02043403,6.06530995 4.02043403,6.06530995 4.08975185,6.06530995 L5.1988371,6.37724018 C5.30281384,6.41189909 5.33747276,6.41189909 5.37213167,6.41189909 C5.37213167,6.41189909 5.37213167,6.34258127 5.33747276,6.30792235 L4.88690688,5.1988371 C4.85224796,5.16417819 4.85224796,5.12951927 4.88690688,5.12951927 C4.92156579,5.06020145 4.99088362,5.02554253 5.06020145,4.9562247 C5.09486036,4.88690688 5.16417819,4.81758905 5.1988371,4.78293013 C5.1988371,4.78293013 5.23349602,4.78293013 5.23349602,4.78293013 C5.26815493,4.81758905 5.23349602,4.85224796 5.1988371,4.92156579 C5.16417819,5.02554253 5.16417819,5.06020145 5.26815493,5.16417819 L5.96133321,5.75337973 C6.13462778,5.89201538 6.23860452,5.96133321 6.41189909,5.85735647 C6.44655801,5.82269756 6.48121692,5.82269756 6.51587584,5.85735647 C6.55053475,5.89201538 6.51587584,5.9266743 6.48121692,5.96133321 C6.41189909,6.03065104 6.34258127,6.09996887 6.27326344,6.1692867 C6.20394561,6.23860452 6.13462778,6.34258127 6.09996887,6.41189909 C6.06530995,6.44655801 6.03065104,6.48121692 5.99599213,6.44655801 C5.96133321,6.41189909 5.96133321,6.37724018 5.99599213,6.34258127 C6.03065104,6.27326344 5.99599213,6.23860452 5.89201538,6.13462778 L5.26815493,5.61474407 C5.23349602,5.61474407 5.1988371,5.58008516 5.1988371,5.58008516 C5.1988371,5.58008516 5.1988371,5.61474407 5.23349602,5.6840619 L5.6840619,6.75848823 C5.6840619,6.79314715 5.71872081,6.82780606 5.6840619,6.86246498 C5.64940299,6.89712389 5.64940299,6.86246498 5.61474407,6.86246498 L4.47099991,6.55053475 C4.43634099,6.55053475 4.40168208,6.51587584 4.40168208,6.55053475 C4.40168208,6.55053475 4.40168208,6.58519366 4.43634099,6.58519366 L4.9562247,7.03575955 C5.06020145,7.13973629 5.1988371,7.20905412 5.37213167,7.10507737 C5.40679059,7.07041846 5.4414495,7.07041846 5.47610841,7.10507737 C5.51076733,7.13973629 5.47610841,7.1743952 5.47610841,7.1743952 C5.40679059,7.24371303 5.33747276,7.31303086 5.30281384,7.34768977 C5.23349602,7.4170076 5.1988371,7.48632543 5.12951927,7.55564326 C5.12951927,7.59030217 5.09486036,7.59030217 5.06020145,7.55564326 C5.02554253,7.52098434 5.02554253,7.48632543 5.06020145,7.45166651 C5.09486036,7.31303086 5.06020145,7.24371303 4.9562247,7.13973629 L4.08975185,6.58519366 Z" fill="#FFFFFF"></path>
                <path d="M5.96133321,4.57497665 C5.89201538,4.50565882 5.78803864,4.40168208 5.6840619,4.40168208 C5.58008516,4.43634099 5.54542624,4.43634099 5.54542624,4.40168208 C5.51076733,4.36702317 5.54542624,4.36702317 5.54542624,4.36702317 C5.61474407,4.33236425 5.6840619,4.29770534 5.71872081,4.22838751 C5.78803864,4.1937286 5.82269756,4.12441077 5.89201538,4.08975185 C5.9266743,4.05509294 5.96133321,4.05509294 5.99599213,4.05509294 L7.00110063,4.60963556 C7.10507737,4.67895339 7.13973629,4.67895339 7.13973629,4.67895339 C7.13973629,4.67895339 7.13973629,4.60963556 7.13973629,4.57497665 L6.96644172,3.39657357 C6.96644172,3.32725575 6.96644172,3.32725575 6.96644172,3.32725575 C7.03575955,3.29259683 7.10507737,3.25793792 7.1743952,3.18862009 C7.24371303,3.15396118 7.27837194,3.08464335 7.34768977,3.04998443 C7.34768977,3.04998443 7.38234869,3.04998443 7.38234869,3.08464335 C7.4170076,3.11930226 7.38234869,3.15396118 7.34768977,3.223279 C7.27837194,3.29259683 7.27837194,3.36191466 7.34768977,3.4658914 L7.86757348,4.1937286 C8.00620914,4.36702317 8.07552697,4.47099991 8.28348045,4.40168208 C8.35279828,4.40168208 8.35279828,4.40168208 8.38745719,4.43634099 C8.42211611,4.47099991 8.38745719,4.50565882 8.31813936,4.54031774 C8.21416262,4.57497665 8.14484479,4.64429448 8.07552697,4.71361231 C8.00620914,4.78293013 7.9022324,4.85224796 7.83291457,4.92156579 C7.79825565,4.9562247 7.76359674,4.99088362 7.72893783,4.9562247 C7.69427891,4.92156579 7.72893783,4.88690688 7.72893783,4.85224796 C7.76359674,4.78293013 7.72893783,4.74827122 7.65962,4.64429448 L7.1743952,3.98577511 C7.1743952,3.9511162 7.13973629,3.91645728 7.13973629,3.91645728 C7.13973629,3.91645728 7.13973629,3.9511162 7.13973629,4.05509294 L7.34768977,5.1988371 C7.34768977,5.23349602 7.34768977,5.26815493 7.31303086,5.30281384 C7.27837194,5.30281384 7.27837194,5.30281384 7.24371303,5.30281384 L6.20394561,4.71361231 C6.1692867,4.67895339 6.13462778,4.67895339 6.13462778,4.67895339 C6.13462778,4.67895339 6.13462778,4.71361231 6.1692867,4.74827122 L6.55053475,5.30281384 C6.65451149,5.4414495 6.75848823,5.51076733 6.9317828,5.47610841 C6.96644172,5.47610841 7.00110063,5.47610841 7.03575955,5.51076733 C7.07041846,5.54542624 7.03575955,5.58008516 7.00110063,5.58008516 C6.9317828,5.61474407 6.82780606,5.64940299 6.75848823,5.71872081 C6.68917041,5.78803864 6.61985258,5.85735647 6.55053475,5.89201538 C6.51587584,5.9266743 6.51587584,5.9266743 6.48121692,5.89201538 C6.44655801,5.85735647 6.48121692,5.82269756 6.48121692,5.78803864 C6.55053475,5.64940299 6.51587584,5.58008516 6.44655801,5.47610841 L5.96133321,4.57497665 Z" fill="#FFFFFF"></path>
                <path d="M9.46188353,3.91645728 C9.73915484,3.81248054 9.80847267,3.43123249 9.66983701,3.08464335 C9.53120136,2.77271312 9.11529439,2.32214724 8.76870525,2.49544181 C8.49143393,2.59941855 8.42211611,2.98066661 8.56075176,3.32725575 C8.6647285,3.67384489 9.08063547,4.08975185 9.46188353,3.91645728 M8.80336416,2.35680615 C9.28858896,2.14885267 9.77381375,2.32214724 9.98176724,2.80737204 C10.1897207,3.32725575 9.8777905,3.88179837 9.3925657,4.05509294 C8.9073409,4.26304642 8.42211611,4.08975185 8.21416262,3.60452706 C8.00620914,3.15396118 8.31813936,2.56475964 8.80336416,2.35680615" fill="#FFFFFF"></path>
                <path d="M10.6402866,2.32214724 C10.5709688,2.28748833 10.5016509,2.25282941 10.5016509,2.25282941 C10.5016509,2.25282941 10.466992,2.25282941 10.5016509,2.32214724 L10.6749455,3.223279 C10.7096044,3.36191466 10.7442633,3.43123249 10.882899,3.43123249 C10.9522168,3.43123249 11.0215347,3.43123249 11.0561936,3.4658914 C11.0561936,3.50055032 11.0215347,3.53520923 10.9522168,3.53520923 C10.8482401,3.53520923 10.7789223,3.53520923 10.6749455,3.56986814 C10.5709688,3.60452706 10.5016509,3.63918597 10.4323331,3.63918597 C10.3976742,3.63918597 10.3976742,3.63918597 10.3630153,3.60452706 C10.3630153,3.56986814 10.3976742,3.53520923 10.4323331,3.50055032 C10.5363099,3.39657357 10.5709688,3.32725575 10.5363099,3.18862009 L10.3283564,2.25282941 C10.2936975,2.14885267 10.2590385,2.04487593 10.1550618,2.01021701 C10.0510851,1.9755581 10.0164262,1.9755581 10.0164262,1.94089919 C10.0164262,1.90624027 10.0164262,1.90624027 10.0510851,1.90624027 C10.1204029,1.90624027 10.1897207,1.87158136 10.2936975,1.87158136 C10.3630153,1.87158136 10.4323331,1.83692244 10.5016509,1.80226353 C10.5709688,1.80226353 10.5709688,1.80226353 10.6056277,1.80226353 L11.7840308,2.59941855 C11.8186897,2.63407747 11.8533486,2.66873638 11.8880075,2.63407747 C11.9226664,2.63407747 11.8880075,2.59941855 11.8880075,2.56475964 L11.7840308,2.01021701 C11.7493719,1.83692244 11.7147129,1.69828679 11.5414184,1.69828679 C11.4721005,1.69828679 11.4027827,1.69828679 11.4027827,1.66362787 C11.4027827,1.62896896 11.4374416,1.62896896 11.4721005,1.59431004 C11.5414184,1.59431004 11.6453951,1.59431004 11.7493719,1.55965113 C11.8186897,1.52499222 11.9226664,1.4903333 11.9919843,1.4903333 C12.0266432,1.4903333 12.0613021,1.4903333 12.0613021,1.52499222 C12.0613021,1.55965113 12.0266432,1.59431004 11.9919843,1.59431004 C11.8880075,1.69828679 11.8533486,1.76760461 11.8880075,1.90624027 L12.1306199,3.08464335 C12.1652788,3.18862009 12.1652788,3.223279 12.1306199,3.223279 C12.095961,3.223279 12.0266432,3.18862009 11.9573253,3.11930226 L10.6402866,2.32214724 Z" fill="#FFFFFF"></path>
                <path d="M12.4425501,1.69828679 C12.4078912,1.62896896 12.3732323,1.59431004 12.3385734,1.55965113 C12.3039145,1.52499222 12.2692556,1.52499222 12.2692556,1.4903333 C12.2692556,1.45567439 12.3039145,1.45567439 12.3385734,1.45567439 C12.4425501,1.45567439 12.5465269,1.4903333 12.6505036,1.4903333 C12.7544804,1.4903333 12.8584571,1.45567439 12.9624338,1.45567439 C12.9970928,1.45567439 13.0317517,1.45567439 13.0317517,1.4903333 C13.0317517,1.52499222 12.9970928,1.52499222 12.9624338,1.55965113 C12.893116,1.59431004 12.893116,1.62896896 12.893116,1.66362787 C12.893116,1.69828679 12.9277749,1.7329457 12.9624338,1.83692244 L13.2397052,2.66873638 C13.2397052,2.70339529 13.2397052,2.70339529 13.2743641,2.70339529 C13.2743641,2.70339529 13.309023,2.66873638 13.309023,2.63407747 L13.5862943,2.07953484 L13.4476586,1.66362787 C13.4129997,1.59431004 13.3783408,1.55965113 13.3436819,1.52499222 C13.309023,1.52499222 13.2743641,1.4903333 13.2743641,1.45567439 C13.2743641,1.42101547 13.309023,1.42101547 13.3436819,1.42101547 C13.4476586,1.42101547 13.5516354,1.45567439 13.6556121,1.45567439 C13.7595889,1.45567439 13.8635656,1.45567439 13.9675423,1.45567439 C14.0022013,1.45567439 14.0368602,1.45567439 14.0368602,1.4903333 C14.0368602,1.52499222 14.0022013,1.52499222 13.9675423,1.55965113 C13.8982245,1.59431004 13.8982245,1.62896896 13.8982245,1.66362787 C13.8982245,1.69828679 13.9328834,1.80226353 13.9675423,1.83692244 L14.2448137,2.59941855 C14.2448137,2.63407747 14.2448137,2.63407747 14.2794726,2.63407747 C14.3141315,2.63407747 14.3141315,2.59941855 14.3141315,2.53010072 L14.5567439,1.87158136 C14.5914028,1.80226353 14.5914028,1.7329457 14.5914028,1.66362787 C14.5914028,1.55965113 14.4527671,1.55965113 14.3834493,1.52499222 C14.3487904,1.4903333 14.3141315,1.4903333 14.3141315,1.45567439 C14.3141315,1.42101547 14.3487904,1.42101547 14.3834493,1.42101547 C14.4874261,1.42101547 14.5567439,1.45567439 14.6260617,1.45567439 C14.6953795,1.45567439 14.7993563,1.42101547 14.8686741,1.42101547 C14.903333,1.42101547 14.9379919,1.42101547 14.9379919,1.45567439 C14.9379919,1.4903333 14.8686741,1.4903333 14.8340152,1.55965113 C14.7646974,1.62896896 14.7646974,1.66362787 14.6953795,1.83692244 L14.2101547,3.04998443 C14.1408369,3.18862009 14.1408369,3.18862009 14.106178,3.18862009 C14.0715191,3.18862009 14.0368602,3.18862009 14.0368602,3.08464335 L13.7595889,2.28748833 C13.7595889,2.25282941 13.72493,2.2181705 13.72493,2.2181705 C13.72493,2.2181705 13.690271,2.25282941 13.690271,2.28748833 L13.309023,3.04998443 C13.2397052,3.18862009 13.2397052,3.18862009 13.2050462,3.18862009 C13.1703873,3.18862009 13.1703873,3.18862009 13.1357284,3.08464335 L12.4425501,1.69828679 Z" fill="#FFFFFF"></path>
                <path d="M15.2499222,2.04487593 C15.2845811,1.94089919 15.2845811,1.7329457 15.2152633,1.69828679 C15.1459454,1.66362787 15.0766276,1.62896896 15.1112865,1.59431004 C15.1112865,1.55965113 15.1459454,1.55965113 15.2152633,1.55965113 C15.3885578,1.62896896 15.5965113,1.66362787 15.7698059,1.69828679 C15.9431004,1.7329457 16.1510539,1.76760461 16.3590074,1.80226353 C16.4283252,1.80226353 16.4629842,1.83692244 16.4629842,1.87158136 C16.4629842,1.90624027 16.4283252,1.9755581 16.4283252,2.04487593 C16.4283252,2.11419376 16.4283252,2.14885267 16.3936663,2.2181705 C16.3936663,2.25282941 16.3936663,2.25282941 16.3243485,2.25282941 C16.2896896,2.25282941 16.2896896,2.18351158 16.2896896,2.18351158 C16.2896896,2.01021701 16.2550307,1.94089919 15.9431004,1.87158136 L15.7698059,1.83692244 C15.7004881,1.83692244 15.6658291,1.83692244 15.6658291,1.94089919 L15.5618524,2.35680615 C15.5618524,2.39146507 15.5965113,2.42612398 15.7004881,2.42612398 C15.8391237,2.4607829 15.9777594,2.42612398 16.0124183,2.32214724 C16.0470772,2.25282941 16.0817361,2.25282941 16.0817361,2.25282941 C16.116395,2.25282941 16.116395,2.28748833 16.116395,2.32214724 C16.116395,2.39146507 16.0817361,2.4607829 16.0470772,2.53010072 C16.0470772,2.59941855 16.0124183,2.66873638 16.0124183,2.73805421 C16.0124183,2.77271312 16.0124183,2.80737204 15.9431004,2.80737204 C15.9084415,2.80737204 15.9084415,2.73805421 15.9084415,2.66873638 C15.8737826,2.56475964 15.8044648,2.53010072 15.6658291,2.49544181 C15.5618524,2.4607829 15.5271935,2.49544181 15.4925346,2.56475964 L15.3885578,2.98066661 C15.3538989,3.15396118 15.3885578,3.18862009 15.4925346,3.223279 C15.7698059,3.29259683 15.9084415,3.223279 16.0124183,3.15396118 C16.116395,3.08464335 16.1510539,3.01532552 16.1857128,3.01532552 C16.2203718,3.01532552 16.2203718,3.04998443 16.2203718,3.08464335 C16.2203718,3.15396118 16.1857128,3.223279 16.1510539,3.29259683 C16.0817361,3.39657357 15.9777594,3.4658914 15.8391237,3.4658914 C15.6658291,3.43123249 15.5271935,3.36191466 15.3538989,3.32725575 C15.1806043,3.29259683 15.0073098,3.29259683 14.8686741,3.25793792 C14.7993563,3.25793792 14.7646974,3.223279 14.7646974,3.18862009 C14.7646974,3.15396118 14.8340152,3.15396118 14.8686741,3.11930226 C14.9726509,3.08464335 14.9726509,3.04998443 15.0073098,2.91134878 L15.2499222,2.04487593 Z" fill="#FFFFFF"></path>
                <path d="M17.1561624,3.04998443 C17.1215035,3.08464335 17.1215035,3.08464335 17.1215035,3.08464335 C17.1215035,3.11930226 17.1561624,3.11930226 17.2254803,3.15396118 L17.4680927,3.25793792 C17.5374105,3.29259683 17.5720694,3.29259683 17.5720694,3.29259683 C17.5720694,3.29259683 17.5720694,3.223279 17.5720694,3.18862009 L17.5374105,2.80737204 C17.5374105,2.77271312 17.5374105,2.73805421 17.5027516,2.73805421 C17.5027516,2.73805421 17.4334338,2.77271312 17.4334338,2.77271312 L17.1561624,3.04998443 Z M17.745364,2.35680615 C17.8146818,2.32214724 17.8146818,2.28748833 17.8493407,2.28748833 C17.8493407,2.28748833 17.8493407,2.32214724 17.8493407,2.35680615 L17.9186585,3.88179837 C17.9186585,3.98577511 17.9186585,4.12441077 17.9879764,4.15906968 C18.0572942,4.1937286 18.0919531,4.22838751 18.0572942,4.26304642 C18.0572942,4.29770534 18.0226353,4.29770534 17.9879764,4.26304642 C17.8839996,4.22838751 17.7800229,4.15906968 17.6760461,4.12441077 C17.5720694,4.08975185 17.4680927,4.05509294 17.329457,4.02043403 C17.2947981,4.02043403 17.2947981,3.98577511 17.2947981,3.9511162 C17.2947981,3.91645728 17.329457,3.91645728 17.3641159,3.91645728 C17.4334338,3.91645728 17.5027516,3.88179837 17.5027516,3.81248054 C17.5374105,3.74316271 17.5374105,3.53520923 17.5027516,3.4658914 C17.4680927,3.43123249 17.4334338,3.39657357 17.329457,3.36191466 L16.9828679,3.223279 C16.8788911,3.18862009 16.7055966,3.39657357 16.6709376,3.50055032 C16.6709376,3.53520923 16.7055966,3.60452706 16.7402555,3.63918597 C16.8095733,3.67384489 16.8788911,3.74316271 16.8788911,3.77782163 C16.8788911,3.81248054 16.8442322,3.81248054 16.8095733,3.77782163 C16.7402555,3.74316271 16.6709376,3.7085038 16.5669609,3.67384489 C16.4976431,3.63918597 16.3936663,3.63918597 16.3243485,3.60452706 C16.2896896,3.60452706 16.2550307,3.56986814 16.2896896,3.53520923 C16.2896896,3.50055032 16.3590074,3.50055032 16.3936663,3.50055032 C16.4283252,3.50055032 16.4629842,3.4658914 16.4976431,3.43123249 L17.745364,2.35680615 Z" fill="#FFFFFF"></path>
                <path d="M19.0624027,3.25793792 C19.1317205,3.11930226 19.0970616,3.01532552 18.9930849,2.98066661 C18.958426,2.98066661 18.958426,2.94600769 18.9930849,2.91134878 C18.9930849,2.87668986 19.0277438,2.87668986 19.0624027,2.91134878 C19.1663795,2.98066661 19.2703562,3.04998443 19.3743329,3.11930226 C19.4783097,3.18862009 19.5822864,3.223279 19.6862632,3.29259683 C19.7209221,3.32725575 19.755581,3.32725575 19.7209221,3.36191466 C19.6862632,3.39657357 19.6516042,3.39657357 19.6169453,3.39657357 C19.5129686,3.36191466 19.4436508,3.43123249 19.4089919,3.50055032 L18.8197903,4.43634099 C18.7158136,4.60963556 18.7158136,4.64429448 18.8544492,4.71361231 C19.0624027,4.85224796 19.2356973,4.85224796 19.3743329,4.85224796 C19.4783097,4.81758905 19.5476275,4.78293013 19.6169453,4.78293013 C19.6516042,4.81758905 19.6516042,4.85224796 19.6169453,4.88690688 C19.5129686,5.06020145 19.2356973,5.09486036 19.0970616,4.99088362 C18.958426,4.92156579 18.6811547,4.71361231 18.5078601,4.60963556 C18.4385423,4.57497665 18.3345655,4.54031774 18.2652477,4.47099991 C18.2305888,4.43634099 18.1612709,4.40168208 18.1959299,4.36702317 C18.2305888,4.33236425 18.2652477,4.33236425 18.3345655,4.33236425 C18.4385423,4.33236425 18.5078601,4.26304642 18.542519,4.1937286 L19.0624027,3.25793792 Z" fill="#FFFFFF"></path>
                <path d="M20.6913717,4.26304642 C20.7606895,4.1937286 20.7260306,4.12441077 20.6220538,4.05509294 C20.4487593,3.88179837 20.3447825,3.84713946 20.136829,3.98577511 C20.136829,3.98577511 20.1021701,3.98577511 20.1021701,3.98577511 C20.0675112,3.9511162 20.0675112,3.9511162 20.1021701,3.91645728 C20.1021701,3.91645728 20.136829,3.88179837 20.171488,3.84713946 L20.3447825,3.67384489 C20.3794414,3.63918597 20.3794414,3.63918597 20.4487593,3.67384489 C20.6567128,3.84713946 20.8300073,4.02043403 21.0379608,4.1937286 C21.2459143,4.36702317 21.4538678,4.50565882 21.6618213,4.67895339 C21.6964802,4.71361231 21.6964802,4.74827122 21.6618213,4.81758905 L21.5231856,5.02554253 C21.5231856,5.06020145 21.4885267,5.06020145 21.4885267,5.06020145 C21.4885267,5.06020145 21.4538678,5.06020145 21.4538678,5.06020145 C21.4192089,5.02554253 21.4192089,5.02554253 21.4192089,5.02554253 C21.5231856,4.78293013 21.4538678,4.71361231 21.2805732,4.54031774 C21.1765965,4.43634099 21.1072786,4.43634099 21.0726197,4.50565882 L20.3101236,5.40679059 C20.171488,5.54542624 20.3101236,5.6840619 20.3447825,5.75337973 C20.3447825,5.78803864 20.3794414,5.82269756 20.3447825,5.85735647 C20.3101236,5.89201538 20.3101236,5.85735647 20.2754647,5.85735647 C20.171488,5.75337973 20.0675112,5.64940299 19.9288756,5.54542624 C19.8248988,5.4414495 19.6862632,5.37213167 19.5476275,5.26815493 C19.5129686,5.23349602 19.5129686,5.23349602 19.5129686,5.1988371 C19.5476275,5.16417819 19.5822864,5.1988371 19.6169453,5.1988371 C19.7209221,5.23349602 19.8248988,5.33747276 19.9635345,5.1988371 L20.6913717,4.26304642 Z" fill="#FFFFFF"></path>
                <path d="M22.181705,6.44655801 C22.2510228,6.51587584 22.2856817,6.51587584 22.3203406,6.48121692 L22.5976119,6.27326344 C22.7015887,6.1692867 22.7015887,6.06530995 22.6322709,5.99599213 C22.5976119,5.96133321 22.5976119,5.96133321 22.6322709,5.9266743 C22.6669298,5.89201538 22.7015887,5.96133321 22.7709065,6.03065104 C22.8402243,6.09996887 22.8748833,6.20394561 22.9442011,6.27326344 C23.0135189,6.34258127 23.0828367,6.41189909 23.1521546,6.48121692 C23.1868135,6.51587584 23.1868135,6.55053475 23.1521546,6.55053475 C23.1174957,6.58519366 23.0828367,6.55053475 23.0481778,6.55053475 C22.97886,6.51587584 22.8748833,6.51587584 22.8055654,6.58519366 L21.9390926,7.31303086 C21.8351158,7.4170076 21.8351158,7.52098434 21.9044337,7.59030217 C21.9390926,7.62496108 21.9390926,7.65962 21.9044337,7.65962 C21.8697747,7.69427891 21.8351158,7.62496108 21.765798,7.59030217 C21.6964802,7.52098434 21.6618213,7.4170076 21.5925034,7.34768977 C21.5231856,7.27837194 21.4538678,7.20905412 21.3845499,7.13973629 C21.349891,7.10507737 21.349891,7.07041846 21.3845499,7.07041846 C21.4192089,7.03575955 21.4538678,7.07041846 21.4885267,7.07041846 C21.5578445,7.13973629 21.6618213,7.10507737 21.7311391,7.03575955 L22.1123871,6.72382932 C22.181705,6.65451149 22.181705,6.65451149 22.1123871,6.58519366 L21.7311391,6.09996887 C21.6964802,6.06530995 21.6618213,6.09996887 21.6271623,6.09996887 L21.2459143,6.41189909 C21.1419376,6.51587584 21.1419376,6.61985258 21.2112554,6.68917041 C21.2459143,6.72382932 21.2459143,6.75848823 21.2112554,6.75848823 C21.1765965,6.79314715 21.1419376,6.72382932 21.0726197,6.65451149 C21.0033019,6.58519366 20.968643,6.48121692 20.8993252,6.41189909 C20.8300073,6.34258127 20.7606895,6.27326344 20.6913717,6.20394561 C20.6567128,6.1692867 20.6567128,6.13462778 20.6913717,6.13462778 C20.7260306,6.09996887 20.7606895,6.13462778 20.7953484,6.13462778 C20.8646662,6.20394561 20.968643,6.1692867 21.0379608,6.09996887 L21.9044337,5.37213167 C22.0084104,5.26815493 22.0084104,5.16417819 21.9390926,5.09486036 C21.9044337,5.06020145 21.9044337,5.02554253 21.9390926,5.02554253 C21.9737515,4.99088362 22.0084104,5.06020145 22.0777282,5.12951927 C22.1470461,5.1988371 22.181705,5.30281384 22.2510228,5.37213167 C22.3203406,5.4414495 22.3896585,5.51076733 22.4589763,5.58008516 C22.4936352,5.61474407 22.4936352,5.64940299 22.4589763,5.64940299 C22.4243174,5.6840619 22.3896585,5.64940299 22.3549995,5.64940299 C22.2856817,5.58008516 22.181705,5.64940299 22.1123871,5.6840619 L21.8351158,5.89201538 C21.8004569,5.9266743 21.8004569,5.96133321 21.8351158,6.03065104 L22.181705,6.44655801 Z" fill="#FFFFFF"></path>
                <path d="M23.7413561,8.00620914 C23.8799918,7.93689131 23.9146507,7.83291457 23.8453328,7.76359674 C23.8453328,7.72893783 23.8453328,7.69427891 23.8799918,7.69427891 C23.9146507,7.69427891 23.9493096,7.69427891 23.9839685,7.79825565 C24.0186274,7.9022324 24.0532863,8.00620914 24.0879452,8.07552697 C24.1226042,8.17950371 24.191922,8.24882154 24.2265809,8.35279828 C24.2612398,8.42211611 24.2265809,8.42211611 24.2265809,8.42211611 C24.191922,8.42211611 24.1572631,8.42211611 24.1572631,8.38745719 C24.0879452,8.31813936 23.9839685,8.31813936 23.9146507,8.35279828 L23.1868135,8.6647285 C22.9095422,8.76870525 22.8055654,9.04597656 22.9095422,9.32324787 C23.0828367,9.73915484 23.4640848,9.70449593 23.7413561,9.56586027 L24.3305576,9.32324787 C24.4345344,9.25393004 24.5038522,9.18461222 24.4345344,9.04597656 C24.4345344,9.01131764 24.4345344,8.97665873 24.4691933,8.94199982 C24.5038522,8.94199982 24.5038522,8.94199982 24.5385111,9.01131764 C24.57317,9.08063547 24.57317,9.1499533 24.607829,9.21927113 C24.6424879,9.28858896 24.6771468,9.35790679 24.7118057,9.42722461 C24.7464646,9.46188353 24.7118057,9.49654244 24.7118057,9.49654244 C24.6771468,9.53120136 24.6424879,9.46188353 24.607829,9.42722461 C24.5385111,9.3925657 24.5038522,9.3925657 24.2958987,9.46188353 L23.8106739,9.66983701 C23.2907902,9.8777905 22.9095422,9.73915484 22.7015887,9.21927113 C22.5282941,8.80336416 22.5976119,8.45677502 23.0135189,8.28348045 L23.7413561,8.00620914 Z" fill="#FFFFFF"></path>
                <path d="M24.4691933,10.466992 C24.5038522,10.3976742 24.5385111,10.3283564 24.5385111,10.3283564 C24.5385111,10.3283564 24.5385111,10.2936975 24.4691933,10.3283564 L23.6027204,10.5363099 C23.4640848,10.5709688 23.394767,10.6402866 23.394767,10.7442633 C23.394767,10.8135812 23.394767,10.882899 23.360108,10.9175579 C23.3254491,10.9175579 23.2907902,10.882899 23.2907902,10.8135812 C23.2561313,10.7096044 23.2561313,10.6402866 23.2561313,10.5363099 C23.2214724,10.4323331 23.1868135,10.3630153 23.1868135,10.2936975 C23.1868135,10.2590385 23.1868135,10.2243796 23.2214724,10.2243796 C23.2561313,10.2243796 23.2907902,10.2243796 23.2907902,10.2590385 C23.394767,10.3630153 23.4640848,10.3976742 23.6027204,10.3630153 L24.5385111,10.1550618 C24.6424879,10.1550618 24.7464646,10.0510851 24.7811235,9.98176724 C24.8157824,9.8777905 24.8157824,9.84313158 24.8504414,9.84313158 C24.8851003,9.84313158 24.8851003,9.84313158 24.8851003,9.8777905 C24.8851003,9.94710832 24.9197592,10.0164262 24.9197592,10.085744 C24.9197592,10.1550618 24.9544181,10.2243796 24.989077,10.2936975 C24.989077,10.3283564 24.989077,10.3630153 24.989077,10.3976742 L24.191922,11.5760773 C24.1572631,11.6107362 24.1572631,11.6453951 24.1572631,11.680054 C24.1572631,11.7147129 24.191922,11.680054 24.2265809,11.680054 L24.7811235,11.5414184 C24.9544181,11.5067595 25.0930537,11.4721005 25.0930537,11.298806 C25.0930537,11.2294881 25.0930537,11.1601703 25.1277127,11.1601703 C25.1623716,11.1601703 25.1623716,11.1948292 25.1970305,11.2294881 C25.2316894,11.3334649 25.2316894,11.4027827 25.2316894,11.5067595 C25.2663483,11.6107362 25.3010072,11.680054 25.3010072,11.7493719 C25.3010072,11.7840308 25.3010072,11.7840308 25.2663483,11.8186897 C25.2316894,11.8186897 25.1970305,11.7840308 25.1970305,11.7840308 C25.0930537,11.680054 25.0237359,11.6453951 24.8851003,11.680054 L23.7066972,11.9226664 C23.6027204,11.9573253 23.5680615,11.9573253 23.5680615,11.9226664 C23.5680615,11.8880075 23.6027204,11.8186897 23.6720383,11.7493719 L24.4691933,10.466992 Z" fill="#FFFFFF"></path>
                <path d="M23.8799918,12.893116 C23.7066972,12.893116 23.6720383,13.0317517 23.6720383,13.1010695 C23.6720383,13.1357284 23.6720383,13.1703873 23.6027204,13.1703873 C23.5680615,13.1703873 23.5680615,13.1010695 23.5680615,13.0317517 C23.5680615,12.9624338 23.5680615,12.8584571 23.5680615,12.7544804 C23.5680615,12.6505036 23.5334026,12.5465269 23.5334026,12.4425501 C23.5334026,12.4078912 23.5334026,12.3732323 23.5680615,12.3385734 C23.6027204,12.3385734 23.6373794,12.3732323 23.6373794,12.4078912 C23.6720383,12.511868 23.776015,12.511868 23.8453328,12.511868 L24.989077,12.4425501 C25.1277127,12.4425501 25.1970305,12.3385734 25.1970305,12.2345966 C25.1970305,12.1999377 25.1970305,12.1652788 25.2663483,12.1652788 C25.3010072,12.1652788 25.3010072,12.2345966 25.3010072,12.3039145 C25.3010072,12.4078912 25.3010072,12.511868 25.3010072,12.6158447 C25.3010072,12.7198214 25.3356661,12.8237982 25.3356661,12.9277749 C25.3356661,12.9624338 25.3356661,12.9970928 25.3010072,12.9970928 C25.2663483,12.9970928 25.2316894,12.9277749 25.2316894,12.893116 C25.1970305,12.7891393 25.0930537,12.7891393 25.0237359,12.8237982 L23.8799918,12.893116 Z" fill="#FFFFFF"></path>
                <path d="M24.8504414,14.7646974 C24.9197592,14.7993563 24.9544181,14.8340152 24.989077,14.8340152 C25.0237359,14.8340152 25.0583948,14.8340152 25.0930537,14.7993563 C25.1277127,14.7646974 25.1277127,14.6953795 25.1970305,14.6260617 C25.2316894,14.5914028 25.2316894,14.5567439 25.2663483,14.5567439 C25.3010072,14.5567439 25.3010072,14.5914028 25.3010072,14.6260617 C25.3010072,14.6953795 25.2663483,14.7993563 25.2663483,14.8686741 C25.2663483,14.9726509 25.2663483,15.0419687 25.2663483,15.1459454 C25.2663483,15.1806043 25.2663483,15.2152633 25.2316894,15.2152633 C25.1970305,15.2152633 25.1970305,15.1459454 25.1623716,15.1112865 C25.0930537,15.0419687 25.0583948,15.0073098 24.8851003,14.9379919 L23.6720383,14.2794726 C23.5334026,14.2101547 23.5334026,14.1754958 23.5334026,14.1408369 C23.5334026,14.106178 23.5680615,14.0715191 23.6373794,14.0368602 L25.0930537,13.5169765 C25.2316894,13.4823176 25.2316894,13.4129997 25.2663483,13.3436819 C25.3010072,13.309023 25.3010072,13.2743641 25.3356661,13.2743641 C25.3703251,13.2743641 25.3703251,13.309023 25.3703251,13.3436819 C25.3703251,13.4476586 25.3356661,13.5862943 25.3356661,13.690271 C25.3356661,13.7942478 25.3356661,13.9328834 25.3356661,14.0368602 C25.3356661,14.0715191 25.3356661,14.106178 25.3010072,14.106178 C25.2663483,14.106178 25.2663483,14.0715191 25.2316894,14.0368602 C25.2316894,13.9675423 25.1623716,13.9328834 25.1277127,13.9328834 C25.0930537,13.9328834 25.0237359,13.9675423 24.989077,13.9675423 L24.191922,14.2794726 C24.0879452,14.3141315 24.0879452,14.3141315 24.0879452,14.3487904 C24.0879452,14.3487904 24.1226042,14.3834493 24.1572631,14.3834493 L24.8504414,14.7646974 Z" fill="#FFFFFF"></path>
                <path d="M24.7118057,15.6311702 C24.8504414,15.6658291 25.0237359,15.7004881 25.0583948,15.5965113 C25.0930537,15.5271935 25.1277127,15.4578757 25.1623716,15.4925346 C25.1970305,15.4925346 25.1970305,15.5271935 25.1970305,15.5965113 C25.1277127,15.7698059 25.0930537,15.9777594 25.0237359,16.1510539 C24.989077,16.3590074 24.9544181,16.532302 24.9197592,16.7402555 C24.9197592,16.8095733 24.8851003,16.8442322 24.8504414,16.8442322 C24.7811235,16.8442322 24.7464646,16.8095733 24.6771468,16.8095733 C24.607829,16.8095733 24.57317,16.7749144 24.5038522,16.7749144 C24.4691933,16.7749144 24.4691933,16.7402555 24.4691933,16.7055966 C24.4691933,16.6709376 24.5385111,16.6709376 24.5385111,16.6709376 C24.7118057,16.7055966 24.7811235,16.6362787 24.8504414,16.3590074 L24.8851003,16.1857128 C24.8851003,16.116395 24.8851003,16.0817361 24.7811235,16.0817361 L24.3652166,15.9777594 C24.3305576,15.9777594 24.2958987,16.0124183 24.2958987,16.116395 C24.2612398,16.2550307 24.2612398,16.3936663 24.3652166,16.4283252 C24.4345344,16.4629842 24.4345344,16.4976431 24.4345344,16.4976431 C24.4345344,16.532302 24.3998755,16.532302 24.3652166,16.532302 C24.2958987,16.4976431 24.2265809,16.4976431 24.1572631,16.4629842 C24.0879452,16.4283252 24.0186274,16.4283252 23.9493096,16.4283252 C23.9146507,16.4283252 23.8799918,16.3936663 23.8799918,16.3590074 C23.8799918,16.3243485 23.9493096,16.3243485 24.0186274,16.3243485 C24.1226042,16.2896896 24.1572631,16.2203718 24.191922,16.0817361 C24.2265809,15.9777594 24.191922,15.9431004 24.1226042,15.9084415 L23.7066972,15.8044648 C23.5334026,15.7698059 23.4987437,15.8044648 23.4640848,15.9084415 C23.394767,16.1510539 23.4294259,16.3243485 23.4987437,16.4283252 C23.5680615,16.532302 23.6373794,16.5669609 23.6373794,16.6016198 C23.6373794,16.6362787 23.6027204,16.6362787 23.5680615,16.6362787 C23.5334026,16.6362787 23.4294259,16.5669609 23.394767,16.532302 C23.2907902,16.4976431 23.2214724,16.3243485 23.2214724,16.2203718 C23.2561313,16.0470772 23.3254491,15.9084415 23.360108,15.735147 C23.394767,15.5618524 23.4294259,15.3885578 23.4640848,15.2499222 C23.4640848,15.1806043 23.4987437,15.1459454 23.5334026,15.1459454 C23.5680615,15.1459454 23.5680615,15.2152633 23.6027204,15.2499222 C23.6373794,15.3538989 23.6720383,15.3538989 23.8106739,15.3885578 L24.7118057,15.6311702 Z" fill="#FFFFFF"></path>
                <path d="M23.776015,17.6760461 C23.7413561,17.6760461 23.7066972,17.6413872 23.6373794,17.7800229 C23.5334026,17.9879764 23.6027204,18.126612 23.8453328,18.2305888 C24.0186274,18.2999066 24.2265809,18.2652477 24.2958987,18.0572942 C24.3652166,17.9186585 24.3305576,17.8839996 24.2265809,17.8493407 L23.776015,17.6760461 Z M24.3305576,17.4680927 C24.4691933,17.5374105 24.5385111,17.4680927 24.607829,17.3641159 C24.6424879,17.329457 24.6424879,17.329457 24.6771468,17.329457 C24.7118057,17.329457 24.7118057,17.3641159 24.6771468,17.3987748 C24.6424879,17.4680927 24.607829,17.5027516 24.5385111,17.6760461 C24.4691933,17.8146818 24.4345344,17.9879764 24.3652166,18.0919531 C24.2265809,18.4038833 24.0186274,18.7158136 23.6373794,18.542519 C23.4640848,18.4732012 23.4294259,18.3692244 23.4294259,18.2305888 C23.4294259,18.1612709 23.4294259,18.0919531 23.4294259,18.0919531 C23.394767,18.0572942 22.8055654,18.126612 22.6322709,18.1959299 C22.5976119,18.1959299 22.562953,18.2305888 22.562953,18.2305888 C22.562953,18.2652477 22.562953,18.2999066 22.5282941,18.2999066 C22.5282941,18.3345655 22.4936352,18.3345655 22.4589763,18.3345655 C22.3549995,18.2999066 22.4589763,18.0226353 22.4936352,17.9186585 C22.5282941,17.8493407 22.5976119,17.7800229 22.7015887,17.7800229 L23.3254491,17.7107051 C23.4294259,17.7107051 23.4987437,17.6760461 23.5334026,17.6067283 C23.5680615,17.5374105 23.5680615,17.5374105 23.5334026,17.5027516 L23.1521546,17.329457 C22.97886,17.2601392 22.8748833,17.2947981 22.8402243,17.3987748 C22.8402243,17.4334338 22.8055654,17.4334338 22.7709065,17.4334338 C22.7362476,17.4334338 22.7362476,17.3987748 22.8055654,17.2947981 C22.8402243,17.1908214 22.9095422,17.1215035 22.9442011,17.0175268 C22.97886,16.91355 23.0135189,16.8095733 23.0481778,16.7402555 C23.0481778,16.7055966 23.0828367,16.6709376 23.1174957,16.7055966 C23.1521546,16.7055966 23.1521546,16.7749144 23.1521546,16.8095733 C23.1521546,16.91355 23.2214724,16.9828679 23.2907902,17.0175268 L24.3305576,17.4680927 Z" fill="#FFFFFF"></path>
                <path d="M22.6669298,18.6464957 C22.7015887,18.6464957 22.7362476,18.6811547 22.7362476,18.6811547 C22.7362476,18.6811547 22.7709065,18.7158136 22.7362476,18.7504725 C22.7015887,18.7851314 22.6322709,18.7851314 22.5976119,18.7504725 C22.3896585,18.7158136 22.1470461,18.7851314 22.0084104,18.9930849 C21.9044337,19.1317205 21.9390926,19.3050151 22.0777282,19.4089919 C22.4243174,19.6169453 22.7709065,18.7158136 23.360108,19.0970616 C23.5680615,19.2356973 23.6720383,19.5476275 23.4987437,19.7902399 C23.394767,19.9635345 23.2214724,20.0328523 23.1868135,20.1021701 C23.1868135,20.136829 23.1868135,20.2061469 23.1521546,20.2061469 C23.1174957,20.2408058 23.1174957,20.2408058 23.0828367,20.2061469 C22.97886,20.136829 22.7362476,20.0328523 22.7362476,19.9981934 C22.7015887,19.9635345 22.7015887,19.9635345 22.7015887,19.9288756 C22.7362476,19.8942166 22.7709065,19.8942166 22.8402243,19.9288756 C23.0135189,19.9981934 23.2907902,19.8942166 23.394767,19.7209221 C23.4640848,19.5822864 23.4640848,19.4436508 23.360108,19.339674 C23.0135189,19.0970616 22.6669298,20.0328523 22.0777282,19.6516042 C21.8697747,19.5129686 21.6964802,19.2010384 21.9044337,18.8544492 C22.0084104,18.7158136 22.1123871,18.6118368 22.2163639,18.5078601 C22.2510228,18.4732012 22.2510228,18.4385423 22.2856817,18.4732012 L22.6669298,18.6464957 Z" fill="#FFFFFF"></path>
                <path d="M21.3845499,20.2061469 C21.2805732,20.1021701 21.1419376,20.171488 21.1072786,20.2061469 C21.0726197,20.2408058 21.0726197,20.2408058 21.0379608,20.2061469 C21.0033019,20.171488 21.0379608,20.136829 21.1072786,20.0675112 C21.1419376,19.9981934 21.2459143,19.9288756 21.3152321,19.8595577 C21.3845499,19.7902399 21.4192089,19.6862632 21.4885267,19.6169453 C21.5231856,19.5822864 21.5578445,19.5476275 21.5578445,19.5822864 C21.5925034,19.6169453 21.5578445,19.6516042 21.5578445,19.6862632 C21.5231856,19.7902399 21.5925034,19.8595577 21.6618213,19.8942166 L22.5282941,20.6220538 C22.6669298,20.7260306 22.7362476,20.6913717 22.8055654,20.6220538 C22.8402243,20.5873949 22.8402243,20.5873949 22.8748833,20.6220538 C22.9095422,20.6567128 22.8748833,20.6913717 22.8055654,20.7606895 C22.7362476,20.8300073 22.6669298,20.8993252 22.5976119,20.968643 C22.5282941,21.0379608 22.4936352,21.1419376 22.4243174,21.2112554 C22.3896585,21.2459143 22.3896585,21.2805732 22.3549995,21.2459143 C22.3203406,21.2112554 22.3549995,21.1765965 22.3549995,21.1419376 C22.3896585,21.0379608 22.3203406,20.968643 22.2510228,20.9339841 L21.3845499,20.2061469 Z" fill="#FFFFFF"></path>
                <path d="M21.4885267,21.8351158 C21.5578445,21.9044337 21.5925034,21.8697747 21.6964802,21.8004569 C21.8697747,21.6271623 21.9390926,21.5578445 21.8351158,21.3152321 C21.8351158,21.3152321 21.8351158,21.2805732 21.8351158,21.2805732 C21.8697747,21.2459143 21.8697747,21.2459143 21.9044337,21.2805732 C21.9044337,21.2805732 21.9390926,21.3152321 21.9737515,21.349891 L22.1470461,21.5578445 C22.181705,21.5925034 22.181705,21.6271623 22.1470461,21.6618213 C21.9737515,21.8351158 21.765798,22.0084104 21.5578445,22.181705 C21.3845499,22.3549995 21.1765965,22.562953 21.0033019,22.7362476 C20.968643,22.7709065 20.9339841,22.7709065 20.8646662,22.7362476 L20.6567128,22.562953 C20.6567128,22.562953 20.6220538,22.5282941 20.6220538,22.5282941 C20.6220538,22.5282941 20.6220538,22.4936352 20.6220538,22.4936352 C20.6567128,22.4589763 20.6567128,22.4589763 20.6567128,22.4936352 C20.8646662,22.6322709 20.968643,22.562953 21.1419376,22.3896585 C21.2459143,22.2856817 21.2459143,22.2510228 21.2112554,22.181705 L20.4141004,21.3152321 C20.2754647,21.1765965 20.136829,21.2805732 20.0675112,21.3152321 C20.0328523,21.3152321 19.9981934,21.349891 19.9635345,21.3152321 C19.9288756,21.2805732 19.9635345,21.2805732 19.9635345,21.2459143 C20.0675112,21.1419376 20.2061469,21.0379608 20.3101236,20.9339841 C20.4141004,20.8300073 20.5180771,20.7260306 20.6220538,20.6220538 C20.6567128,20.6220538 20.6567128,20.5873949 20.6913717,20.6220538 C20.7260306,20.6567128 20.6913717,20.6913717 20.6913717,20.7260306 C20.6567128,20.7953484 20.5180771,20.9339841 20.6567128,21.0726197 L21.4885267,21.8351158 Z" fill="#FFFFFF"></path>
                <path d="M19.3050151,23.360108 C19.3050151,23.4294259 19.339674,23.4640848 19.339674,23.4987437 C19.3743329,23.5680615 19.4783097,23.5334026 19.5822864,23.4987437 C19.6169453,23.4987437 19.6516042,23.4987437 19.6516042,23.5334026 C19.6862632,23.5680615 19.6516042,23.5680615 19.6169453,23.6027204 C19.5476275,23.6373794 19.4436508,23.6720383 19.3743329,23.7413561 C19.3050151,23.776015 19.2356973,23.8453328 19.1663795,23.9146507 C19.1317205,23.9146507 19.1317205,23.9493096 19.0970616,23.9146507 C19.0624027,23.8799918 19.0970616,23.8799918 19.1317205,23.8106739 C19.1663795,23.7413561 19.2010384,23.6720383 19.1663795,23.4987437 L19.1317205,22.8748833 C19.1317205,22.8055654 19.1317205,22.7709065 19.0970616,22.7362476 L18.8891081,22.3896585 C18.8197903,22.2856817 18.7504725,22.2163639 18.6118368,22.2856817 C18.5771779,22.3203406 18.5078601,22.3549995 18.4732012,22.2856817 C18.4385423,22.2510228 18.5078601,22.2163639 18.5771779,22.1470461 C18.6811547,22.0777282 18.7851314,22.0430693 18.8891081,21.9737515 C18.958426,21.9390926 19.0624027,21.8351158 19.1317205,21.8004569 C19.2010384,21.765798 19.2356973,21.7311391 19.2703562,21.765798 C19.3050151,21.8004569 19.2703562,21.8351158 19.2010384,21.8697747 C19.0970616,21.9737515 19.1317205,22.0430693 19.2010384,22.1470461 L19.3743329,22.4243174 C19.3743329,22.4589763 19.4089919,22.4589763 19.4436508,22.4589763 L20.171488,22.8402243 C20.3447825,22.9442011 20.4141004,22.9442011 20.4834182,22.9095422 C20.552736,22.8748833 20.5873949,22.8748833 20.6220538,22.9095422 C20.6567128,22.9442011 20.6220538,22.97886 20.5873949,22.97886 C20.4834182,23.0481778 20.3794414,23.0828367 20.2754647,23.1521546 C20.171488,23.2214724 20.1021701,23.2907902 19.9981934,23.360108 C19.9635345,23.394767 19.9288756,23.394767 19.8942166,23.360108 C19.8595577,23.3254491 19.9288756,23.2907902 19.9635345,23.2561313 C19.9635345,23.2214724 19.9981934,23.1868135 19.9635345,23.1868135 C19.9288756,23.1521546 19.8942166,23.1174957 19.8595577,23.0828367 L19.4436508,22.8402243 C19.3743329,22.8055654 19.339674,22.8055654 19.339674,22.8055654 C19.339674,22.8055654 19.339674,22.8748833 19.339674,22.9095422 L19.3050151,23.360108 Z" fill="#FFFFFF"></path>
                <path d="M9.77381375,23.9146507 C9.70449593,23.9146507 9.66983701,23.9146507 9.6351781,23.9146507 C9.60051918,23.9146507 9.56586027,23.9146507 9.53120136,23.9493096 C9.49654244,23.9493096 9.49654244,23.9839685 9.46188353,24.0186274 C9.42722461,24.0532863 9.3925657,24.0879452 9.35790679,24.1226042 L9.32324787,24.1226042 C9.32324787,24.0532863 9.32324787,24.0186274 9.32324787,23.9493096 C9.32324787,23.9146507 9.32324787,23.8799918 9.28858896,23.8453328 C9.28858896,23.8106739 9.25393004,23.8106739 9.21927113,23.776015 C9.18461222,23.7413561 9.1499533,23.7066972 9.11529439,23.6720383 L9.11529439,23.6373794 C9.18461222,23.6373794 9.21927113,23.6373794 9.25393004,23.6373794 C9.28858896,23.6373794 9.32324787,23.6373794 9.35790679,23.6027204 C9.3925657,23.6027204 9.3925657,23.5680615 9.42722461,23.5334026 C9.46188353,23.4987437 9.49654244,23.4640848 9.53120136,23.4294259 L9.56586027,23.4294259 C9.56586027,23.4987437 9.56586027,23.5334026 9.56586027,23.5680615 C9.56586027,23.6027204 9.56586027,23.6373794 9.60051918,23.6720383 C9.60051918,23.7066972 9.6351781,23.7066972 9.66983701,23.7413561 C9.66983701,23.8106739 9.70449593,23.8453328 9.77381375,23.9146507 L9.77381375,23.9146507 Z" fill="#FFFFFF"></path>
                <path d="M11.2641471,23.6720383 C11.2641471,23.6373794 11.2294881,23.6027204 11.1948292,23.5680615 C11.1255114,23.5680615 11.0908525,23.5680615 11.0561936,23.5680615 C11.0215347,23.5680615 10.9868757,23.5334026 11.0215347,23.4987437 C11.0215347,23.4640848 11.0908525,23.4640848 11.1255114,23.4640848 C11.2641471,23.4640848 11.4027827,23.4640848 11.5414184,23.394767 C11.5760773,23.394767 11.5760773,23.360108 11.6107362,23.360108 C11.6453951,23.360108 11.6453951,23.394767 11.6453951,23.4294259 L11.3681238,24.8157824 C11.3334649,24.9544181 11.4027827,24.989077 11.4721005,25.0237359 C11.5067595,25.0583948 11.5760773,25.0583948 11.5760773,25.0930537 C11.5760773,25.1277127 11.5414184,25.1277127 11.4721005,25.1277127 C11.3681238,25.0930537 11.2641471,25.0583948 11.1601703,25.0583948 C11.0561936,25.0237359 10.9522168,25.0237359 10.8482401,25.0237359 C10.7789223,25.0237359 10.7789223,24.989077 10.7789223,24.9544181 C10.7789223,24.9197592 10.8482401,24.9197592 10.9175579,24.9197592 C10.9868757,24.9197592 11.0561936,24.8504414 11.0908525,24.7811235 L11.2641471,23.6720383 Z" fill="#FFFFFF"></path>
                <path d="M12.3039145,23.8106739 C12.2692556,24.0532863 12.6505036,24.1572631 12.7198214,24.1572631 C12.8584571,24.1572631 12.9277749,24.0532863 12.9277749,23.9146507 C12.9277749,23.7066972 12.7891393,23.5680615 12.5811858,23.5680615 C12.477209,23.5680615 12.3385734,23.6373794 12.3039145,23.8106739 L12.3039145,23.8106739 Z M12.4078912,24.4691933 C12.3732323,24.4691933 12.3732323,24.4691933 12.3385734,24.4345344 C12.3039145,24.4345344 12.1999377,24.5385111 12.1999377,24.7118057 C12.1999377,24.9544181 12.3039145,25.1623716 12.5811858,25.1623716 C12.7198214,25.1623716 12.9277749,25.0930537 12.9277749,24.9197592 C12.9277749,24.7811235 12.893116,24.7118057 12.7891393,24.6424879 L12.4078912,24.4691933 Z M13.1703873,23.9146507 C13.1703873,24.0879452 13.0664106,24.1572631 12.893116,24.2265809 C12.8584571,24.2265809 12.8237982,24.2265809 12.8237982,24.2612398 C12.8237982,24.2612398 12.8584571,24.2958987 12.8584571,24.2958987 C13.0317517,24.3998755 13.1703873,24.57317 13.1703873,24.8157824 C13.1357284,25.1970305 12.8237982,25.3356661 12.477209,25.3010072 C12.1999377,25.2663483 11.9226664,25.1277127 11.9226664,24.7811235 C11.9226664,24.607829 12.0266432,24.5038522 12.1999377,24.4345344 C12.2345966,24.4345344 12.2345966,24.4345344 12.2345966,24.4345344 C12.2345966,24.4345344 12.1999377,24.3998755 12.1999377,24.3998755 C12.095961,24.2958987 12.0266432,24.1572631 12.0266432,24.0186274 C12.0613021,23.7066972 12.3385734,23.5334026 12.6158447,23.5680615 C12.893116,23.4987437 13.2050462,23.6373794 13.1703873,23.9146507 L13.1703873,23.9146507 Z" fill="#FFFFFF"></path>
                <path d="M13.8982245,23.6720383 C13.72493,23.6720383 13.690271,23.8106739 13.6209532,23.8106739 C13.6209532,23.8106739 13.5862943,23.8106739 13.5862943,23.776015 C13.5862943,23.7066972 13.7942478,23.4987437 14.0715191,23.4640848 C14.2448137,23.4640848 14.4527671,23.5334026 14.4527671,23.7413561 C14.4527671,23.9146507 14.3487904,24.0186274 14.2101547,24.1226042 C14.2101547,24.1226042 14.2101547,24.1572631 14.2101547,24.1572631 C14.2101547,24.1572631 14.2101547,24.1572631 14.2448137,24.191922 C14.4874261,24.191922 14.6260617,24.3305576 14.6260617,24.57317 C14.6607206,24.9544181 14.3834493,25.2663483 14.0022013,25.2663483 C13.7942478,25.2663483 13.5516354,25.1623716 13.5516354,25.0930537 C13.5516354,25.0583948 13.5516354,25.0583948 13.5862943,25.0583948 C13.6556121,25.0583948 13.690271,25.1970305 13.9328834,25.1623716 C14.1754958,25.1277127 14.2794726,24.9544181 14.2794726,24.7118057 C14.2794726,24.5385111 14.1754958,24.3998755 14.0022013,24.3998755 C13.9675423,24.3998755 13.9328834,24.3998755 13.8982245,24.4345344 C13.8635656,24.4345344 13.8635656,24.4345344 13.8635656,24.3998755 C13.8635656,24.3652166 13.9328834,24.3305576 13.9675423,24.2958987 C14.106178,24.2265809 14.1754958,24.0879452 14.1754958,23.9146507 C14.1408369,23.776015 14.0368602,23.6720383 13.8982245,23.6720383" fill="#FFFFFF"></path>
                <path d="M15.3538989,24.3305576 C15.31924,24.3305576 15.31924,24.3305576 15.2845811,24.3305576 C15.2499222,24.3305576 15.1806043,24.4691933 15.2152633,24.607829 C15.2499222,24.8504414 15.4232167,25.0237359 15.7004881,24.9544181 C15.8391237,24.9197592 16.0124183,24.8157824 15.9777594,24.607829 C15.9431004,24.4691933 15.8737826,24.3998755 15.7698059,24.3998755 L15.3538989,24.3305576 Z M15.1112865,23.7413561 C15.1459454,23.9839685 15.5618524,23.9839685 15.5965113,23.9839685 C15.735147,23.9493096 15.7698059,23.8106739 15.735147,23.7066972 C15.7004881,23.4987437 15.5271935,23.4294259 15.31924,23.4640848 C15.2152633,23.4640848 15.0766276,23.5680615 15.1112865,23.7413561 L15.1112865,23.7413561 Z M15.9777594,23.6027204 C16.0124183,23.776015 15.9431004,23.8799918 15.8044648,23.9493096 C15.7698059,23.9839685 15.735147,23.9839685 15.7698059,23.9839685 C15.7698059,23.9839685 15.8044648,23.9839685 15.8391237,24.0186274 C16.0470772,24.0879452 16.2203718,24.2265809 16.2550307,24.4345344 C16.3243485,24.8157824 16.0470772,25.0237359 15.7004881,25.0930537 C15.4232167,25.1623716 15.1112865,25.0583948 15.0419687,24.7464646 C15.0073098,24.57317 15.0766276,24.4345344 15.2152633,24.3305576 C15.2152633,24.2958987 15.2499222,24.2958987 15.2499222,24.2958987 C15.2499222,24.2958987 15.2152633,24.2612398 15.2152633,24.2612398 C15.0766276,24.191922 15.0073098,24.0879452 14.9726509,23.9146507 C14.903333,23.6027204 15.1459454,23.394767 15.4232167,23.3254491 C15.5965113,23.2907902 15.9084415,23.3254491 15.9777594,23.6027204 L15.9777594,23.6027204 Z" fill="#FFFFFF"></path>
                <path d="M17.9186585,23.5680615 C17.8839996,23.6027204 17.8493407,23.6373794 17.8146818,23.6720383 C17.7800229,23.7066972 17.7800229,23.7413561 17.745364,23.7413561 C17.745364,23.776015 17.7107051,23.8106739 17.7107051,23.8453328 C17.7107051,23.8799918 17.7107051,23.9493096 17.7107051,23.9839685 L17.7107051,23.9839685 C17.6760461,23.9493096 17.6413872,23.9146507 17.6067283,23.8799918 C17.5720694,23.8453328 17.5374105,23.8453328 17.5374105,23.8453328 C17.5027516,23.8453328 17.4680927,23.8453328 17.4334338,23.8106739 C17.3987748,23.8106739 17.329457,23.8106739 17.2947981,23.8106739 L17.2947981,23.776015 C17.329457,23.7413561 17.3641159,23.7066972 17.3987748,23.6720383 C17.4334338,23.6373794 17.4334338,23.6027204 17.4334338,23.6027204 C17.4334338,23.5680615 17.4334338,23.5334026 17.4680927,23.4987437 C17.4680927,23.4640848 17.4680927,23.394767 17.4680927,23.360108 L17.5027516,23.360108 C17.5374105,23.394767 17.5720694,23.4294259 17.6067283,23.4640848 C17.6413872,23.4987437 17.6760461,23.4987437 17.6760461,23.5334026 C17.7107051,23.5334026 17.745364,23.5334026 17.7800229,23.5680615 C17.8146818,23.5680615 17.8493407,23.5680615 17.9186585,23.5680615 L17.9186585,23.5680615 Z" fill="#FFFFFF"></path>
                <path d="M22.9095422,13.4129997 C22.9095422,18.6464957 18.6464957,22.9095422 13.4129997,22.9095422 C8.17950371,22.9095422 3.91645728,18.6464957 3.91645728,13.4129997 C3.91645728,8.17950371 8.17950371,3.91645728 13.4129997,3.91645728 C18.6464957,3.91645728 22.9095422,8.14484479 22.9095422,13.4129997" fill="#FEBE10"></path>
                <g transform="translate(4.852248, 7.278372)" fill="#000000">
                    <path d="M6.55053475,5.40679059 L6.48121692,11.298806 C6.48121692,11.298806 6.48121692,11.3334649 6.51587584,11.3681238 C6.55053475,11.4027827 6.68917041,11.4374416 7.13973629,11.4374416 C7.59030217,11.4374416 7.72893783,11.3681238 7.76359674,11.3681238 C7.79825565,11.3334649 7.79825565,11.298806 7.79825565,11.298806 L7.76359674,5.40679059 C7.69427891,5.37213167 7.52098434,5.30281384 7.1743952,5.30281384 C6.79314715,5.30281384 6.61985258,5.37213167 6.55053475,5.40679059"></path>
                    <path d="M7.1743952,3.53520923 C6.44655801,3.53520923 6.27326344,3.77782163 6.27326344,3.77782163 L6.27326344,3.84713946 C6.27326344,3.84713946 6.41189909,3.84713946 6.48121692,4.02043403 C6.55053475,4.22838751 6.58519366,4.9562247 6.58519366,4.9562247 L6.58519366,4.99088362 C6.68917041,4.9562247 6.86246498,4.88690688 7.1743952,4.88690688 C7.48632543,4.88690688 7.65962,4.9562247 7.76359674,4.99088362 L7.76359674,4.92156579 C7.76359674,4.92156579 7.76359674,4.29770534 7.86757348,3.98577511 C7.93689131,3.84713946 8.04086805,3.81248054 8.04086805,3.81248054 L8.04086805,3.74316271 C8.07552697,3.74316271 7.9022324,3.53520923 7.1743952,3.53520923"></path>
                    <path d="M9.32324787,5.40679059 L9.28858896,11.298806 C9.28858896,11.298806 9.28858896,11.3334649 9.32324787,11.3681238 C9.35790679,11.4027827 9.49654244,11.4374416 9.94710832,11.4374416 C10.3976742,11.4374416 10.5363099,11.4027827 10.5709688,11.3681238 C10.6056277,11.3334649 10.6056277,11.298806 10.6056277,11.298806 L10.5363099,5.40679059 C10.466992,5.37213167 10.3283564,5.26815493 9.94710832,5.26815493 C9.53120136,5.30281384 9.3925657,5.37213167 9.32324787,5.40679059"></path>
                    <path d="M10.8135812,3.77782163 C10.8135812,3.77782163 10.6402866,3.53520923 9.91244941,3.53520923 C9.18461222,3.53520923 9.01131764,3.74316271 9.01131764,3.74316271 L9.01131764,3.81248054 C9.01131764,3.81248054 9.11529439,3.84713946 9.18461222,3.98577511 C9.32324787,4.26304642 9.28858896,4.92156579 9.28858896,4.92156579 L9.28858896,4.99088362 C9.3925657,4.92156579 9.56586027,4.88690688 9.8777905,4.88690688 C10.1897207,4.88690688 10.3630153,4.9562247 10.466992,4.99088362 L10.466992,4.9562247 C10.466992,4.9562247 10.5016509,4.22838751 10.5709688,4.02043403 C10.6402866,3.88179837 10.7789223,3.84713946 10.7789223,3.84713946 L10.8135812,3.77782163 Z"></path>
                    <path d="M14.8686741,11.2294881 L13.4823176,11.2294881 C13.4476586,11.2294881 13.4476586,11.1948292 13.4476586,11.1948292 L13.2397052,4.33236425 C13.2397052,4.33236425 13.2397052,4.29770534 13.2743641,4.29770534 L14.2101547,4.29770534 C14.2448137,4.29770534 14.2448137,4.33236425 14.2448137,4.33236425 L14.903333,11.1601703 C14.9379919,11.1948292 14.9379919,11.2294881 14.8686741,11.2294881 L14.8686741,11.2294881 Z M14.4874261,4.08975185 C14.4874261,4.08975185 14.4874261,4.05509294 14.4527671,4.05509294 L13.1010695,4.05509294 C13.0664106,4.05509294 13.0664106,4.08975185 13.0664106,4.08975185 L13.2743641,11.4721005 C13.2743641,11.4721005 13.2743641,11.5414184 13.309023,11.5414184 L15.2152633,11.5414184 C15.2845811,11.5414184 15.2845811,11.4721005 15.2845811,11.4721005 L14.4874261,4.08975185 Z"></path>
                    <path d="M3.67384489,11.1948292 C3.67384489,11.1948292 3.67384489,11.2294881 3.63918597,11.2294881 L2.25282941,11.2294881 C2.18351158,11.2294881 2.2181705,11.1601703 2.2181705,11.1601703 L2.87668986,4.33236425 C2.87668986,4.33236425 2.87668986,4.29770534 2.91134878,4.29770534 L3.84713946,4.29770534 C3.88179837,4.29770534 3.88179837,4.33236425 3.88179837,4.33236425 L3.67384489,11.1948292 Z M3.84713946,11.4721005 L4.05509294,4.08975185 C4.05509294,4.08975185 4.05509294,4.05509294 4.02043403,4.05509294 L2.66873638,4.05509294 C2.63407747,4.05509294 2.63407747,4.08975185 2.63407747,4.08975185 L1.87158136,11.4721005 C1.87158136,11.4721005 1.87158136,11.5414184 1.94089919,11.5414184 L3.84713946,11.5414184 C3.88179837,11.5414184 3.84713946,11.4721005 3.84713946,11.4721005 L3.84713946,11.4721005 Z"></path>
                    <path d="M15.2499222,2.98066661 C15.2499222,2.98066661 15.0766276,3.08464335 15.0073098,3.18862009 C14.9379919,3.29259683 14.9379919,3.4658914 14.9379919,3.4658914 L12.5465269,3.4658914 C12.5465269,3.4658914 12.5465269,3.32725575 12.477209,3.18862009 C12.4078912,3.04998443 12.2692556,2.98066661 12.2692556,2.98066661 L12.2692556,2.91134878 C12.2692556,2.91134878 12.2692556,2.87668986 12.3385734,2.87668986 L12.893116,2.87668986 C13.0664106,3.11930226 13.3436819,3.29259683 13.7942478,3.29259683 C14.2448137,3.29259683 14.5567439,3.11930226 14.6953795,2.87668986 L15.2152633,2.87668986 C15.2499222,2.87668986 15.2499222,2.91134878 15.2499222,2.91134878 L15.2499222,2.98066661 L15.2499222,2.98066661 Z M11.4374416,2.53010072 L5.64940299,2.53010072 L5.64940299,2.2181705 L11.4374416,2.2181705 L11.4374416,2.53010072 Z M6.9317828,1.14374416 C6.9317828,1.14374416 7.24371303,1.2477209 7.55564326,1.2477209 C7.93689131,1.2477209 8.04086805,1.14374416 8.14484479,1.21306199 C8.21416262,1.28237982 8.14484479,1.38635656 8.14484479,1.45567439 C8.14484479,1.55965113 8.21416262,1.62896896 8.31813936,1.62896896 C8.38745719,1.62896896 8.42211611,1.59431004 8.42211611,1.55965113 C8.38745719,1.52499222 8.35279828,1.45567439 8.35279828,1.38635656 C8.35279828,1.28237982 8.45677502,1.17840308 8.56075176,1.17840308 C8.6647285,1.17840308 8.76870525,1.28237982 8.76870525,1.38635656 C8.76870525,1.45567439 8.73404633,1.52499222 8.69938742,1.55965113 C8.73404633,1.59431004 8.76870525,1.62896896 8.80336416,1.62896896 C8.9073409,1.62896896 8.97665873,1.55965113 8.97665873,1.45567439 C8.97665873,1.35169765 8.9073409,1.28237982 8.97665873,1.21306199 C9.08063547,1.14374416 9.18461222,1.21306199 9.56586027,1.2477209 C9.8777905,1.2477209 10.1550618,1.14374416 10.1897207,1.14374416 C10.1897207,1.14374416 10.085744,1.55965113 9.49654244,1.69828679 C9.04597656,1.80226353 8.59541068,1.80226353 8.59541068,1.80226353 L8.59541068,1.80226353 C8.59541068,1.80226353 8.17950371,1.80226353 7.69427891,1.69828679 C7.03575955,1.55965113 6.9317828,1.14374416 6.9317828,1.14374416 L6.9317828,1.14374416 Z M4.85224796,2.98066661 C4.85224796,2.98066661 4.71361231,3.08464335 4.64429448,3.18862009 C4.57497665,3.32725575 4.57497665,3.4658914 4.57497665,3.4658914 L2.14885267,3.4658914 C2.14885267,3.4658914 2.14885267,3.32725575 2.07953484,3.18862009 C2.01021701,3.08464335 1.83692244,2.98066661 1.83692244,2.98066661 L1.83692244,2.91134878 C1.83692244,2.91134878 1.83692244,2.87668986 1.87158136,2.87668986 L2.39146507,2.87668986 C2.56475964,3.11930226 2.84203095,3.29259683 3.29259683,3.29259683 C3.74316271,3.29259683 4.05509294,3.11930226 4.1937286,2.87668986 L4.74827122,2.87668986 C4.78293013,2.87668986 4.81758905,2.91134878 4.81758905,2.91134878 L4.81758905,2.98066661 L4.85224796,2.98066661 Z M15.6658291,2.18351158 L11.4374416,2.18351158 L11.4721005,1.87158136 L15.5271935,1.87158136 C15.5271935,1.87158136 15.5271935,1.69828679 15.5271935,1.62896896 C15.5271935,1.38635656 15.6658291,1.21306199 15.6658291,1.21306199 L16.1857128,0.554542624 L16.1857128,0.34658914 C16.1857128,0.311930226 16.1857128,0.311930226 16.1510539,0.311930226 L11.2641471,0.311930226 C11.2294881,0.311930226 11.2294881,0.311930226 11.2294881,0.34658914 L11.2294881,0.727837194 L5.85735647,0.727837194 L5.85735647,0.34658914 C5.85735647,0.34658914 5.85735647,0.311930226 5.82269756,0.311930226 L0.935790679,0.311930226 C0.901131764,0.311930226 0.901131764,0.311930226 0.901131764,0.34658914 L0.901131764,0.554542624 L1.42101547,1.21306199 C1.42101547,1.21306199 1.55965113,1.38635656 1.55965113,1.62896896 C1.55965113,1.66362787 1.55965113,1.87158136 1.55965113,1.87158136 L5.61474407,1.87158136 L5.64940299,2.18351158 L1.42101547,2.18351158 L0.069317828,12.2345966 L1.21306199,12.2345966 L2.14885267,3.7085038 L4.54031774,3.7085038 L4.43634099,12.2345966 L5.37213167,12.2345966 L5.64940299,11.8186897 L5.64940299,3.15396118 L11.4374416,3.15396118 L11.4374416,11.8186897 L11.7147129,12.2345966 L12.6505036,12.2345966 L12.5465269,3.7085038 L14.9379919,3.7085038 L15.8737826,12.2345966 L17.0175268,12.2345966 L15.6658291,2.18351158 Z"></path>
                </g>
                <path d="M11.0561936,6.61985258 C11.0561936,7.00110063 11.298806,6.89712389 11.298806,6.96644172 C11.298806,6.96644172 11.298806,7.00110063 11.2294881,7.00110063 C11.1601703,7.00110063 11.0908525,7.00110063 10.9868757,7.00110063 C10.882899,7.00110063 10.7789223,7.00110063 10.7442633,7.00110063 C10.7096044,7.00110063 10.7096044,7.00110063 10.7096044,6.96644172 C10.7096044,6.89712389 10.882899,6.9317828 10.9175579,6.68917041 L10.9522168,5.75337973 C10.9522168,5.37213167 10.7096044,5.47610841 10.7096044,5.37213167 C10.7096044,5.37213167 10.7096044,5.33747276 10.7442633,5.33747276 C10.7789223,5.33747276 10.8135812,5.33747276 10.882899,5.33747276 C10.9522168,5.33747276 11.0215347,5.33747276 11.0908525,5.33747276 C11.1255114,5.33747276 11.1255114,5.33747276 11.1601703,5.40679059 L11.680054,6.51587584 C11.680054,6.55053475 11.680054,6.55053475 11.7147129,6.55053475 C11.7147129,6.55053475 11.7493719,6.51587584 11.7493719,6.51587584 L12.3039145,5.40679059 C12.3039145,5.40679059 12.3039145,5.37213167 12.3732323,5.37213167 C12.4425501,5.37213167 12.477209,5.37213167 12.511868,5.37213167 C12.5465269,5.37213167 12.5811858,5.37213167 12.6505036,5.37213167 C12.7198214,5.37213167 12.7198214,5.37213167 12.7198214,5.40679059 C12.7198214,5.47610841 12.477209,5.40679059 12.511868,5.6840619 L12.5465269,6.72382932 C12.5465269,7.03575955 12.7544804,6.9317828 12.7544804,7.00110063 C12.7544804,7.03575955 12.7198214,7.03575955 12.6505036,7.03575955 C12.5811858,7.03575955 12.511868,7.03575955 12.4425501,7.03575955 C12.3039145,7.03575955 12.2345966,7.03575955 12.1999377,7.03575955 C12.1652788,7.03575955 12.095961,7.03575955 12.095961,7.00110063 C12.095961,6.9317828 12.2692556,7.00110063 12.2692556,6.75848823 L12.2345966,6.06530995 C12.2345966,5.99599213 12.2345966,5.96133321 12.1999377,5.96133321 C12.1999377,5.96133321 12.1652788,5.99599213 12.1306199,6.09996887 L11.680054,7.00110063 C11.680054,7.03575955 11.6453951,7.07041846 11.6107362,7.07041846 C11.5760773,7.07041846 11.5760773,7.03575955 11.5414184,7.00110063 L11.0908525,5.99599213 C11.0908525,5.99599213 11.0908525,5.96133321 11.0561936,5.96133321 C11.0561936,5.96133321 11.0561936,5.99599213 11.0561936,6.03065104 L11.0561936,6.61985258 Z" fill="#000000"></path>
                <path d="M14.2448137,5.89201538 C14.2448137,5.9266743 14.2448137,5.96133321 14.2101547,5.96133321 C14.1754958,5.96133321 14.1408369,5.9266743 14.1408369,5.89201538 C14.0368602,5.6840619 13.8289067,5.47610841 13.5516354,5.47610841 C13.2050462,5.47610841 13.0317517,5.78803864 13.0317517,6.09996887 C13.0317517,6.41189909 13.2050462,6.89712389 13.6556121,6.89712389 C14.0022013,6.89712389 14.1754958,6.58519366 14.2448137,6.58519366 C14.2448137,6.58519366 14.2794726,6.58519366 14.2794726,6.61985258 C14.2794726,6.72382932 14.0368602,7.07041846 13.5516354,7.07041846 C12.8584571,7.07041846 12.7544804,6.48121692 12.7544804,6.30792235 C12.7544804,5.9266743 12.9970928,5.40679059 13.5862943,5.40679059 C13.8635656,5.40679059 14.0368602,5.54542624 14.106178,5.54542624 C14.1408369,5.54542624 14.1408369,5.47610841 14.1754958,5.47610841 C14.1754958,5.47610841 14.2101547,5.47610841 14.2101547,5.47610841 L14.2448137,5.89201538 Z" fill="#000000"></path>
                <path d="M15.2845811,7.00110063 C15.2499222,7.07041846 15.2499222,7.07041846 15.2152633,7.07041846 C15.1806043,7.07041846 15.1806043,7.03575955 15.1112865,6.9317828 L14.522085,5.58008516 C14.4874261,5.47610841 14.4527671,5.47610841 14.3487904,5.4414495 C14.3487904,5.4414495 14.3141315,5.4414495 14.3141315,5.40679059 C14.3141315,5.33747276 14.3834493,5.37213167 14.4181082,5.37213167 C14.4874261,5.37213167 14.5567439,5.37213167 14.6607206,5.37213167 C14.7993563,5.37213167 14.8686741,5.37213167 14.903333,5.37213167 C14.9726509,5.37213167 15.0073098,5.37213167 15.0073098,5.40679059 C15.0073098,5.47610841 14.8686741,5.4414495 14.8686741,5.54542624 C14.8686741,5.61474407 14.903333,5.71872081 14.9726509,5.85735647 L15.2845811,6.61985258 C15.2845811,6.65451149 15.31924,6.65451149 15.31924,6.65451149 C15.31924,6.65451149 15.3538989,6.61985258 15.3538989,6.61985258 L15.6658291,5.9266743 C15.735147,5.75337973 15.735147,5.6840619 15.735147,5.64940299 C15.735147,5.4414495 15.4925346,5.51076733 15.4925346,5.4414495 C15.4925346,5.40679059 15.5618524,5.40679059 15.5965113,5.40679059 C15.6658291,5.40679059 15.735147,5.40679059 15.8044648,5.40679059 C15.8737826,5.40679059 15.9431004,5.40679059 16.0124183,5.40679059 C16.0470772,5.40679059 16.0817361,5.40679059 16.0817361,5.4414495 C16.0817361,5.51076733 15.9777594,5.47610841 15.9084415,5.61474407 L15.2845811,7.00110063 Z" fill="#000000"></path>
                <path d="M12.0266432,20.6913717 C12.0266432,20.7606895 12.1306199,20.7606895 12.1999377,20.7606895 C12.5811858,20.7606895 12.5811858,20.6220538 12.5811858,20.4834182 C12.5811858,20.2408058 12.4425501,20.0675112 12.1999377,20.0675112 C12.095961,20.0675112 12.0266432,20.0675112 12.0266432,20.2061469 L12.0266432,20.6913717 Z M11.7493719,20.2408058 C11.7493719,19.9635345 11.4721005,20.0675112 11.4721005,19.9635345 C11.4721005,19.9288756 11.5067595,19.9288756 11.5414184,19.9288756 C11.6453951,19.9288756 11.680054,19.9288756 11.8186897,19.9288756 C11.9919843,19.9288756 12.1306199,19.9288756 12.3039145,19.9288756 C12.8237982,19.9288756 12.893116,20.2754647 12.893116,20.3794414 C12.893116,20.5180771 12.8237982,20.6220538 12.7544804,20.6913717 C12.6851625,20.7260306 12.6158447,20.7606895 12.6158447,20.7953484 C12.6158447,20.7953484 12.8237982,21.1419376 12.9970928,21.4538678 C13.0317517,21.4885267 13.0664106,21.4885267 13.0664106,21.4885267 C13.1010695,21.4885267 13.1010695,21.4885267 13.1357284,21.4885267 C13.1703873,21.4885267 13.1703873,21.4885267 13.1703873,21.5231856 C13.1703873,21.5925034 12.9970928,21.6618213 12.9277749,21.6618213 C12.7544804,21.6618213 12.6505036,21.5231856 12.5811858,21.3845499 L12.3732323,21.0033019 C12.3039145,20.8993252 12.2692556,20.8646662 12.1652788,20.8646662 C12.0266432,20.8646662 12.0613021,20.8993252 12.0613021,20.968643 L12.0613021,21.3845499 C12.0613021,21.6271623 12.3039145,21.5578445 12.3039145,21.6271623 C12.3039145,21.6618213 12.2692556,21.6618213 12.2345966,21.6618213 C12.1999377,21.6618213 12.1306199,21.6618213 12.0266432,21.6618213 C11.8880075,21.6618213 11.7840308,21.6618213 11.6453951,21.6618213 C11.6107362,21.6618213 11.5760773,21.6618213 11.5760773,21.6271623 C11.5760773,21.5578445 11.7840308,21.6271623 11.7840308,21.3152321 L11.7840308,20.2408058 L11.7493719,20.2408058 Z" fill="#000000"></path>
                <path d="M13.690271,21.3152321 C13.690271,21.6271623 13.9328834,21.5231856 13.9328834,21.5925034 C13.9328834,21.6271623 13.8982245,21.6271623 13.8635656,21.6271623 C13.690271,21.6271623 13.5862943,21.6271623 13.5516354,21.6271623 C13.4476586,21.6271623 13.2743641,21.6271623 13.2397052,21.6271623 C13.2397052,21.6271623 13.2050462,21.6271623 13.2050462,21.5925034 C13.2050462,21.5231856 13.4129997,21.5578445 13.4129997,21.2805732 L13.4129997,20.2408058 C13.4129997,19.9981934 13.1703873,20.1021701 13.1703873,19.9981934 C13.1703873,19.9981934 13.1703873,19.9635345 13.2397052,19.9635345 C13.2397052,19.9635345 13.3783408,19.9635345 13.5862943,19.9635345 C13.6209532,19.9635345 13.7942478,19.9635345 13.9675423,19.9635345 C14.2794726,19.9635345 14.5567439,20.0675112 14.5567439,20.4141004 C14.5567439,20.7260306 14.3487904,20.8993252 14.0368602,20.8993252 C13.7942478,20.8993252 13.7942478,20.8300073 13.7942478,20.8300073 C13.7942478,20.8300073 13.7942478,20.7953484 13.8289067,20.7953484 C13.8635656,20.7953484 13.8982245,20.7953484 13.9328834,20.7953484 C14.2101547,20.7953484 14.2448137,20.5180771 14.2448137,20.4487593 C14.2448137,20.3794414 14.2101547,20.0328523 13.8635656,20.0328523 C13.7595889,20.0328523 13.72493,20.0675112 13.72493,20.171488 L13.72493,21.3152321 L13.690271,21.3152321 Z" fill="#000000"></path>
                <path d="M15.2845811,21.349891 C15.2845811,21.6618213 15.5618524,21.5231856 15.5618524,21.6271623 C15.5618524,21.6618213 15.5271935,21.6618213 15.4925346,21.6618213 C15.3885578,21.6618213 15.31924,21.6618213 15.1112865,21.6618213 C15.0073098,21.6618213 14.903333,21.6618213 14.8340152,21.6618213 C14.7993563,21.6618213 14.7993563,21.6271623 14.7993563,21.6271623 C14.7993563,21.5578445 14.9726509,21.5925034 14.9726509,21.3845499 L14.9726509,20.2408058 C14.9726509,20.0328523 14.6953795,20.1021701 14.6953795,19.9981934 C14.6953795,19.9635345 14.7646974,19.9635345 14.7646974,19.9635345 C14.8686741,19.9635345 14.9379919,19.9635345 15.0419687,19.9635345 C15.1112865,19.9635345 15.2152633,19.9635345 15.3538989,19.9635345 C15.4232167,19.9635345 15.4232167,19.9635345 15.4232167,19.9981934 C15.4232167,20.0675112 15.2499222,19.9981934 15.2499222,20.2061469 L15.2499222,21.349891 L15.2845811,21.349891 Z" fill="#000000"></path>
            </g>
        </g>
    </g>
</svg>