<?xml version="1.0" encoding="UTF-8"?>
<svg width="72px" height="74px" viewBox="0 0 72 74" version="1.1" xmlns="http://www.w3.org/2000/svg" xmlns:xlink="http://www.w3.org/1999/xlink">
    <!-- Generator: Sketch 46.2 (44496) - http://www.bohemiancoding.com/sketch -->
    <title>Group 5</title>
    <desc>Created with Sketch.</desc>
    <defs></defs>
    <g id="ALT-Lab-main" stroke="none" stroke-width="1" fill="none" fill-rule="evenodd">
        <g id="Desktop" transform="translate(-748.000000, -336.000000)" stroke="#000000">
            <g id="Group-5" transform="translate(748.000000, 336.000000)">
                <path d="M52.8769413,44.9194769 C49.2283905,48.473808 46.6484756,57.5588599 45.1371964,72.1746327 C43.6259172,57.5588599 41.0460022,48.473808 37.3974515,44.9194769 C33.7489008,41.3651458 27.4954824,38.8518542 18.6371964,37.3796021 C27.4954824,35.90735 33.7489008,33.3940583 37.3974515,29.8397273 C41.0460022,26.2853962 43.6259172,17.2003443 45.1371964,2.58457152 C46.6484756,17.2003443 49.2283905,26.2853962 52.8769413,29.8397273 C56.525492,33.3940583 62.7789104,35.90735 71.6371964,37.3796021 C62.7789104,38.8518542 56.525492,41.3651458 52.8769413,44.9194769 Z" id="Star" transform="translate(45.137196, 37.379602) rotate(-360.000000) translate(-45.137196, -37.379602) "></path>
                <path d="M27.2629397,61.185302 C25.6376347,62.7686353 24.4883705,66.8157163 23.8151472,73.3265448 C23.1419238,66.8157163 21.9926596,62.7686353 20.3673546,61.185302 C18.7420497,59.6019687 15.956365,58.4823829 12.0103005,57.8265448 C15.956365,57.1707066 18.7420497,56.0511209 20.3673546,54.4677876 C21.9926596,52.8844542 23.1419238,48.8373733 23.8151472,42.3265448 C24.4883705,48.8373733 25.6376347,52.8844542 27.2629397,54.4677876 C28.8882446,56.0511209 31.6739293,57.1707066 35.6199938,57.8265448 C31.6739293,58.4823829 28.8882446,59.6019687 27.2629397,61.185302 Z" id="Star-Copy" transform="translate(23.815147, 57.826545) rotate(-360.000000) translate(-23.815147, -57.826545) "></path>
                <path d="M18.7236372,22.700907 C16.8005242,24.5743578 15.440678,29.3629939 14.6440985,37.0668151 C13.847519,29.3629939 12.4876727,24.5743578 10.5645597,22.700907 C8.64144672,20.8274562 5.34533517,19.5027264 0.676225071,18.7267177 C5.34533517,17.950709 8.64144672,16.6259792 10.5645597,14.7525284 C12.4876727,12.8790776 13.847519,8.09044154 14.6440985,0.386620286 C15.440678,8.09044154 16.8005242,12.8790776 18.7236372,14.7525284 C20.6467502,16.6259792 23.9428618,17.950709 28.6119719,18.7267177 C23.9428618,19.5027264 20.6467502,20.8274562 18.7236372,22.700907 Z" id="Star-Copy-2" transform="translate(14.644098, 18.726718) rotate(-360.000000) translate(-14.644098, -18.726718) "></path>
            </g>
        </g>
    </g>
</svg>