<?xml version="1.0" encoding="UTF-8"?>
<svg width="72px" height="74px" viewBox="0 0 72 74" version="1.1" xmlns="http://www.w3.org/2000/svg" xmlns:xlink="http://www.w3.org/1999/xlink">
    <!-- Generator: Sketch 46.2 (44496) - http://www.bohemiancoding.com/sketch -->
    <title>Group 7 Copy 2</title>
    <desc>Created with Sketch.</desc>
    <defs></defs>
    <g id="ALT-Lab-main" stroke="none" stroke-width="1" fill="none" fill-rule="evenodd">
        <g id="Desktop" transform="translate(-749.000000, -422.000000)" stroke="#FEC850">
            <g id="Group-7-Copy-2" transform="translate(785.000000, 459.000000) rotate(-360.000000) translate(-785.000000, -459.000000) translate(749.000000, 422.000000)">
                <path d="M68.8737591,37.3796021 C61.3270644,35.8489225 55.87832,33.4616352 52.5280425,30.1978748 C49.1480413,26.9051582 46.7034384,19.1706603 45.1371964,6.95022084 C43.5709544,19.1706603 41.1263515,26.9051582 37.7463503,30.1978748 C34.3960728,33.4616352 28.9473283,35.8489225 21.4006337,37.3796021 C28.9473283,38.9102817 34.3960728,41.297569 37.7463503,44.5613294 C41.1263515,47.854046 43.5709544,55.5885439 45.1371964,67.8089834 C46.7034384,55.5885439 49.1480413,47.854046 52.5280425,44.5613294 C55.87832,41.297569 61.3270644,38.9102817 68.8737591,37.3796021 Z" id="Star"></path>
                <path d="M23.8151472,69.4275257 C23.6273375,70.6001399 23.4617982,71.8824824 23.3177988,73.2751187 L24.3124955,73.2751187 C24.1684961,71.8824824 24.0029568,70.6001399 23.8151472,69.4275257 Z M14.5069204,57.8265448 C13.754461,57.6401181 12.9495773,57.4757945 12.0922763,57.3333106 L12.0922763,58.319779 C12.9495773,58.1772951 13.754461,58.0129715 14.5069204,57.8265448 Z M23.8151472,46.2255639 C24.0029568,45.0529497 24.1684961,43.7706072 24.3124955,42.3779709 L23.3177988,42.3779709 C23.4617982,43.7706072 23.6273375,45.0529497 23.8151472,46.2255639 Z M33.1233739,57.8265448 C33.8758334,58.0129715 34.680717,58.1772951 35.538018,58.319779 L35.538018,57.3333106 C34.680717,57.4757945 33.8758334,57.6401181 33.1233739,57.8265448 Z M23.8151472,69.4275257 C23.1094918,65.0216732 22.0894411,62.1648812 20.7162534,60.8271545 C19.3681117,59.513827 17.2982174,58.5181067 14.5069204,57.8265448 C17.2982174,57.1349828 19.3681117,56.1392626 20.7162534,54.8259351 C22.0894411,53.4882084 23.1094918,50.6314163 23.8151472,46.2255639 C24.5208025,50.6314163 25.5408532,53.4882084 26.9140409,54.8259351 C28.2621826,56.1392626 30.3320769,57.1349828 33.1233739,57.8265448 C30.3320769,58.5181067 28.2621826,59.513827 26.9140409,60.8271545 C25.5408532,62.1648812 24.5208025,65.0216732 23.8151472,69.4275257 Z" id="Star-Copy"></path>
                <path d="M26.0482866,18.7267177 C22.5733789,17.9093226 20.0153997,16.708969 18.3747384,15.1106759 C16.7078261,13.4868097 15.4786548,9.92887342 14.6440985,4.40347779 C13.8095422,9.92887342 12.5803708,13.4868097 10.9134585,15.1106759 C9.27279725,16.708969 6.71481799,17.9093226 3.23991035,18.7267177 C6.71481799,19.5441128 9.27279725,20.7444665 10.9134585,22.3427595 C12.5803708,23.9666257 13.8095422,27.524562 14.6440985,33.0499576 C15.4786548,27.524562 16.7078261,23.9666257 18.3747384,22.3427595 C20.0153997,20.7444665 22.5733789,19.5441128 26.0482866,18.7267177 Z" id="Star-Copy-2"></path>
            </g>
        </g>
    </g>
</svg>